<svg width="24" height="36" viewBox="0 0 24 36" fill="none" xmlns="http://www.w3.org/2000/svg">
<path d="M12 9.44031C8.12121 9.44031 4.96558 12.5959 4.96558 16.4748C4.96558 20.3536 8.12121 23.5093 12 23.5093C15.8789 23.5093 19.0345 20.3536 19.0345 16.4748C19.0345 12.5959 15.8788 9.44031 12 9.44031ZM16.8333 13.5417H15.0286C14.8941 12.8794 14.7138 12.2657 14.4905 11.7251C14.4311 11.5811 14.3688 11.4436 14.3042 11.3124C15.3556 11.7835 16.2385 12.5651 16.8333 13.5417ZM10.7843 12.2516C11.1436 11.3817 11.6209 10.8196 12 10.8196C12.3792 10.8196 12.8565 11.3817 13.2158 12.2516C13.3757 12.639 13.5103 13.0735 13.6184 13.5416H10.3816C10.4898 13.0735 10.6242 12.6392 10.7843 12.2516ZM6.5637 18.0287C6.42221 17.5346 6.34485 17.0138 6.34485 16.4748C6.34485 15.9359 6.42221 15.415 6.5637 14.9209H8.76582C8.7159 15.4251 8.6897 15.9455 8.6897 16.4748C8.6897 17.0041 8.71597 17.5245 8.76582 18.0287H6.5637ZM7.16673 19.4081H8.97143C9.10588 20.0703 9.28625 20.684 9.50951 21.2246C9.56895 21.3686 9.63114 21.5061 9.69581 21.6372C8.6444 21.1661 7.76149 20.3845 7.16673 19.4081ZM9.50944 11.7251C9.28618 12.2657 9.10588 12.8794 8.97136 13.5417H7.16666C7.76142 12.5652 8.6444 11.7835 9.69567 11.3124C9.63114 11.4436 9.56894 11.5811 9.50944 11.7251ZM13.2158 20.698C12.8565 21.5679 12.3792 22.13 12 22.13C11.6209 22.13 11.1436 21.5679 10.7843 20.698C10.6244 20.3105 10.4898 19.8761 10.3817 19.4081H13.6185C13.5103 19.8762 13.3758 20.3105 13.2158 20.698ZM13.8481 18.0287H10.1518C10.0976 17.529 10.069 17.008 10.069 16.4748C10.069 15.9415 10.0977 15.4205 10.1518 14.9209H13.8482C13.9024 15.4205 13.931 15.9415 13.931 16.4748C13.931 17.008 13.9024 17.5291 13.8481 18.0287ZM14.3043 21.6372C14.3689 21.506 14.4311 21.3685 14.4906 21.2246C14.7138 20.684 14.8941 20.0703 15.0287 19.4081H16.8333C16.2385 20.3845 15.3556 21.1661 14.3043 21.6372ZM15.2341 18.0288C15.2841 17.5245 15.3103 17.0042 15.3103 16.4749C15.3103 15.9455 15.2841 15.4252 15.2341 14.9209H17.4363C17.5777 15.415 17.6551 15.9359 17.6551 16.4749C17.6551 17.0138 17.5777 17.5346 17.4363 18.0288H15.2341Z" fill="#1E496B"/>
<path d="M19.1084 25.3925C18.9802 25.2642 18.8023 25.1903 18.6209 25.1903C18.4394 25.1903 18.2616 25.2641 18.1332 25.3925C18.005 25.5214 17.9312 25.6986 17.9312 25.8808C17.9312 26.0622 18.0049 26.2401 18.1332 26.3677C18.2615 26.4966 18.4394 26.5705 18.6209 26.5705C18.8023 26.5705 18.9802 26.4967 19.1084 26.3677C19.2366 26.2395 19.3106 26.0622 19.3106 25.8808C19.3106 25.6986 19.2367 25.5214 19.1084 25.3925Z" fill="#1E496B"/>
<path d="M15.6552 25.1908H5.37933C4.99852 25.1908 4.6897 25.4996 4.6897 25.8804C4.6897 26.2612 4.99852 26.5701 5.37933 26.5701H15.6552C16.036 26.5701 16.3448 26.2612 16.3448 25.8804C16.3448 25.4996 16.036 25.1908 15.6552 25.1908Z" fill="#1E496B"/>
<path d="M14.6552 28.1989H9.34491C8.9641 28.1989 8.65527 28.5077 8.65527 28.8885C8.65527 29.2693 8.9641 29.5781 9.34491 29.5781H14.6552C15.036 29.5781 15.3449 29.2693 15.3449 28.8885C15.3449 28.5077 15.0361 28.1989 14.6552 28.1989Z" fill="#1E496B"/>
<path d="M23.3104 16.1632C23.6912 16.1632 24 15.8545 24 15.4736V7.16444C24 5.76262 23.1587 4.55435 21.9549 4.01585V2.59941C21.9549 1.81711 21.6079 1.08424 21.0026 0.588626C20.3974 0.0930143 19.6105 -0.102596 18.8436 0.0514375L0.553667 3.72971C0.553598 3.72971 0.55353 3.72971 0.553461 3.72978C0.549944 3.73046 0.546566 3.73143 0.543049 3.73219C0.529466 3.73515 0.517124 3.73832 0.505816 3.74177C0.214365 3.82231 0 4.08873 0 4.40583V34.6127C0 34.9935 0.308826 35.3023 0.689636 35.3023H20.5517C22.453 35.3023 23.9999 33.7554 23.9999 31.8541V21.858C23.9999 21.4772 23.6911 21.1684 23.3103 21.1684C22.9295 21.1684 22.6207 21.4772 22.6207 21.858V31.8541C22.6207 32.9949 21.6925 33.9231 20.5517 33.9231H1.37934V5.09547H20.5517C21.6926 5.09547 22.6207 6.0236 22.6207 7.16444V15.4736C22.6207 15.8545 22.9295 16.1632 23.3104 16.1632ZM20.5756 3.71674C20.5676 3.71667 20.5597 3.71612 20.5517 3.71612H7.61689L19.1156 1.40368C19.4755 1.33142 19.8447 1.42313 20.1287 1.65576C20.4127 1.8884 20.5755 2.23225 20.5755 2.59941V3.71674H20.5756Z" fill="#1E496B"/>
<path d="M23.7979 18.2302C23.6697 18.102 23.4917 18.0288 23.3103 18.0288C23.1289 18.0288 22.951 18.102 22.8227 18.2302C22.6945 18.3591 22.6206 18.5364 22.6206 18.7185C22.6206 18.8999 22.6943 19.0778 22.8227 19.2061C22.951 19.3344 23.1289 19.4082 23.3103 19.4082C23.4917 19.4082 23.6696 19.3345 23.7979 19.2061C23.9261 19.0779 24 18.8999 24 18.7185C24 18.5364 23.9262 18.3585 23.7979 18.2302Z" fill="#1E496B"/>
</svg>
