<svg width="33" height="33" viewBox="0 0 33 33" fill="none" xmlns="http://www.w3.org/2000/svg">
<path d="M28.875 5.99414C29.231 5.99414 29.5195 5.70558 29.5195 5.34961V1.93359C29.5195 0.86741 28.6521 0 27.5859 0H1.93359C0.86741 0 0 0.86741 0 1.93359V31.0664C0 32.1326 0.86741 33 1.93359 33H27.5859C28.6521 33 29.5195 32.1326 29.5195 31.0664V29.2617C29.5195 28.9057 29.231 28.6172 28.875 28.6172C28.519 28.6172 28.2305 28.9057 28.2305 29.2617V31.0664C28.2305 31.4218 27.9413 31.7109 27.5859 31.7109H1.93359C1.5782 31.7109 1.28906 31.4218 1.28906 31.0664V1.93359C1.28906 1.5782 1.5782 1.28906 1.93359 1.28906H27.5859C27.9413 1.28906 28.2305 1.5782 28.2305 1.93359V5.34961C28.2305 5.70558 28.519 5.99414 28.875 5.99414Z" fill="#1E496B"/>
<path d="M25.7818 3.09326H3.73804C3.38206 3.09326 3.09351 3.38182 3.09351 3.73779V17.2085C3.09351 17.5645 3.38206 17.853 3.73804 17.853C4.09401 17.853 4.38257 17.5645 4.38257 17.2085V4.38232H25.1372V5.41357C25.1372 5.76955 25.4259 6.05811 25.7818 6.05811C26.1378 6.05811 26.4263 5.76955 26.4263 5.41357V3.73779C26.4263 3.38182 26.1378 3.09326 25.7818 3.09326Z" fill="#1E496B"/>
<path d="M4.19323 19.1375C4.07335 19.0176 3.90771 18.9486 3.73755 18.9486C3.56804 18.9486 3.40175 19.0176 3.28187 19.1375C3.16198 19.2573 3.09302 19.4236 3.09302 19.5931C3.09302 19.7627 3.16198 19.9289 3.28187 20.0488C3.40175 20.1687 3.56804 20.2377 3.73755 20.2377C3.90771 20.2377 4.07335 20.1687 4.19323 20.0488C4.31376 19.9289 4.38208 19.7627 4.38208 19.5931C4.38208 19.4236 4.31376 19.2573 4.19323 19.1375Z" fill="#1E496B"/>
<path d="M25.7818 27.1987C25.4258 27.1987 25.1372 27.4873 25.1372 27.8433V28.6167H4.38257V22.0747C4.38257 21.7187 4.09401 21.4302 3.73804 21.4302C3.38206 21.4302 3.09351 21.7187 3.09351 22.0747V29.2612C3.09351 29.6172 3.38206 29.9058 3.73804 29.9058H25.7818C26.1378 29.9058 26.4263 29.6172 26.4263 29.2612V27.8433C26.4263 27.4873 26.1378 27.1987 25.7818 27.1987Z" fill="#1E496B"/>
<path d="M19.9744 22.7731C19.7227 22.5213 19.3147 22.5213 19.0629 22.773L17.7891 24.0469L16.9972 23.255C16.4973 22.7551 15.6839 22.7551 15.184 23.255L14.6687 23.7703C14.4171 24.022 14.4171 24.4301 14.6687 24.6818C14.9204 24.9335 15.3286 24.9335 15.5803 24.6818L16.0906 24.1715L16.8825 24.9634C17.1324 25.2133 17.4607 25.3383 17.7891 25.3383C18.1174 25.3383 18.4457 25.2133 18.6956 24.9634L19.9744 23.6846C20.2261 23.4329 20.2261 23.0248 19.9744 22.7731Z" fill="#1E496B"/>
<path d="M32.7034 13.5206C32.9875 13.0775 33.0723 12.5317 32.936 12.0233C32.7998 11.5149 32.4535 11.0847 31.9859 10.843C31.7832 10.7382 31.659 10.5232 31.6697 10.2952C31.6941 9.76939 31.4947 9.2544 31.1225 8.88219C30.7504 8.51004 30.2355 8.3103 29.7095 8.33505C29.4804 8.34613 29.2665 8.22148 29.1617 8.01877C28.92 7.55123 28.4898 7.20492 27.9814 7.06867C27.4728 6.93235 26.9272 7.01724 26.4841 7.30128C26.292 7.42452 26.0437 7.42445 25.8517 7.30128C25.4086 7.01717 24.8629 6.93242 24.3544 7.06867C23.846 7.20492 23.4158 7.55123 23.1741 8.01877C23.0693 8.22154 22.8537 8.34536 22.6263 8.33505C22.1003 8.31049 21.5855 8.51004 21.2134 8.88219C20.8411 9.2544 20.6417 9.76939 20.6662 10.2951C20.6768 10.5232 20.5526 10.7382 20.3499 10.843C19.8823 11.0847 19.536 11.5148 19.3998 12.0233C19.3347 12.2658 19.3206 12.5169 19.354 12.7612H8.10688C7.75091 12.7612 7.46235 13.0498 7.46235 13.4058C7.46235 13.7617 7.75091 14.0503 8.10688 14.0503H19.6832C19.6694 14.0857 19.6533 14.1204 19.6323 14.1532C19.3483 14.5963 19.2635 15.1421 19.3997 15.6505C19.4184 15.7203 19.4414 15.7885 19.4678 15.855H8.10669C7.75071 15.855 7.46216 16.1435 7.46216 16.4995C7.46216 16.8555 7.75071 17.144 8.10669 17.144H20.6277C20.6557 17.2177 20.6698 17.2972 20.666 17.3786C20.6415 17.9044 20.841 18.4194 21.2132 18.7916C21.5853 19.1638 22.1001 19.3636 22.6261 19.3387C22.8538 19.3276 23.0691 19.4522 23.1739 19.655C23.2513 19.8048 23.3483 19.9419 23.4608 20.0639V26.0834C23.4608 26.3438 23.6175 26.5786 23.8579 26.6785C24.0982 26.7785 24.3752 26.724 24.5599 26.5403L26.1678 24.9407L27.7757 26.5403C27.899 26.6629 28.0632 26.7279 28.2304 26.7279C28.3137 26.7279 28.3978 26.7117 28.4777 26.6785C28.7182 26.5785 28.8748 26.3437 28.8748 26.0833V20.0638C28.9873 19.9419 29.0843 19.8047 29.1617 19.6549C29.2665 19.4522 29.4818 19.3283 29.7095 19.3387C30.2358 19.3636 30.7503 19.1638 31.1224 18.7915C31.4947 18.4193 31.6941 17.9043 31.6697 17.3785C31.659 17.1506 31.7832 16.9355 31.9859 16.8307C32.4535 16.589 32.7998 16.1589 32.936 15.6504C33.0723 15.1419 32.9875 14.5962 32.7034 14.153C32.5802 13.961 32.5802 13.7128 32.7034 13.5206ZM27.5858 24.5331L26.6223 23.5747C26.3709 23.3245 25.9647 23.3245 25.7132 23.5747L24.7498 24.5331V20.6664C25.1355 20.6846 25.5219 20.5838 25.8516 20.3725C26.0437 20.2493 26.292 20.2493 26.4841 20.3725C26.7885 20.5677 27.1413 20.6688 27.4973 20.6688C27.5268 20.6688 27.5563 20.6673 27.5858 20.6659V24.5331ZM31.6909 15.3169C31.6477 15.4781 31.5422 15.6091 31.3939 15.6857C30.7453 16.0211 30.348 16.7091 30.3819 17.4385C30.3897 17.6053 30.329 17.7621 30.211 17.8802C30.0929 17.9982 29.9361 18.0588 29.7694 18.0512C29.0395 18.0174 28.3519 18.4144 28.0166 19.0631C27.9399 19.2114 27.8089 19.3169 27.6477 19.3601C27.4865 19.4032 27.3202 19.3775 27.1798 19.2874C26.8723 19.0903 26.5201 18.9918 26.1677 18.9918C25.8155 18.9918 25.4631 19.0903 25.1558 19.2874C25.0153 19.3774 24.849 19.4032 24.6878 19.3601C24.5266 19.3169 24.3956 19.2114 24.3189 19.0631C23.9836 18.4145 23.2961 18.0171 22.5661 18.0512C22.3998 18.0588 22.2425 17.9982 22.1245 17.8802C22.0065 17.7621 21.9457 17.6053 21.9535 17.4385C21.9775 16.9236 21.7858 16.43 21.4434 16.0659C21.4333 16.0549 21.4231 16.0441 21.4123 16.0338C21.2763 15.8959 21.1187 15.7773 20.9416 15.6857C20.7933 15.6091 20.6879 15.4781 20.6447 15.3169C20.6015 15.1556 20.6273 14.9894 20.7174 14.8489C21.1115 14.2342 21.1115 13.4397 20.7174 12.825C20.6274 12.6845 20.6015 12.5182 20.6447 12.357C20.6879 12.1958 20.7934 12.0648 20.9416 11.9881C21.5903 11.6528 21.9875 10.9648 21.9536 10.2353C21.9458 10.0686 22.0066 9.91176 22.1246 9.79368C22.2426 9.67561 22.3997 9.61502 22.5662 9.62269C23.2961 9.65653 23.9837 9.25943 24.319 8.61071C24.3956 8.46241 24.5266 8.35696 24.6879 8.31378C24.8491 8.27066 25.0153 8.29637 25.1558 8.38648C25.7706 8.78067 26.5651 8.78067 27.1797 8.38648C27.3202 8.29644 27.4864 8.27053 27.6477 8.31378C27.8089 8.35696 27.9399 8.46247 28.0166 8.61071C28.3519 9.25937 29.0398 9.65672 29.7694 9.62269C29.9362 9.61508 30.0929 9.67561 30.211 9.79368C30.329 9.91176 30.3897 10.0686 30.3819 10.2353C30.348 10.9647 30.7452 11.6528 31.394 11.9881C31.5422 12.0648 31.6477 12.1957 31.6909 12.357C31.734 12.5182 31.7083 12.6845 31.6182 12.8249C31.224 13.4397 31.224 14.2341 31.6182 14.8489C31.7083 14.9894 31.7341 15.1556 31.6909 15.3169Z" fill="#1E496B"/>
<path d="M29.2329 12.0837C28.9812 11.832 28.5731 11.832 28.3214 12.0837L26.1822 14.223L25.3306 13.3714C25.0789 13.1197 24.6707 13.1197 24.419 13.3714C24.1673 13.6231 24.1673 14.0312 24.419 14.2829L25.7264 15.5903C25.8522 15.7162 26.0172 15.7791 26.1821 15.7791C26.347 15.7791 26.512 15.7162 26.6379 15.5903L29.2329 12.9952C29.4846 12.7435 29.4846 12.3354 29.2329 12.0837Z" fill="#1E496B"/>
<path d="M7.86804 7.79371C7.74815 7.67382 7.58187 7.60486 7.41235 7.60486C7.24284 7.60486 7.07655 7.67382 6.95667 7.79371C6.83679 7.91359 6.76782 8.07988 6.76782 8.24939C6.76782 8.4189 6.83679 8.58519 6.95667 8.70507C7.07655 8.82496 7.24284 8.89392 7.41235 8.89392C7.58187 8.89392 7.74815 8.82496 7.86804 8.70507C7.98792 8.58519 8.05688 8.4189 8.05688 8.24939C8.05688 8.07988 7.98792 7.91359 7.86804 7.79371Z" fill="#1E496B"/>
<path d="M12.9546 7.60486H9.81787C9.4619 7.60486 9.17334 7.89342 9.17334 8.24939C9.17334 8.60536 9.4619 8.89392 9.81787 8.89392H12.9546C13.3106 8.89392 13.5991 8.60536 13.5991 8.24939C13.5991 7.89342 13.3106 7.60486 12.9546 7.60486Z" fill="#1E496B"/>
<path d="M19.5186 18.9486H12.1501C11.7942 18.9486 11.5056 19.2372 11.5056 19.5931C11.5056 19.9491 11.7942 20.2377 12.1501 20.2377H19.5185C19.8745 20.2377 20.163 19.9491 20.163 19.5931C20.163 19.2372 19.8745 18.9486 19.5186 18.9486Z" fill="#1E496B"/>
</svg>
