<svg width="33" height="31" viewBox="0 0 33 31" fill="none" xmlns="http://www.w3.org/2000/svg">
<path d="M32.349 2.88438C32.1935 2.51664 31.9708 2.18715 31.6876 1.90394C31.4043 1.62072 31.0749 1.39798 30.7071 1.24249C30.327 1.08145 29.9229 1 29.5064 1H19.5637C19.2231 1 18.9467 1.27704 18.9467 1.61702C18.9467 1.957 19.2231 2.23404 19.5637 2.23404H29.5064C30.5251 2.23589 31.3556 3.0664 31.3574 4.08511V18.2766H2.23404V4.08511C2.23589 3.0664 3.0664 2.23589 4.08511 2.23404H14.0105C14.3505 2.23404 14.6275 1.957 14.6275 1.61702C14.6275 1.27704 14.3505 1 14.0105 1H4.08511C3.66862 1 3.26447 1.08145 2.88438 1.24249C2.51664 1.39798 2.18715 1.62072 1.90394 1.90394C1.62072 2.18715 1.39798 2.51664 1.24249 2.88438C1.08145 3.26447 1 3.66862 1 4.08511V20.7447C1 22.4458 2.38398 23.8298 4.08511 23.8298H13.4021V25.9894H12.4766C10.7755 25.9894 9.39149 27.3733 9.39149 29.0745V29.383C9.39149 29.7238 9.66773 30 10.0085 30H23.583C23.9238 30 24.2 29.7238 24.2 29.383V29.0745C24.2 27.3733 22.816 25.9894 21.1149 25.9894H20.1894V23.8298H29.5064C31.2075 23.8298 32.5915 22.4458 32.5915 20.7447V4.08511C32.5915 3.66862 32.51 3.26447 32.349 2.88438ZM19.5723 27.2234H21.1149C22.0305 27.2234 22.7929 27.8916 22.9402 28.766H10.6513C10.7986 27.8916 11.5611 27.2234 12.4766 27.2234H14.0191C14.3599 27.2234 14.6362 26.9472 14.6362 26.6064V23.8298H18.9553V26.6064C18.9553 26.9472 19.2316 27.2234 19.5723 27.2234ZM31.3574 20.7447C31.3574 21.7654 30.5271 22.5957 29.5064 22.5957H4.08511C3.06443 22.5957 2.23404 21.7654 2.23404 20.7447V19.5106H31.3574V20.7447Z" fill="#1E496B" stroke="#1E496B" stroke-width="0.2"/>
<path d="M16.7869 2.23404C17.1277 2.23404 17.404 1.95779 17.404 1.61702C17.404 1.27625 17.1277 1 16.7869 1C16.4462 1 16.1699 1.27625 16.1699 1.61702C16.1699 1.95779 16.4462 2.23404 16.7869 2.23404Z" fill="#1E496B" stroke="#1E496B" stroke-width="0.2"/>
<path d="M19.8809 8.09573C19.8809 6.3946 18.4969 5.01062 16.7958 5.01062C15.0947 5.01062 13.7107 6.3946 13.7107 8.09573C13.7107 9.00898 14.1099 9.83048 14.7426 10.3959C13.0432 11.1766 11.8596 12.8936 11.8596 14.883C11.8596 15.2237 12.1359 15.5 12.4766 15.5H20.4979V16.4255C20.4979 16.7663 20.7742 17.0425 21.1149 17.0425H25.1873C25.5281 17.0425 25.8043 16.7663 25.8043 16.4255V10.5638C25.8043 10.223 25.5281 9.94679 25.1873 9.94679H21.1149C20.7742 9.94679 20.4979 10.223 20.4979 10.5638V11.6232C20.0427 11.1069 19.4818 10.6865 18.849 10.3958C19.4817 9.83048 19.8809 9.00898 19.8809 8.09573ZM21.732 11.1808H24.5703V15.8085H21.732V11.1808ZM20.4465 14.2659H13.1451C13.4396 12.5172 14.9646 11.1808 16.7958 11.1808C18.627 11.1808 20.1519 12.5172 20.4465 14.2659ZM14.9447 8.09573C14.9447 7.07505 15.7751 6.24466 16.7958 6.24466C17.8165 6.24466 18.6469 7.07505 18.6469 8.09573C18.6469 9.1164 17.8165 9.94679 16.7958 9.94679C15.7751 9.94679 14.9447 9.1164 14.9447 8.09573Z" fill="#1E496B" stroke="#1E496B" stroke-width="0.2"/>
<path d="M9.94692 3.46814H7.47884C7.13806 3.46814 6.86182 3.74438 6.86182 4.08516V6.55325C6.86182 6.89403 7.13806 7.17027 7.47884 7.17027C7.81962 7.17027 8.09586 6.89403 8.09586 6.55325V4.70218H9.94692C10.2877 4.70218 10.5639 4.42594 10.5639 4.08516C10.5639 3.74438 10.2877 3.46814 9.94692 3.46814Z" fill="#1E496B" stroke="#1E496B" stroke-width="0.2"/>
<path d="M26.1127 7.17027C26.4535 7.17027 26.7297 6.89403 26.7297 6.55325V4.08516C26.7297 3.74438 26.4535 3.46814 26.1127 3.46814H23.6446C23.3038 3.46814 23.0276 3.74438 23.0276 4.08516C23.0276 4.42594 23.3038 4.70218 23.6446 4.70218H25.4957V6.55325C25.4957 6.89403 25.7719 7.17027 26.1127 7.17027Z" fill="#1E496B" stroke="#1E496B" stroke-width="0.2"/>
<path d="M7.47884 13.3405C7.13806 13.3405 6.86182 13.6167 6.86182 13.9575V16.4256C6.86182 16.7663 7.13806 17.0426 7.47884 17.0426H9.94692C10.2877 17.0426 10.5639 16.7663 10.5639 16.4256C10.5639 16.0848 10.2877 15.8085 9.94692 15.8085H8.09586V13.9575C8.09586 13.6167 7.81962 13.3405 7.47884 13.3405Z" fill="#1E496B" stroke="#1E496B" stroke-width="0.2"/>
</svg>
