<svg width="37" height="26" viewBox="0 0 37 26" fill="none" xmlns="http://www.w3.org/2000/svg">
<path d="M35.9571 13.046L30.2472 5.21233C30.1719 5.10906 30.07 5.0282 29.9523 4.97836L18.3209 0.0556984L18.3208 0.0561211C18.1513 -0.0155702 17.9543 -0.0216324 17.7715 0.0556984L6.14016 4.97836C6.02244 5.0282 5.92051 5.10906 5.84522 5.21233L0.135292 13.046C-0.0682918 13.3252 -0.0393897 13.711 0.2036 13.9567L5.22305 19.0354C5.37905 22.9021 8.57295 26 12.4773 26H23.6152C27.5196 26 30.7134 22.9022 30.8694 19.0354L35.8888 13.9567C36.1318 13.7109 36.1607 13.3252 35.9571 13.046ZM20.5246 12.2162C21.4333 11.6208 21.989 10.6029 21.989 9.50655C21.989 8.76595 21.7322 8.04128 21.2657 7.46606C21.1497 7.32296 21.0858 7.14278 21.0858 6.95858C21.0858 6.81174 21.1665 6.67809 21.2964 6.60964C21.494 6.50552 21.6306 6.31399 21.6645 6.09321C21.6985 5.8725 21.6259 5.64868 21.4688 5.48993L20.5416 4.5535C20.2731 4.28224 19.8375 4.27407 19.559 4.53482C19.2868 4.78951 18.9725 4.73812 18.7511 4.64578V1.76868L28.9429 6.08207C28.7877 8.99738 27.0582 11.6206 24.4287 12.9049C23.1493 12.5756 21.8437 12.3447 20.5246 12.2162ZM11.6638 12.9049C9.03432 11.6206 7.30478 8.99738 7.14962 6.08207L17.3413 1.76868V4.64585C17.1224 4.73671 16.8061 4.79015 16.5334 4.53489C16.2548 4.27414 15.8193 4.28239 15.5508 4.55357L14.6236 5.49C14.4665 5.64868 14.3938 5.8725 14.4279 6.09328C14.4619 6.31399 14.5985 6.50559 14.7961 6.60971C14.926 6.67816 15.0066 6.81181 15.0066 6.95865C15.0066 7.14278 14.9428 7.32303 14.8267 7.46613C14.3603 8.04142 14.1034 8.76609 14.1034 9.50669C14.1034 10.6031 14.6592 11.6209 15.5678 12.2163C14.2488 12.3447 12.9431 12.5756 11.6638 12.9049ZM20.1705 8.35392C20.434 8.67889 20.5791 9.08824 20.5791 9.50662C20.5791 10.1698 20.2192 10.7824 19.6398 11.1053L18.0462 11.9933L16.4525 11.1051C15.8732 10.7823 15.5133 10.1697 15.5133 9.50648C15.5133 9.08817 15.6583 8.67882 15.9218 8.35385C16.2407 7.96043 16.4164 7.46493 16.4164 6.95851C16.4164 6.60224 16.3126 6.26289 16.1263 5.97598L16.1458 5.95631C16.8338 6.27205 17.544 6.11556 18.0461 5.8701C18.5484 6.11556 19.2585 6.27205 19.9465 5.95631L19.966 5.97598C19.7797 6.26289 19.6759 6.60224 19.6759 6.95851C19.6759 7.46493 19.8516 7.9605 20.1705 8.35392ZM5.91311 7.51273C6.39591 9.91893 7.79872 12.0572 9.81926 13.4546C8.35294 13.9521 6.93159 14.5823 5.577 15.341C5.35438 15.4657 5.21657 15.7008 5.21657 15.956V17.0231L1.62777 13.392L5.91311 7.51273ZM23.6152 24.5901H12.4773C9.4895 24.5901 7.01766 22.3393 6.66858 19.4442H14.8829C15.2722 19.4442 15.5878 19.1286 15.5878 18.7392C15.5878 18.3499 15.2722 18.0343 14.8829 18.0343H6.62635V16.3733C13.7085 12.5674 22.384 12.5674 29.4661 16.3733V18.0343H21.2273C20.8379 18.0343 20.5224 18.3499 20.5224 18.7392C20.5224 19.1286 20.8379 19.4442 21.2273 19.4442H29.4238C29.0748 22.3393 26.6029 24.5901 23.6152 24.5901ZM30.8759 17.0231V15.956C30.8759 15.7009 30.7381 15.4657 30.5155 15.341C29.1609 14.5823 27.7396 13.9521 26.2732 13.4546C28.2937 12.0572 29.6966 9.91886 30.1794 7.51273L34.4648 13.392L30.8759 17.0231Z" fill="#1E496B"/>
</svg>
