<svg width="19" height="16" viewBox="0 0 19 16" fill="none" xmlns="http://www.w3.org/2000/svg">
<path d="M18 0H0.181818C0.0818182 0 0 0.0818182 0 0.181818V1.45455C0 1.55455 0.0818182 1.63636 0.181818 1.63636H18C18.1 1.63636 18.1818 1.55455 18.1818 1.45455V0.181818C18.1818 0.0818182 18.1 0 18 0ZM18 14.3636H0.181818C0.0818182 14.3636 0 14.4455 0 14.5455V15.8182C0 15.9182 0.0818182 16 0.181818 16H18C18.1 16 18.1818 15.9182 18.1818 15.8182V14.5455C18.1818 14.4455 18.1 14.3636 18 14.3636Z" fill="#1E496B"/>
<path d="M11.0909 6.40907H0.181818C0.0818182 6.40907 0 6.32725 0 6.22725V4.95452C0 4.85452 0.0818182 4.77271 0.181818 4.77271H11.0909C11.1909 4.77271 11.2727 4.85452 11.2727 4.95452V6.22725C11.2727 6.32725 11.1909 6.40907 11.0909 6.40907Z" fill="#1E496B"/>
<path d="M0.181818 11.2273C0.0818182 11.2273 0 11.1454 0 11.0454V9.77271C0 9.67271 0.0818182 9.59089 0.181818 9.59089H11.0909C11.1909 9.59089 11.2727 9.67271 11.2727 9.77271V11.0454C11.2727 11.1454 11.1909 11.2273 11.0909 11.2273H0.181818Z" fill="#1E496B"/>
<path d="M18.1054 8.15924L14.5532 10.957C14.5233 10.9804 14.4875 10.995 14.4497 10.9991C14.412 11.0031 14.3739 10.9965 14.3397 10.9799C14.3056 10.9633 14.2768 10.9374 14.2567 10.9052C14.2365 10.873 14.2259 10.8358 14.2259 10.7979V5.20015C14.2259 5.03196 14.4213 4.93878 14.5532 5.04333L18.1054 7.84333C18.1294 7.86213 18.1487 7.88611 18.162 7.91348C18.1753 7.94084 18.1822 7.97086 18.1822 8.00128C18.1822 8.0317 18.1753 8.06173 18.162 8.08909C18.1487 8.11645 18.1294 8.14044 18.1054 8.15924Z" fill="#F27480"/>
</svg>
