<svg width="20" height="16" viewBox="0 0 20 16" fill="none" xmlns="http://www.w3.org/2000/svg">
<path d="M18 0H0.181818C0.0818182 0 0 0.0818182 0 0.181818V1.45455C0 1.55455 0.0818182 1.63636 0.181818 1.63636H18C18.1 1.63636 18.1818 1.55455 18.1818 1.45455V0.181818C18.1818 0.0818182 18.1 0 18 0ZM18 14.3636H0.181818C0.0818182 14.3636 0 14.4455 0 14.5455V15.8182C0 15.9182 0.0818182 16 0.181818 16H18C18.1 16 18.1818 15.9182 18.1818 15.8182V14.5455C18.1818 14.4455 18.1 14.3636 18 14.3636Z" fill="#1E496B"/>
<path d="M11.0909 6.40907H0.181818C0.0818182 6.40907 0 6.32725 0 6.22725V4.95452C0 4.85452 0.0818182 4.77271 0.181818 4.77271H11.0909C11.1909 4.77271 11.2727 4.85452 11.2727 4.95452V6.22725C11.2727 6.32725 11.1909 6.40907 11.0909 6.40907Z" fill="#1E496B"/>
<path d="M0.181818 11.2273C0.0818182 11.2273 0 11.1454 0 11.0454V9.77271C0 9.67271 0.0818182 9.59089 0.181818 9.59089H11.0909C11.1909 9.59089 11.2727 9.67271 11.2727 9.77271V11.0454C11.2727 11.1454 11.1909 11.2273 11.0909 11.2273H0.181818Z" fill="#1E496B"/>
<path d="M16.0446 9.90103L13.2468 6.34876C13.2234 6.31891 13.2088 6.28307 13.2047 6.24533C13.2007 6.20758 13.2073 6.16946 13.2239 6.13532C13.2405 6.10119 13.2664 6.0724 13.2986 6.05227C13.3308 6.03214 13.368 6.02147 13.4059 6.02148L19.0036 6.02148C19.1718 6.02148 19.265 6.21694 19.1605 6.34876L16.3605 9.90103C16.3417 9.92495 16.3177 9.94428 16.2903 9.95758C16.263 9.97087 16.2329 9.97778 16.2025 9.97778C16.1721 9.97778 16.1421 9.97087 16.1147 9.95758C16.0873 9.94428 16.0634 9.92495 16.0446 9.90103Z" fill="#F27480"/>
</svg>
