<svg width="106" height="88" viewBox="0 0 106 88" fill="none" xmlns="http://www.w3.org/2000/svg">
<path d="M103.565 11.976V81.9235C103.565 82.4769 103.456 83.0249 103.244 83.5362C103.032 84.0475 102.722 84.5121 102.331 84.9034C101.939 85.2948 101.475 85.6051 100.964 85.8168C100.452 86.0285 99.9043 86.1374 99.3509 86.1372H6.64926C6.09586 86.1374 5.54785 86.0285 5.03654 85.8168C4.52524 85.6051 4.06066 85.2948 3.66934 84.9034C3.27803 84.5121 2.96766 84.0475 2.75596 83.5362C2.54426 83.0249 2.43538 82.4769 2.43555 81.9235V11.976H103.565Z" fill="#F7F8F9"/>
<path d="M27.7182 64.2259C36.096 64.2259 42.8875 57.4344 42.8875 49.0566C42.8875 40.6788 36.096 33.8872 27.7182 33.8872C19.3404 33.8872 12.5488 40.6788 12.5488 49.0566C12.5488 57.4344 19.3404 64.2259 27.7182 64.2259Z" fill="#F27480"/>
<path d="M22.6602 44.0001L32.7731 54.113L22.6602 44.0001Z" fill="#F7F8F9"/>
<path d="M32.7731 44.0001L22.6602 54.113L32.7731 44.0001Z" fill="#F7F8F9"/>
<path d="M99.3508 0.17749H6.64919C5.08518 0.179275 3.58573 0.801368 2.4798 1.90729C1.37388 3.01322 0.751784 4.51267 0.75 6.07668V81.9235C0.751784 83.4875 1.37388 84.9869 2.4798 86.0928C3.58573 87.1988 5.08518 87.8209 6.64919 87.8226H99.3508C100.915 87.8209 102.414 87.1988 103.52 86.0928C104.626 84.9869 105.248 83.4875 105.25 81.9235V6.07668C105.248 4.51267 104.626 3.01322 103.52 1.90729C102.414 0.801368 100.915 0.179275 99.3508 0.17749ZM6.64919 3.54846H99.3508C100.021 3.54918 100.664 3.81578 101.138 4.28976C101.612 4.76374 101.878 5.40638 101.879 6.07668V10.2904H4.12097V6.07668C4.12169 5.40638 4.38829 4.76374 4.86227 4.28976C5.33625 3.81578 5.97889 3.54918 6.64919 3.54846ZM99.3508 84.4517H6.64919C5.97889 84.451 5.33625 84.1844 4.86227 83.7104C4.38829 83.2364 4.12169 82.5938 4.12097 81.9235V13.6614H101.879V81.9235C101.878 82.5938 101.612 83.2364 101.138 83.7104C100.664 84.1844 100.021 84.451 99.3508 84.4517Z" fill="#1E496B"/>
<path d="M7.49212 8.60498H9.17761C9.62463 8.60498 10.0533 8.4274 10.3694 8.11131C10.6855 7.79522 10.8631 7.36651 10.8631 6.91949C10.8631 6.47247 10.6855 6.04377 10.3694 5.72768C10.0533 5.41159 9.62463 5.23401 9.17761 5.23401H7.49212C7.04511 5.23401 6.6164 5.41159 6.30031 5.72768C5.98422 6.04377 5.80664 6.47247 5.80664 6.91949C5.80664 7.36651 5.98422 7.79522 6.30031 8.11131C6.6164 8.4274 7.04511 8.60498 7.49212 8.60498Z" fill="#1E496B"/>
<path d="M14.2343 8.60498H15.9198C16.3668 8.60498 16.7955 8.4274 17.1116 8.11131C17.4277 7.79522 17.6053 7.36651 17.6053 6.91949C17.6053 6.47247 17.4277 6.04377 17.1116 5.72768C16.7955 5.41159 16.3668 5.23401 15.9198 5.23401H14.2343C13.7873 5.23401 13.3586 5.41159 13.0425 5.72768C12.7264 6.04377 12.5488 6.47247 12.5488 6.91949C12.5488 7.36651 12.7264 7.79522 13.0425 8.11131C13.3586 8.4274 13.7873 8.60498 14.2343 8.60498Z" fill="#1E496B"/>
<path d="M20.9745 8.60498H22.66C23.107 8.60498 23.5358 8.4274 23.8518 8.11131C24.1679 7.79522 24.3455 7.36651 24.3455 6.91949C24.3455 6.47247 24.1679 6.04377 23.8518 5.72768C23.5358 5.41159 23.107 5.23401 22.66 5.23401H20.9745C20.5275 5.23401 20.0988 5.41159 19.7827 5.72768C19.4666 6.04377 19.2891 6.47247 19.2891 6.91949C19.2891 7.36651 19.4666 7.79522 19.7827 8.11131C20.0988 8.4274 20.5275 8.60498 20.9745 8.60498Z" fill="#1E496B"/>
<path d="M33.9649 42.8083C33.8084 42.6518 33.6226 42.5276 33.4181 42.4429C33.2136 42.3582 32.9944 42.3146 32.773 42.3146C32.5517 42.3146 32.3325 42.3582 32.128 42.4429C31.9235 42.5276 31.7377 42.6518 31.5812 42.8083L27.7166 46.6729L23.852 42.8083C23.5359 42.4922 23.1072 42.3146 22.6601 42.3146C22.2131 42.3146 21.7844 42.4922 21.4683 42.8083C21.1522 43.1244 20.9746 43.5531 20.9746 44.0001C20.9746 44.4471 21.1522 44.8759 21.4683 45.192L25.3329 49.0566L21.4683 52.9212C21.3118 53.0777 21.1876 53.2635 21.1029 53.468C21.0182 53.6725 20.9746 53.8917 20.9746 54.113C20.9746 54.3344 21.0182 54.5536 21.1029 54.758C21.1876 54.9625 21.3118 55.1484 21.4683 55.3049C21.6248 55.4614 21.8106 55.5855 22.0151 55.6702C22.2196 55.755 22.4388 55.7986 22.6601 55.7986C22.8815 55.7986 23.1007 55.755 23.3052 55.6702C23.5097 55.5855 23.6955 55.4614 23.852 55.3049L27.7166 51.4403L31.5812 55.3049C31.7377 55.4614 31.9235 55.5855 32.128 55.6702C32.3325 55.755 32.5517 55.7986 32.773 55.7986C32.9944 55.7986 33.2136 55.755 33.4181 55.6702C33.6226 55.5855 33.8084 55.4614 33.9649 55.3049C34.1214 55.1484 34.2456 54.9625 34.3303 54.758C34.415 54.5536 34.4586 54.3344 34.4586 54.113C34.4586 53.8917 34.415 53.6725 34.3303 53.468C34.2456 53.2635 34.1214 53.0777 33.9649 52.9212L30.1003 49.0566L33.9649 45.192C34.1214 45.0355 34.2456 44.8496 34.3303 44.6451C34.415 44.4406 34.4586 44.2215 34.4586 44.0001C34.4586 43.7788 34.415 43.5596 34.3303 43.3551C34.2456 43.1506 34.1214 42.9648 33.9649 42.8083Z" fill="white"/>
<path d="M93.4515 38.9436H52.9999C52.5529 38.9436 52.1242 39.1212 51.8081 39.4373C51.492 39.7534 51.3145 40.1821 51.3145 40.6291C51.3145 41.0761 51.492 41.5048 51.8081 41.8209C52.1242 42.137 52.5529 42.3146 52.9999 42.3146H93.4515C93.8986 42.3146 94.3273 42.137 94.6434 41.8209C94.9595 41.5048 95.137 41.0761 95.137 40.6291C95.137 40.1821 94.9595 39.7534 94.6434 39.4373C94.3273 39.1212 93.8986 38.9436 93.4515 38.9436Z" fill="#F27480"/>
<path d="M52.9999 47.3711H68.1693C68.6163 47.3711 69.045 47.1935 69.3611 46.8774C69.6772 46.5613 69.8548 46.1326 69.8548 45.6856C69.8548 45.2386 69.6772 44.8099 69.3611 44.4938C69.045 44.1777 68.6163 44.0001 68.1693 44.0001H52.9999C52.5529 44.0001 52.1242 44.1777 51.8081 44.4938C51.492 44.8099 51.3145 45.2386 51.3145 45.6856C51.3145 46.1326 51.492 46.5613 51.8081 46.8774C52.1242 47.1935 52.5529 47.3711 52.9999 47.3711Z" fill="#F27480"/>
<path d="M93.4515 49.0565H52.9999C52.5529 49.0565 52.1242 49.2341 51.8081 49.5502C51.492 49.8663 51.3145 50.295 51.3145 50.742C51.3145 51.189 51.492 51.6177 51.8081 51.9338C52.1242 52.2499 52.5529 52.4275 52.9999 52.4275H93.4515C93.8986 52.4275 94.3273 52.2499 94.6434 51.9338C94.9595 51.6177 95.137 51.189 95.137 50.742C95.137 50.295 94.9595 49.8663 94.6434 49.5502C94.3273 49.2341 93.8986 49.0565 93.4515 49.0565Z" fill="#F27480"/>
<path d="M73.2257 54.113H52.9999C52.5529 54.113 52.1242 54.2906 51.8081 54.6067C51.492 54.9228 51.3145 55.3515 51.3145 55.7985C51.3145 56.2455 51.492 56.6742 51.8081 56.9903C52.1242 57.3064 52.5529 57.484 52.9999 57.484H73.2257C73.6728 57.484 74.1015 57.3064 74.4176 56.9903C74.7337 56.6742 74.9112 56.2455 74.9112 55.7985C74.9112 55.3515 74.7337 54.9228 74.4176 54.6067C74.1015 54.2906 73.6728 54.113 73.2257 54.113Z" fill="#F27480"/>
<path d="M79.9667 54.113H78.2812C77.8342 54.113 77.4055 54.2906 77.0894 54.6067C76.7733 54.9228 76.5957 55.3515 76.5957 55.7985C76.5957 56.2455 76.7733 56.6742 77.0894 56.9903C77.4055 57.3064 77.8342 57.484 78.2812 57.484H79.9667C80.4137 57.484 80.8424 57.3064 81.1585 56.9903C81.4746 56.6742 81.6522 56.2455 81.6522 55.7985C81.6522 55.3515 81.4746 54.9228 81.1585 54.6067C80.8424 54.2906 80.4137 54.113 79.9667 54.113Z" fill="#F27480"/>
<path d="M93.4504 44.0001H73.2245C72.7775 44.0001 72.3488 44.1777 72.0327 44.4938C71.7166 44.8099 71.5391 45.2386 71.5391 45.6856C71.5391 46.1326 71.7166 46.5613 72.0327 46.8774C72.3488 47.1935 72.7775 47.3711 73.2245 47.3711H93.4504C93.8974 47.3711 94.3261 47.1935 94.6422 46.8774C94.9583 46.5613 95.1358 46.1326 95.1358 45.6856C95.1358 45.2386 94.9583 44.8099 94.6422 44.4938C94.3261 44.1777 93.8974 44.0001 93.4504 44.0001Z" fill="#F27480"/>
</svg>
