<svg width="21" height="20" viewBox="0 0 21 20" fill="none" xmlns="http://www.w3.org/2000/svg">
<path d="M12.5806 10C12.5806 11.0571 11.7237 11.9141 10.6666 11.9141C9.60944 11.9141 8.7525 11.0571 8.7525 10C8.7525 8.94287 9.60944 8.08594 10.6666 8.08594C11.7237 8.08594 12.5806 8.94287 12.5806 10Z" fill="white"/>
<path d="M15.1429 6.61343C15.0508 6.36411 14.9041 6.13843 14.7133 5.95319C14.5281 5.76245 14.3026 5.61566 14.0531 5.52365C13.8507 5.44507 13.5468 5.35153 12.9869 5.32605C12.3813 5.29843 12.1997 5.29248 10.6665 5.29248C9.13318 5.29248 8.9516 5.29828 8.34613 5.3259C7.78629 5.35153 7.48218 5.44507 7.28 5.52365C7.03052 5.61566 6.80484 5.76245 6.61975 5.95319C6.42902 6.13843 6.28223 6.36395 6.19006 6.61343C6.11148 6.81577 6.01794 7.11987 5.99246 7.67972C5.96484 8.28519 5.95889 8.46677 5.95889 10.0001C5.95889 11.5333 5.96484 11.7149 5.99246 12.3205C6.01794 12.8804 6.11148 13.1843 6.19006 13.3867C6.28223 13.6361 6.42886 13.8617 6.6196 14.0469C6.80484 14.2376 7.03036 14.3844 7.27985 14.4764C7.48218 14.5552 7.78629 14.6487 8.34613 14.6742C8.9516 14.7018 9.13303 14.7076 10.6664 14.7076C12.1999 14.7076 12.3815 14.7018 12.9868 14.6742C13.5466 14.6487 13.8507 14.5552 14.0531 14.4764C14.5539 14.2833 14.9497 13.8875 15.1429 13.3867C15.2214 13.1843 15.315 12.8804 15.3406 12.3205C15.3682 11.7149 15.374 11.5333 15.374 10.0001C15.374 8.46677 15.3682 8.28519 15.3406 7.67972C15.3151 7.11987 15.2216 6.81577 15.1429 6.61343ZM10.6665 12.9486C9.03796 12.9486 7.71777 11.6285 7.71777 9.99997C7.71777 8.3714 9.03796 7.05136 10.6665 7.05136C12.295 7.05136 13.6151 8.3714 13.6151 9.99997C13.6151 11.6285 12.295 12.9486 10.6665 12.9486ZM13.7317 7.62387C13.3512 7.62387 13.0426 7.31534 13.0426 6.93478C13.0426 6.55423 13.3512 6.2457 13.7317 6.2457C14.1123 6.2457 14.4208 6.55423 14.4208 6.93478C14.4207 7.31534 14.1123 7.62387 13.7317 7.62387Z" fill="white"/>
<path d="M10.6667 0C5.14465 0 0.666656 4.478 0.666656 10C0.666656 15.522 5.14465 20 10.6667 20C16.1887 20 20.6667 15.522 20.6667 10C20.6667 4.478 16.1887 0 10.6667 0ZM16.3742 12.3674C16.3464 12.9787 16.2492 13.396 16.1073 13.7613C15.809 14.5326 15.1993 15.1424 14.4279 15.4407C14.0628 15.5826 13.6453 15.6796 13.0342 15.7076C12.4219 15.7355 12.2263 15.7422 10.6668 15.7422C9.10721 15.7422 8.91174 15.7355 8.29926 15.7076C7.68814 15.6796 7.27066 15.5826 6.90552 15.4407C6.52222 15.2965 6.17523 15.0705 5.88837 14.7783C5.59631 14.4916 5.37033 14.1444 5.22614 13.7613C5.08423 13.3961 4.98703 12.9787 4.95926 12.3676C4.93103 11.7551 4.92447 11.5594 4.92447 10C4.92447 8.44055 4.93103 8.24493 4.95911 7.6326C4.98688 7.02133 5.08392 6.604 5.22583 6.23871C5.37003 5.85556 5.59616 5.50842 5.88837 5.22171C6.17508 4.9295 6.52222 4.70352 6.90536 4.55933C7.27066 4.41742 7.68799 4.32037 8.29926 4.29245C8.91159 4.26453 9.10721 4.25781 10.6667 4.25781C12.2261 4.25781 12.4217 4.26453 13.0341 4.2926C13.6453 4.32037 14.0627 4.41742 14.4279 4.55917C14.8111 4.70337 15.1582 4.9295 15.4451 5.22171C15.7372 5.50858 15.9633 5.85556 16.1073 6.23871C16.2494 6.604 16.3464 7.02133 16.3744 7.6326C16.4023 8.24493 16.4088 8.44055 16.4088 10C16.4088 11.5594 16.4023 11.7551 16.3742 12.3674Z" fill="white"/>
</svg>
