<svg width="21" height="20" viewBox="0 0 21 20" fill="none" xmlns="http://www.w3.org/2000/svg">
<path d="M12.5808 10C12.5808 11.0571 11.7239 11.9141 10.6667 11.9141C9.60962 11.9141 8.75269 11.0571 8.75269 10C8.75269 8.94287 9.60962 8.08594 10.6667 8.08594C11.7239 8.08594 12.5808 8.94287 12.5808 10Z" fill="#1E496B"/>
<path d="M15.1429 6.61343C15.0509 6.36411 14.9041 6.13843 14.7134 5.95319C14.5282 5.76245 14.3026 5.61566 14.0532 5.52365C13.8508 5.44507 13.5469 5.35153 12.987 5.32605C12.3814 5.29843 12.1998 5.29248 10.6666 5.29248C9.13327 5.29248 8.95169 5.29828 8.34622 5.3259C7.78638 5.35153 7.48227 5.44507 7.28009 5.52365C7.03061 5.61566 6.80493 5.76245 6.61984 5.95319C6.42911 6.13843 6.28232 6.36395 6.19016 6.61343C6.11157 6.81577 6.01804 7.11987 5.99255 7.67972C5.96494 8.28519 5.95898 8.46677 5.95898 10.0001C5.95898 11.5333 5.96494 11.7149 5.99255 12.3205C6.01804 12.8804 6.11157 13.1843 6.19016 13.3867C6.28232 13.6361 6.42896 13.8617 6.61969 14.0469C6.80493 14.2376 7.03046 14.3844 7.27994 14.4764C7.48227 14.5552 7.78638 14.6487 8.34622 14.6742C8.95169 14.7018 9.13312 14.7076 10.6665 14.7076C12.2 14.7076 12.3816 14.7018 12.9869 14.6742C13.5467 14.6487 13.8508 14.5552 14.0532 14.4764C14.554 14.2833 14.9498 13.8875 15.1429 13.3867C15.2215 13.1843 15.3151 12.8804 15.3407 12.3205C15.3683 11.7149 15.3741 11.5333 15.3741 10.0001C15.3741 8.46677 15.3683 8.28519 15.3407 7.67972C15.3152 7.11987 15.2217 6.81577 15.1429 6.61343ZM10.6666 12.9486C9.03806 12.9486 7.71786 11.6285 7.71786 9.99997C7.71786 8.3714 9.03806 7.05136 10.6666 7.05136C12.295 7.05136 13.6152 8.3714 13.6152 9.99997C13.6152 11.6285 12.295 12.9486 10.6666 12.9486ZM13.7318 7.62387C13.3513 7.62387 13.0427 7.31534 13.0427 6.93478C13.0427 6.55423 13.3513 6.2457 13.7318 6.2457C14.1124 6.2457 14.4209 6.55423 14.4209 6.93478C14.4207 7.31534 14.1124 7.62387 13.7318 7.62387Z" fill="#1E496B"/>
<path d="M10.6667 0C5.14474 0 0.666748 4.478 0.666748 10C0.666748 15.522 5.14474 20 10.6667 20C16.1888 20 20.6667 15.522 20.6667 10C20.6667 4.478 16.1888 0 10.6667 0ZM16.3743 12.3674C16.3465 12.9787 16.2493 13.396 16.1074 13.7613C15.8091 14.5326 15.1994 15.1424 14.428 15.4407C14.0629 15.5826 13.6454 15.6796 13.0343 15.7076C12.422 15.7355 12.2263 15.7422 10.6669 15.7422C9.1073 15.7422 8.91183 15.7355 8.29935 15.7076C7.68823 15.6796 7.27075 15.5826 6.90561 15.4407C6.52231 15.2965 6.17532 15.0705 5.88846 14.7783C5.59641 14.4916 5.37042 14.1444 5.22623 13.7613C5.08432 13.3961 4.98712 12.9787 4.95935 12.3676C4.93112 11.7551 4.92456 11.5594 4.92456 10C4.92456 8.44055 4.93112 8.24493 4.9592 7.6326C4.98697 7.02133 5.08401 6.604 5.22592 6.23871C5.37012 5.85556 5.59625 5.50842 5.88846 5.22171C6.17517 4.9295 6.52231 4.70352 6.90546 4.55933C7.27075 4.41742 7.68808 4.32037 8.29935 4.29245C8.91168 4.26453 9.1073 4.25781 10.6667 4.25781C12.2262 4.25781 12.4218 4.26453 13.0341 4.2926C13.6454 4.32037 14.0627 4.41742 14.428 4.55917C14.8112 4.70337 15.1583 4.9295 15.4452 5.22171C15.7372 5.50858 15.9634 5.85556 16.1074 6.23871C16.2495 6.604 16.3465 7.02133 16.3745 7.6326C16.4024 8.24493 16.4089 8.44055 16.4089 10C16.4089 11.5594 16.4024 11.7551 16.3743 12.3674Z" fill="#1E496B"/>
</svg>
