<svg width="213" height="61" viewBox="0 0 213 61" fill="none" xmlns="http://www.w3.org/2000/svg">
<rect x="152" y="7" width="61" height="49" fill="white"/>
<path fill-rule="evenodd" clip-rule="evenodd" d="M213 0H152V61H213V0ZM155 12H167L177 20L187 12H199L181 26V38L195 31H209L193 39L209 50H196L186 42.5L181 45V50H173V26L155 12Z" fill="#F27480"/>
<path d="M0 35H6.7797V46.0217L19.2343 35H27.0184L15.3171 45.5373L27.621 61H20.3893L11.0986 49.0093L6.7797 52.764V61H0V35Z" fill="white"/>
<path d="M32.3193 35H47.8373C51.4532 35 54.1483 35.7671 55.9227 37.3012C57.7307 38.8354 58.6346 40.9752 58.6346 43.7205C58.6346 45.47 58.0655 46.9772 56.9272 48.2422C55.8223 49.5072 54.2488 50.4224 52.2065 50.9876C52.7087 51.3375 53.1104 51.7143 53.4117 52.118C53.7465 52.4948 54.0981 53.0331 54.4664 53.7329L58.3835 61H51.3527L47.536 54.0155C47.2012 53.3965 46.8162 52.9793 46.3809 52.764C45.9792 52.5217 45.3263 52.4006 44.4224 52.4006H39.099V61H32.3193V35ZM46.0796 47.8789C47.921 47.8789 49.3272 47.5559 50.2981 46.9099C51.269 46.2371 51.7545 45.1739 51.7545 43.7205C51.7545 42.2671 51.3192 41.2039 50.4488 40.5311C49.5783 39.8582 48.2558 39.5217 46.4814 39.5217H39.099V47.8789H46.0796Z" fill="white"/>
<path d="M72.4573 35H79.8899L92.1938 61H85.163L82.0996 54.7422H70.1974L67.1842 61H60.1032L72.4573 35ZM81.0952 50.5435L76.1234 40.087L71.2018 50.5435H81.0952Z" fill="white"/>
<path d="M96.909 35H119.659V39.2391H103.689V45.9006H117.801V50.0994H103.689V61H96.909V35Z" fill="white"/>
<path d="M131.327 39.1988H121.383V35H148V39.1988H138.107V61H131.327V39.1988Z" fill="white"/>
<path d="M26.6419 16.2892L15 0.391566H22.1061L30.0689 11.7861L38.0318 0.391566H45.0875L33.4456 16.2892V25.6084H26.6419V16.2892Z" fill="white"/>
<path d="M64.0823 26C59.5465 26 55.9851 25.1516 53.398 23.4548C50.8445 21.758 49.5677 19.3173 49.5677 16.1325V0.391566H56.3714V15.741C56.3714 17.6466 57.0266 19.0823 58.337 20.0482C59.6809 21.0141 61.596 21.497 64.0823 21.497C66.5686 21.497 68.4669 21.0141 69.7772 20.0482C71.0876 19.0823 71.7427 17.6466 71.7427 15.741V0.391566H78.5465V16.1325C78.5465 19.2912 77.2697 21.7319 74.7162 23.4548C72.1627 25.1516 68.6181 26 64.0823 26Z" fill="white"/>
<path d="M99.6485 26C94.2728 26 90.157 24.9036 87.3011 22.7108C84.4452 20.492 83.0173 17.3986 83.0173 13.4307C83.0173 9.20181 84.462 5.91265 87.3515 3.56325C90.2746 1.18775 94.508 0 100.052 0C103.748 0 107.007 0.35241 109.829 1.05723V5.5994C107.208 4.86847 104.117 4.50301 100.556 4.50301C96.7591 4.50301 94.0376 5.23393 92.3913 6.69578C90.7449 8.13153 89.9218 10.3765 89.9218 13.4307C89.9218 18.8343 93.1976 21.5361 99.7493 21.5361C102 21.5361 104.084 21.2751 105.999 20.753V14.8795H98.439V11.512H111.744V23.8464C110.467 24.4729 108.821 24.995 106.805 25.4127C104.789 25.8042 102.404 26 99.6485 26Z" fill="white"/>
<path d="M131.225 26C120.709 26 115.451 21.7058 115.451 13.1175C115.451 8.5753 116.745 5.26004 119.332 3.17169C121.952 1.05723 125.917 0 131.225 0C136.534 0 140.482 1.05723 143.069 3.17169C145.69 5.26004 147 8.5753 147 13.1175C147 21.7058 141.742 26 131.225 26ZM131.225 21.497C134.249 21.497 136.484 20.8183 137.928 19.4608C139.373 18.0773 140.095 15.9629 140.095 13.1175C140.095 10.011 139.39 7.80522 137.979 6.5C136.568 5.16867 134.317 4.50301 131.225 4.50301C128.134 4.50301 125.883 5.16867 124.472 6.5C123.061 7.80522 122.355 10.011 122.355 13.1175C122.355 15.9629 123.078 18.0773 124.523 19.4608C125.967 20.8183 128.202 21.497 131.225 21.497Z" fill="white"/>
</svg>
