<svg width="21" height="20" viewBox="0 0 21 20" fill="none" xmlns="http://www.w3.org/2000/svg">
<path d="M10.3333 0C4.81125 0 0.333252 4.478 0.333252 10C0.333252 15.522 4.81125 20 10.3333 20C15.8553 20 20.3333 15.522 20.3333 10C20.3333 4.478 15.8553 0 10.3333 0ZM11.6234 15.6471C9.1626 15.6895 8.23044 13.8942 8.23044 12.6305V8.93982H7.0871V7.48077C8.80096 6.86279 9.21295 5.31708 9.30969 4.43649C9.31641 4.37592 9.36401 4.35211 9.39117 4.35211H11.0454V7.22961H13.3061V8.93997H11.0376V12.4564C11.0449 12.9344 11.2204 13.5939 12.1248 13.5696C12.4243 13.5622 12.8259 13.475 13.036 13.3748L13.5793 14.9854C13.3757 15.2855 12.4536 15.6329 11.6234 15.6471Z" fill="#1E496B"/>
</svg>
