<svg width="21" height="20" viewBox="0 0 21 20" fill="none" xmlns="http://www.w3.org/2000/svg">
<path d="M10.3333 0C4.81134 0 0.333344 4.478 0.333344 10C0.333344 15.522 4.81134 20 10.3333 20C15.8553 20 20.3333 15.522 20.3333 10C20.3333 4.478 15.8553 0 10.3333 0ZM11.6235 15.6471C9.16269 15.6895 8.23053 13.8942 8.23053 12.6305V8.93982H7.08719V7.48077C8.80106 6.86279 9.21304 5.31708 9.30978 4.43649C9.3165 4.37592 9.36411 4.35211 9.39127 4.35211H11.0455V7.22961H13.3062V8.93997H11.0377V12.4564C11.045 12.9344 11.2205 13.5939 12.1249 13.5696C12.4244 13.5622 12.826 13.475 13.0361 13.3748L13.5793 14.9854C13.3758 15.2855 12.4537 15.6329 11.6235 15.6471Z" fill="white"/>
</svg>
