<svg width="932" height="305" viewBox="0 0 932 305" fill="none" xmlns="http://www.w3.org/2000/svg">
<path d="M111.128 1.8L89.336 69H68.984L56.12 28.104L42.68 69H22.328L0.536 1.8H20.12L33.656 44.712L47.864 1.8H65.336L78.872 45.096L92.984 1.8H111.128ZM168.051 54.312V69H114.099V1.8H166.803V16.488H132.915V27.816H162.771V42.024H132.915V54.312H168.051ZM232.36 70.344C225.32 70.344 218.984 68.872 213.352 65.928C207.784 62.92 203.4 58.76 200.2 53.448C197 48.136 195.4 42.12 195.4 35.4C195.4 28.68 197 22.664 200.2 17.352C203.4 12.04 207.784 7.91199 213.352 4.96799C218.984 1.96 225.32 0.455996 232.36 0.455996C238.504 0.455996 244.04 1.544 248.968 3.72C253.896 5.896 257.992 9.032 261.256 13.128L249.16 24.072C244.808 18.824 239.528 16.2 233.32 16.2C229.672 16.2 226.408 17 223.528 18.6C220.712 20.2 218.504 22.472 216.904 25.416C215.368 28.296 214.6 31.624 214.6 35.4C214.6 39.176 215.368 42.536 216.904 45.48C218.504 48.36 220.712 50.6 223.528 52.2C226.408 53.8 229.672 54.6 233.32 54.6C239.528 54.6 244.808 51.976 249.16 46.728L261.256 57.672C257.992 61.768 253.896 64.904 248.968 67.08C244.04 69.256 238.504 70.344 232.36 70.344ZM298.373 70.344C291.269 70.344 284.869 68.84 279.173 65.832C273.541 62.824 269.093 58.664 265.829 53.352C262.629 48.04 261.029 42.056 261.029 35.4C261.029 28.744 262.629 22.76 265.829 17.448C269.093 12.136 273.541 7.976 279.173 4.96799C284.869 1.96 291.269 0.455996 298.373 0.455996C305.477 0.455996 311.845 1.96 317.477 4.96799C323.173 7.976 327.621 12.136 330.821 17.448C334.085 22.76 335.717 28.744 335.717 35.4C335.717 42.056 334.085 48.04 330.821 53.352C327.621 58.664 323.173 62.824 317.477 65.832C311.845 68.84 305.477 70.344 298.373 70.344ZM298.373 54.6C301.765 54.6 304.837 53.8 307.589 52.2C310.341 50.6 312.517 48.36 314.117 45.48C315.717 42.536 316.517 39.176 316.517 35.4C316.517 31.624 315.717 28.296 314.117 25.416C312.517 22.472 310.341 20.2 307.589 18.6C304.837 17 301.765 16.2 298.373 16.2C294.981 16.2 291.909 17 289.157 18.6C286.405 20.2 284.229 22.472 282.629 25.416C281.029 28.296 280.229 31.624 280.229 35.4C280.229 39.176 281.029 42.536 282.629 45.48C284.229 48.36 286.405 50.6 289.157 52.2C291.909 53.8 294.981 54.6 298.373 54.6ZM405.768 1.8V69H390.12L360.456 33.192V69H341.832V1.8H357.48L387.144 37.608V1.8H405.768ZM479.272 1.8V69H463.624L433.96 33.192V69H415.336V1.8H430.984L460.648 37.608V1.8H479.272ZM542.792 54.312V69H488.84V1.8H541.544V16.488H507.656V27.816H537.512V42.024H507.656V54.312H542.792ZM582.91 70.344C575.87 70.344 569.534 68.872 563.902 65.928C558.334 62.92 553.95 58.76 550.75 53.448C547.55 48.136 545.95 42.12 545.95 35.4C545.95 28.68 547.55 22.664 550.75 17.352C553.95 12.04 558.334 7.91199 563.902 4.96799C569.534 1.96 575.87 0.455996 582.91 0.455996C589.054 0.455996 594.59 1.544 599.518 3.72C604.446 5.896 608.542 9.032 611.806 13.128L599.71 24.072C595.358 18.824 590.078 16.2 583.87 16.2C580.222 16.2 576.958 17 574.078 18.6C571.262 20.2 569.054 22.472 567.454 25.416C565.918 28.296 565.15 31.624 565.15 35.4C565.15 39.176 565.918 42.536 567.454 45.48C569.054 48.36 571.262 50.6 574.078 52.2C576.958 53.8 580.222 54.6 583.87 54.6C590.078 54.6 595.358 51.976 599.71 46.728L611.806 57.672C608.542 61.768 604.446 64.904 599.518 67.08C594.59 69.256 589.054 70.344 582.91 70.344ZM630.183 16.872H609.543V1.8H669.735V16.872H649.191V69H630.183V16.872ZM5.72 118.8H24.728V170.928H56.792V186H5.72V118.8ZM106.248 172.944H77.8318L72.5518 186H53.1597L82.8238 118.8H101.544L131.304 186H111.528L106.248 172.944ZM100.68 158.928L92.0398 137.424L83.3998 158.928H100.68ZM184.501 150.96C188.341 152.304 191.349 154.416 193.525 157.296C195.701 160.112 196.789 163.536 196.789 167.568C196.789 173.456 194.421 178 189.685 181.2C184.949 184.4 178.101 186 169.141 186H132.852V118.8H167.221C175.797 118.8 182.325 120.4 186.805 123.6C191.285 126.736 193.525 130.992 193.525 136.368C193.525 139.568 192.725 142.448 191.125 145.008C189.589 147.504 187.381 149.488 184.501 150.96ZM151.668 132.528V145.488H164.725C171.125 145.488 174.325 143.312 174.325 138.96C174.325 134.672 171.125 132.528 164.725 132.528H151.668ZM167.605 172.272C174.261 172.272 177.589 170 177.589 165.456C177.589 160.912 174.261 158.64 167.605 158.64H151.668V172.272H167.605ZM236.682 187.344C229.578 187.344 223.178 185.84 217.482 182.832C211.85 179.824 207.402 175.664 204.138 170.352C200.938 165.04 199.338 159.056 199.338 152.4C199.338 145.744 200.938 139.76 204.138 134.448C207.402 129.136 211.85 124.976 217.482 121.968C223.178 118.96 229.578 117.456 236.682 117.456C243.786 117.456 250.154 118.96 255.786 121.968C261.482 124.976 265.93 129.136 269.13 134.448C272.394 139.76 274.026 145.744 274.026 152.4C274.026 159.056 272.394 165.04 269.13 170.352C265.93 175.664 261.482 179.824 255.786 182.832C250.154 185.84 243.786 187.344 236.682 187.344ZM236.682 171.6C240.074 171.6 243.146 170.8 245.898 169.2C248.65 167.6 250.826 165.36 252.426 162.48C254.026 159.536 254.826 156.176 254.826 152.4C254.826 148.624 254.026 145.296 252.426 142.416C250.826 139.472 248.65 137.2 245.898 135.6C243.146 134 240.074 133.2 236.682 133.2C233.29 133.2 230.218 134 227.466 135.6C224.714 137.2 222.538 139.472 220.938 142.416C219.338 145.296 218.538 148.624 218.538 152.4C218.538 156.176 219.338 159.536 220.938 162.48C222.538 165.36 224.714 167.6 227.466 169.2C230.218 170.8 233.29 171.6 236.682 171.6ZM311.149 187.344C301.165 187.344 293.389 184.624 287.821 179.184C282.317 173.744 279.565 166.032 279.565 156.048V118.8H298.573V155.472C298.573 166.224 302.829 171.6 311.341 171.6C319.789 171.6 324.013 166.224 324.013 155.472V118.8H342.733V156.048C342.733 166.032 339.949 173.744 334.381 179.184C328.877 184.624 321.133 187.344 311.149 187.344ZM381.146 168.144H370.778V186H351.77V118.8H382.49C388.57 118.8 393.85 119.824 398.33 121.872C402.81 123.856 406.266 126.736 408.698 130.512C411.13 134.224 412.346 138.608 412.346 143.664C412.346 148.528 411.194 152.784 408.89 156.432C406.65 160.016 403.418 162.832 399.194 164.88L413.69 186H393.338L381.146 168.144ZM393.146 143.664C393.146 140.528 392.154 138.096 390.17 136.368C388.186 134.64 385.242 133.776 381.338 133.776H370.778V153.456H381.338C385.242 153.456 388.186 152.624 390.17 150.96C392.154 149.232 393.146 146.8 393.146 143.664ZM503.762 186L503.57 150.384L486.29 179.376H477.842L460.658 151.344V186H443.09V118.8H458.738L482.354 157.584L505.394 118.8H521.042L521.234 186H503.762ZM575.868 172.944H547.452L542.172 186H522.78L552.444 118.8H571.164L600.924 186H581.148L575.868 172.944ZM570.3 158.928L561.66 137.424L553.02 158.928H570.3ZM631.849 168.144H621.481V186H602.473V118.8H633.193C639.273 118.8 644.553 119.824 649.033 121.872C653.513 123.856 656.969 126.736 659.401 130.512C661.833 134.224 663.049 138.608 663.049 143.664C663.049 148.528 661.897 152.784 659.593 156.432C657.353 160.016 654.121 162.832 649.897 164.88L664.393 186H644.041L631.849 168.144ZM643.849 143.664C643.849 140.528 642.857 138.096 640.873 136.368C638.889 134.64 635.945 133.776 632.041 133.776H621.481V153.456H632.041C635.945 153.456 638.889 152.624 640.873 150.96C642.857 149.232 643.849 146.8 643.849 143.664ZM695.615 161.616L688.511 169.2V186H669.695V118.8H688.511V146.736L714.527 118.8H735.455L707.999 148.56L736.895 186H714.815L695.615 161.616ZM791.995 171.312V186H738.043V118.8H790.747V133.488H756.859V144.816H786.715V159.024H756.859V171.312H791.995ZM813.006 133.872H792.366V118.8H852.558V133.872H832.014V186H813.006V133.872ZM879.229 187.344C873.789 187.344 868.509 186.672 863.389 185.328C858.269 183.984 854.109 182.192 850.909 179.952L857.149 165.936C860.157 167.92 863.645 169.52 867.613 170.736C871.581 171.952 875.485 172.56 879.325 172.56C886.621 172.56 890.269 170.736 890.269 167.088C890.269 165.168 889.213 163.76 887.101 162.864C885.053 161.904 881.725 160.912 877.117 159.888C872.061 158.8 867.837 157.648 864.445 156.432C861.053 155.152 858.141 153.136 855.709 150.384C853.277 147.632 852.061 143.92 852.061 139.248C852.061 135.152 853.181 131.472 855.421 128.208C857.661 124.88 860.989 122.256 865.405 120.336C869.885 118.416 875.357 117.456 881.821 117.456C886.237 117.456 890.589 117.968 894.877 118.992C899.165 119.952 902.941 121.392 906.205 123.312L900.349 137.424C893.949 133.968 887.741 132.24 881.725 132.24C877.949 132.24 875.197 132.816 873.469 133.968C871.741 135.056 870.877 136.496 870.877 138.288C870.877 140.08 871.901 141.424 873.949 142.32C875.997 143.216 879.293 144.144 883.837 145.104C888.957 146.192 893.181 147.376 896.509 148.656C899.901 149.872 902.813 151.856 905.245 154.608C907.741 157.296 908.989 160.976 908.989 165.648C908.989 169.68 907.869 173.328 905.629 176.592C903.389 179.856 900.029 182.48 895.549 184.464C891.069 186.384 885.629 187.344 879.229 187.344ZM920.745 186.864C917.673 186.864 915.081 185.84 912.969 183.792C910.857 181.744 909.801 179.152 909.801 176.016C909.801 172.816 910.825 170.224 912.873 168.24C914.985 166.256 917.609 165.264 920.745 165.264C923.945 165.264 926.569 166.256 928.617 168.24C930.665 170.224 931.689 172.816 931.689 176.016C931.689 179.152 930.633 181.744 928.521 183.792C926.473 185.84 923.881 186.864 920.745 186.864ZM24.728 250.488V265.272H54.392V279.96H24.728V303H5.72V235.8H58.424V250.488H24.728ZM96.7993 304.344C89.6953 304.344 83.2953 302.84 77.5993 299.832C71.9673 296.824 67.5193 292.664 64.2553 287.352C61.0553 282.04 59.4553 276.056 59.4553 269.4C59.4553 262.744 61.0553 256.76 64.2553 251.448C67.5193 246.136 71.9673 241.976 77.5993 238.968C83.2953 235.96 89.6953 234.456 96.7993 234.456C103.903 234.456 110.271 235.96 115.903 238.968C121.599 241.976 126.047 246.136 129.247 251.448C132.511 256.76 134.143 262.744 134.143 269.4C134.143 276.056 132.511 282.04 129.247 287.352C126.047 292.664 121.599 296.824 115.903 299.832C110.271 302.84 103.903 304.344 96.7993 304.344ZM96.7993 288.6C100.191 288.6 103.263 287.8 106.015 286.2C108.767 284.6 110.943 282.36 112.543 279.48C114.143 276.536 114.943 273.176 114.943 269.4C114.943 265.624 114.143 262.296 112.543 259.416C110.943 256.472 108.767 254.2 106.015 252.6C103.263 251 100.191 250.2 96.7993 250.2C93.4073 250.2 90.3353 251 87.5833 252.6C84.8313 254.2 82.6553 256.472 81.0553 259.416C79.4553 262.296 78.6553 265.624 78.6553 269.4C78.6553 273.176 79.4553 276.536 81.0553 279.48C82.6553 282.36 84.8313 284.6 87.5833 286.2C90.3353 287.8 93.4073 288.6 96.7993 288.6ZM169.635 285.144H159.267V303H140.259V235.8H170.979C177.059 235.8 182.339 236.824 186.819 238.872C191.299 240.856 194.755 243.736 197.187 247.512C199.619 251.224 200.835 255.608 200.835 260.664C200.835 265.528 199.683 269.784 197.379 273.432C195.139 277.016 191.907 279.832 187.683 281.88L202.179 303H181.827L169.635 285.144ZM181.635 260.664C181.635 257.528 180.643 255.096 178.659 253.368C176.675 251.64 173.731 250.776 169.827 250.776H159.267V270.456H169.827C173.731 270.456 176.675 269.624 178.659 267.96C180.643 266.232 181.635 263.8 181.635 260.664Z" fill="white"/>
<path d="M267.579 278.904V303H248.571V278.616L222.939 235.8H243.003L258.939 262.488L274.875 235.8H293.307L267.579 278.904ZM325.283 304.344C318.179 304.344 311.779 302.84 306.083 299.832C300.451 296.824 296.003 292.664 292.739 287.352C289.539 282.04 287.939 276.056 287.939 269.4C287.939 262.744 289.539 256.76 292.739 251.448C296.003 246.136 300.451 241.976 306.083 238.968C311.779 235.96 318.179 234.456 325.283 234.456C332.387 234.456 338.755 235.96 344.387 238.968C350.083 241.976 354.531 246.136 357.731 251.448C360.995 256.76 362.627 262.744 362.627 269.4C362.627 276.056 360.995 282.04 357.731 287.352C354.531 292.664 350.083 296.824 344.387 299.832C338.755 302.84 332.387 304.344 325.283 304.344ZM325.283 288.6C328.675 288.6 331.747 287.8 334.499 286.2C337.251 284.6 339.427 282.36 341.027 279.48C342.627 276.536 343.427 273.176 343.427 269.4C343.427 265.624 342.627 262.296 341.027 259.416C339.427 256.472 337.251 254.2 334.499 252.6C331.747 251 328.675 250.2 325.283 250.2C321.891 250.2 318.819 251 316.067 252.6C313.315 254.2 311.139 256.472 309.539 259.416C307.939 262.296 307.139 265.624 307.139 269.4C307.139 273.176 307.939 276.536 309.539 279.48C311.139 282.36 313.315 284.6 316.067 286.2C318.819 287.8 321.891 288.6 325.283 288.6ZM399.75 304.344C389.766 304.344 381.99 301.624 376.422 296.184C370.918 290.744 368.166 283.032 368.166 273.048V235.8H387.174V272.472C387.174 283.224 391.43 288.6 399.942 288.6C408.39 288.6 412.614 283.224 412.614 272.472V235.8H431.334V273.048C431.334 283.032 428.55 290.744 422.982 296.184C417.478 301.624 409.734 304.344 399.75 304.344ZM446.625 303.864C443.553 303.864 440.961 302.84 438.849 300.792C436.737 298.744 435.681 296.152 435.681 293.016C435.681 289.816 436.705 287.224 438.753 285.24C440.865 283.256 443.489 282.264 446.625 282.264C449.825 282.264 452.449 283.256 454.497 285.24C456.545 287.224 457.569 289.816 457.569 293.016C457.569 296.152 456.513 298.744 454.401 300.792C452.353 302.84 449.761 303.864 446.625 303.864Z" fill="#F27480"/>
</svg>
