<svg width="737" height="305" viewBox="0 0 737 305" fill="none" xmlns="http://www.w3.org/2000/svg">
<path d="M67.392 69L67.2 33.384L49.92 62.376H41.472L24.288 34.344V69H6.72V1.8H22.368L45.984 40.584L69.024 1.8H84.672L84.864 69H67.392ZM94.4738 1.8H113.482V69H94.4738V1.8ZM170.878 70.344C165.438 70.344 160.158 69.672 155.038 68.328C149.918 66.984 145.758 65.192 142.558 62.952L148.798 48.936C151.806 50.92 155.294 52.52 159.262 53.736C163.23 54.952 167.134 55.56 170.974 55.56C178.27 55.56 181.918 53.736 181.918 50.088C181.918 48.168 180.862 46.76 178.75 45.864C176.702 44.904 173.374 43.912 168.766 42.888C163.71 41.8 159.486 40.648 156.094 39.432C152.702 38.152 149.79 36.136 147.358 33.384C144.926 30.632 143.71 26.92 143.71 22.248C143.71 18.152 144.83 14.472 147.07 11.208C149.31 7.88 152.638 5.256 157.054 3.336C161.534 1.416 167.006 0.455996 173.47 0.455996C177.886 0.455996 182.238 0.967997 186.526 1.992C190.814 2.952 194.59 4.392 197.854 6.31199L191.998 20.424C185.598 16.968 179.39 15.24 173.374 15.24C169.598 15.24 166.846 15.816 165.118 16.968C163.39 18.056 162.526 19.496 162.526 21.288C162.526 23.08 163.55 24.424 165.598 25.32C167.646 26.216 170.942 27.144 175.486 28.104C180.606 29.192 184.83 30.376 188.158 31.656C191.55 32.872 194.462 34.856 196.894 37.608C199.39 40.296 200.639 43.976 200.639 48.648C200.639 52.68 199.518 56.328 197.278 59.592C195.038 62.856 191.679 65.48 187.198 67.464C182.718 69.384 177.278 70.344 170.878 70.344ZM236.299 1.8C242.379 1.8 247.659 2.824 252.139 4.872C256.619 6.856 260.075 9.736 262.507 13.512C264.939 17.224 266.155 21.608 266.155 26.664C266.155 31.72 264.939 36.104 262.507 39.816C260.075 43.528 256.619 46.408 252.139 48.456C247.659 50.44 242.379 51.432 236.299 51.432H224.587V69H205.579V1.8H236.299ZM235.147 36.456C239.051 36.456 241.995 35.624 243.979 33.96C245.963 32.232 246.955 29.8 246.955 26.664C246.955 23.528 245.963 21.096 243.979 19.368C241.995 17.64 239.051 16.776 235.147 16.776H224.587V36.456H235.147ZM313.231 55.944H284.815L279.535 69H260.143L289.807 1.8H308.527L338.287 69H318.511L313.231 55.944ZM307.663 41.928L299.023 20.424L290.383 41.928H307.663ZM355.93 70.344C351.002 70.344 346.522 69.512 342.49 67.848C338.458 66.12 335.162 63.656 332.602 60.456L342.97 48.168C346.554 52.84 350.426 55.176 354.586 55.176C357.338 55.176 359.418 54.344 360.826 52.68C362.298 51.016 363.034 48.584 363.034 45.384V16.488H339.802V1.8H381.85V44.232C381.85 52.936 379.642 59.464 375.226 63.816C370.874 68.168 364.442 70.344 355.93 70.344ZM434.458 55.944H406.042L400.762 69H381.37L411.034 1.8H429.754L459.514 69H439.738L434.458 55.944ZM428.89 41.928L420.25 20.424L411.61 41.928H428.89ZM521.735 69L521.543 33.384L504.263 62.376H495.814L478.631 34.344V69H461.062V1.8H476.71L500.327 40.584L523.367 1.8H539.015L539.207 69H521.735ZM582.704 70.344C575.6 70.344 569.2 68.84 563.504 65.832C557.872 62.824 553.424 58.664 550.16 53.352C546.96 48.04 545.36 42.056 545.36 35.4C545.36 28.744 546.96 22.76 550.16 17.448C553.424 12.136 557.872 7.976 563.504 4.96799C569.2 1.96 575.6 0.455996 582.704 0.455996C589.808 0.455996 596.176 1.96 601.808 4.96799C607.504 7.976 611.952 12.136 615.152 17.448C618.416 22.76 620.048 28.744 620.048 35.4C620.048 42.056 618.416 48.04 615.152 53.352C611.952 58.664 607.504 62.824 601.808 65.832C596.176 68.84 589.808 70.344 582.704 70.344ZM582.704 54.6C586.096 54.6 589.168 53.8 591.92 52.2C594.672 50.6 596.848 48.36 598.448 45.48C600.048 42.536 600.848 39.176 600.848 35.4C600.848 31.624 600.048 28.296 598.448 25.416C596.848 22.472 594.672 20.2 591.92 18.6C589.168 17 586.096 16.2 582.704 16.2C579.312 16.2 576.24 17 573.488 18.6C570.736 20.2 568.56 22.472 566.96 25.416C565.36 28.296 564.56 31.624 564.56 35.4C564.56 39.176 565.36 42.536 566.96 45.48C568.56 48.36 570.736 50.6 573.488 52.2C576.24 53.8 579.312 54.6 582.704 54.6ZM21.024 133.872H0.384V118.8H60.576V133.872H40.032V186H21.024V133.872ZM93.1935 168.144H82.8255V186H63.8175V118.8H94.5375C100.618 118.8 105.898 119.824 110.378 121.872C114.858 123.856 118.314 126.736 120.746 130.512C123.178 134.224 124.394 138.608 124.394 143.664C124.394 148.528 123.242 152.784 120.938 156.432C118.698 160.016 115.466 162.832 111.242 164.88L125.738 186H105.386L93.1935 168.144ZM105.194 143.664C105.194 140.528 104.202 138.096 102.218 136.368C100.234 134.64 97.2895 133.776 93.3855 133.776H82.8255V153.456H93.3855C97.2895 153.456 100.234 152.624 102.218 150.96C104.202 149.232 105.194 146.8 105.194 143.664ZM187.872 170.928V186H127.68V174.096L161.568 133.872H128.544V118.8H186.432V130.704L152.544 170.928H187.872ZM192.356 118.8H211.364V186H192.356V118.8ZM244.664 187.344C239.224 187.344 233.944 186.672 228.824 185.328C223.703 183.984 219.543 182.192 216.343 179.952L222.583 165.936C225.591 167.92 229.079 169.52 233.048 170.736C237.015 171.952 240.919 172.56 244.759 172.56C252.056 172.56 255.704 170.736 255.704 167.088C255.704 165.168 254.648 163.76 252.536 162.864C250.488 161.904 247.16 160.912 242.551 159.888C237.495 158.8 233.271 157.648 229.879 156.432C226.487 155.152 223.575 153.136 221.143 150.384C218.711 147.632 217.495 143.92 217.495 139.248C217.495 135.152 218.615 131.472 220.855 128.208C223.095 124.88 226.424 122.256 230.839 120.336C235.32 118.416 240.792 117.456 247.256 117.456C251.672 117.456 256.024 117.968 260.312 118.992C264.6 119.952 268.375 121.392 271.639 123.312L265.784 137.424C259.384 133.968 253.176 132.24 247.16 132.24C243.384 132.24 240.632 132.816 238.904 133.968C237.176 135.056 236.312 136.496 236.312 138.288C236.312 140.08 237.336 141.424 239.384 142.32C241.432 143.216 244.728 144.144 249.272 145.104C254.392 146.192 258.616 147.376 261.944 148.656C265.336 149.872 268.248 151.856 270.68 154.608C273.176 157.296 274.424 160.976 274.424 165.648C274.424 169.68 273.304 173.328 271.064 176.592C268.824 179.856 265.464 182.48 260.984 184.464C256.504 186.384 251.064 187.344 244.664 187.344ZM295.588 133.872H274.948V118.8H335.14V133.872H314.596V186H295.588V133.872ZM380.03 172.944H351.614L346.334 186H326.942L356.606 118.8H375.326L405.086 186H385.31L380.03 172.944ZM374.462 158.928L365.822 137.424L357.182 158.928H374.462ZM460.109 168.144H449.741V186H430.733V118.8H461.453C467.533 118.8 472.813 119.824 477.293 121.872C481.773 123.856 485.229 126.736 487.661 130.512C490.093 134.224 491.309 138.608 491.309 143.664C491.309 148.528 490.157 152.784 487.853 156.432C485.613 160.016 482.381 162.832 478.157 164.88L492.653 186H472.301L460.109 168.144ZM472.109 143.664C472.109 140.528 471.117 138.096 469.133 136.368C467.149 134.64 464.205 133.776 460.301 133.776H449.741V153.456H460.301C464.205 153.456 467.149 152.624 469.133 150.96C471.117 149.232 472.109 146.8 472.109 143.664ZM542.979 172.944H514.563L509.283 186H489.891L519.555 118.8H538.275L568.035 186H548.259L542.979 172.944ZM537.411 158.928L528.771 137.424L520.131 158.928H537.411ZM569.584 118.8H601.36C608.72 118.8 615.248 120.176 620.944 122.928C626.64 125.68 631.056 129.584 634.192 134.64C637.328 139.696 638.896 145.616 638.896 152.4C638.896 159.184 637.328 165.104 634.192 170.16C631.056 175.216 626.64 179.12 620.944 181.872C615.248 184.624 608.72 186 601.36 186H569.584V118.8ZM600.592 170.832C606.352 170.832 610.96 169.2 614.416 165.936C617.936 162.672 619.696 158.16 619.696 152.4C619.696 146.64 617.936 142.128 614.416 138.864C610.96 135.6 606.352 133.968 600.592 133.968H588.592V170.832H600.592ZM689.143 172.944H660.727L655.447 186H636.055L665.719 118.8H684.439L714.199 186H694.423L689.143 172.944ZM683.575 158.928L674.935 137.424L666.295 158.928H683.575ZM725.564 186.864C722.492 186.864 719.9 185.84 717.788 183.792C715.676 181.744 714.62 179.152 714.62 176.016C714.62 172.816 715.644 170.224 717.692 168.24C719.804 166.256 722.428 165.264 725.564 165.264C728.764 165.264 731.388 166.256 733.436 168.24C735.484 170.224 736.508 172.816 736.508 176.016C736.508 179.152 735.452 181.744 733.34 183.792C731.292 185.84 728.7 186.864 725.564 186.864ZM63.552 287.928V303H3.36V291.096L37.248 250.872H4.224V235.8H62.112V247.704L28.224 287.928H63.552ZM113.06 289.944H84.6443L79.3643 303H59.9722L89.6363 235.8H108.356L138.116 303H118.34L113.06 289.944ZM107.492 275.928L98.8523 254.424L90.2123 275.928H107.492Z" fill="white"/>
<path d="M231.922 235.8L203.122 303H184.402L155.698 235.8H176.242L194.482 279.576L213.107 235.8H231.922ZM274.697 289.944H246.281L241.001 303H221.608L251.273 235.8H269.993L299.753 303H279.977L274.697 289.944ZM269.129 275.928L260.489 254.424L251.849 275.928H269.129ZM324.917 304.344C319.477 304.344 314.197 303.672 309.077 302.328C303.957 300.984 299.797 299.192 296.597 296.952L302.837 282.936C305.845 284.92 309.333 286.52 313.301 287.736C317.269 288.952 321.173 289.56 325.013 289.56C332.309 289.56 335.957 287.736 335.957 284.088C335.957 282.168 334.901 280.76 332.789 279.864C330.741 278.904 327.413 277.912 322.805 276.888C317.749 275.8 313.525 274.648 310.133 273.432C306.741 272.152 303.829 270.136 301.397 267.384C298.965 264.632 297.749 260.92 297.749 256.248C297.749 252.152 298.869 248.472 301.109 245.208C303.349 241.88 306.677 239.256 311.093 237.336C315.573 235.416 321.045 234.456 327.509 234.456C331.925 234.456 336.277 234.968 340.565 235.992C344.853 236.952 348.629 238.392 351.893 240.312L346.037 254.424C339.637 250.968 333.429 249.24 327.413 249.24C323.637 249.24 320.885 249.816 319.157 250.968C317.429 252.056 316.565 253.496 316.565 255.288C316.565 257.08 317.589 258.424 319.637 259.32C321.685 260.216 324.981 261.144 329.525 262.104C334.645 263.192 338.869 264.376 342.197 265.656C345.589 266.872 348.501 268.856 350.933 271.608C353.429 274.296 354.677 277.976 354.677 282.648C354.677 286.68 353.557 290.328 351.317 293.592C349.077 296.856 345.717 299.48 341.237 301.464C336.757 303.384 331.317 304.344 324.917 304.344ZM368.308 303.864C365.236 303.864 362.644 302.84 360.532 300.792C358.42 298.744 357.364 296.152 357.364 293.016C357.364 289.816 358.388 287.224 360.436 285.24C362.548 283.256 365.172 282.264 368.308 282.264C371.508 282.264 374.132 283.256 376.18 285.24C378.228 287.224 379.252 289.816 379.252 293.016C379.252 296.152 378.196 298.744 376.084 300.792C374.036 302.84 371.444 303.864 368.308 303.864Z" fill="#F27480"/>
<path d="M253.5 113.5H238L225 98.5H237L246 106L253.5 98.5H266.5L253.5 113.5Z" fill="#F27480"/>
<path d="M165.5 113H150L137 98H149L158 105.5L165.5 98H178.5L165.5 113Z" fill="#F27480"/>
</svg>
