<svg width="929" height="317" viewBox="0 0 929 317" fill="none" xmlns="http://www.w3.org/2000/svg">
<path d="M66.776 69L66.68 33.384L49.4 62.376H40.952L23.672 34.152V69H6.2V1.8H21.848L45.464 40.584L68.504 1.8H84.152L84.344 69H66.776ZM129.07 23.208C137.326 23.208 143.694 25.064 148.174 28.776C152.654 32.424 154.894 37.864 154.894 45.096C154.894 52.84 152.398 58.76 147.406 62.856C142.414 66.952 135.47 69 126.574 69H94.7975V1.8H113.518V23.208H129.07ZM125.326 55.368C128.526 55.368 131.054 54.504 132.91 52.776C134.83 51.048 135.79 48.616 135.79 45.48C135.79 39.656 132.302 36.744 125.326 36.744H113.518V55.368H125.326ZM162.286 1.8H181.006V69H162.286V1.8ZM248.766 70.344C241.662 70.344 235.262 68.84 229.566 65.832C223.934 62.824 219.486 58.664 216.222 53.352C213.022 48.04 211.422 42.056 211.422 35.4C211.422 28.744 213.022 22.76 216.222 17.448C219.486 12.136 223.934 7.976 229.566 4.96799C235.262 1.96 241.662 0.455996 248.766 0.455996C255.87 0.455996 262.238 1.96 267.87 4.96799C273.566 7.976 278.014 12.136 281.214 17.448C284.478 22.76 286.11 28.744 286.11 35.4C286.11 42.056 284.478 48.04 281.214 53.352C278.014 58.664 273.566 62.824 267.87 65.832C262.238 68.84 255.87 70.344 248.766 70.344ZM248.766 54.6C252.158 54.6 255.23 53.8 257.983 52.2C260.734 50.6 262.91 48.36 264.51 45.48C266.11 42.536 266.91 39.176 266.91 35.4C266.91 31.624 266.11 28.296 264.51 25.416C262.91 22.472 260.734 20.2 257.983 18.6C255.23 17 252.158 16.2 248.766 16.2C245.374 16.2 242.302 17 239.55 18.6C236.798 20.2 234.622 22.472 233.022 25.416C231.422 28.296 230.622 31.624 230.622 35.4C230.622 39.176 231.422 42.536 233.022 45.48C234.622 48.36 236.798 50.6 239.55 52.2C242.302 53.8 245.374 54.6 248.766 54.6ZM292.434 1.8H348.594V16.488H311.154V27.336H328.53C336.658 27.336 342.898 29.064 347.25 32.52C351.602 35.976 353.778 40.936 353.778 47.4C353.778 54.184 351.346 59.496 346.482 63.336C341.618 67.112 334.802 69 326.034 69H292.434V1.8ZM324.786 55.368C327.986 55.368 330.418 54.728 332.082 53.448C333.746 52.168 334.578 50.344 334.578 47.976C334.578 43.24 331.314 40.872 324.786 40.872H311.154V55.368H324.786ZM403.408 23.208C411.664 23.208 418 25.064 422.416 28.776C426.896 32.424 429.136 37.864 429.136 45.096C429.136 52.84 426.64 58.76 421.648 62.856C416.656 66.952 409.712 69 400.816 69H369.04V16.872H350.896V1.8H387.76V23.208H403.408ZM399.568 55.368C402.768 55.368 405.296 54.504 407.152 52.776C409.072 51.048 410.032 48.616 410.032 45.48C410.032 39.656 406.544 36.744 399.568 36.744H387.76V55.368H399.568ZM488.893 54.312V69H434.941V1.8H487.645V16.488H453.757V27.816H483.613V42.024H453.757V54.312H488.893ZM568.074 53.928V82.536H550.698V69H507.69V82.536H490.218V53.928H492.618C496.586 53.864 499.37 51.144 500.97 45.768C502.634 40.392 503.658 32.648 504.042 22.536L504.81 1.8H558.955V53.928H568.074ZM520.65 24.168C520.394 31.336 519.818 37.416 518.922 42.408C518.026 47.4 516.65 51.24 514.794 53.928H540.234V16.872H520.938L520.65 24.168ZM573.324 1.8H592.044V41.256L619.788 1.8H637.644V69H618.924V29.64L591.276 69H573.324V1.8ZM712.17 1.8V69H693.162V42.792H667.242V69H648.234V1.8H667.242V27.048H693.162V1.8H712.17ZM779.025 1.8V69H760.305V52.104H749.937L738.897 69H718.929L732.561 49.32C728.081 47.336 724.657 44.488 722.289 40.776C719.921 37 718.737 32.52 718.737 27.336C718.737 22.088 719.953 17.544 722.385 13.704C724.817 9.864 728.305 6.92 732.849 4.872C737.393 2.824 742.705 1.8 748.785 1.8H779.025ZM749.169 16.776C741.681 16.776 737.937 20.2 737.937 27.048C737.937 30.44 738.865 33.032 740.721 34.824C742.641 36.552 745.393 37.416 748.977 37.416H760.305V16.776H749.169ZM843.568 54.312V69H789.616V1.8H842.32V16.488H808.432V27.816H838.288V42.024H808.432V54.312H843.568ZM911.133 69L911.037 33.384L893.757 62.376H885.309L868.029 34.152V69H850.557V1.8H866.205L889.821 40.584L912.861 1.8H928.509L928.701 69H911.133ZM36.92 118.8C43 118.8 48.28 119.824 52.76 121.872C57.24 123.856 60.696 126.736 63.128 130.512C65.56 134.224 66.776 138.608 66.776 143.664C66.776 148.72 65.56 153.104 63.128 156.816C60.696 160.528 57.24 163.408 52.76 165.456C48.28 167.44 43 168.432 36.92 168.432H25.208V186H6.2V118.8H36.92ZM35.768 153.456C39.672 153.456 42.616 152.624 44.6 150.96C46.584 149.232 47.576 146.8 47.576 143.664C47.576 140.528 46.584 138.096 44.6 136.368C42.616 134.64 39.672 133.776 35.768 133.776H25.208V153.456H35.768ZM105.82 140.208C114.076 140.208 120.444 142.064 124.924 145.776C129.404 149.424 131.644 154.864 131.644 162.096C131.644 169.84 129.148 175.76 124.156 179.856C119.164 183.952 112.22 186 103.324 186H71.5475V118.8H90.2675V140.208H105.82ZM102.076 172.368C105.276 172.368 107.804 171.504 109.66 169.776C111.58 168.048 112.54 165.616 112.54 162.48C112.54 156.656 109.052 153.744 102.076 153.744H90.2675V172.368H102.076ZM139.036 118.8H157.756V186H139.036V118.8ZM232.331 118.8V186H213.323V159.792H187.403V186H168.395V118.8H187.403V144.048H213.323V118.8H232.331ZM270.098 160.272H261.458V186H242.546V118.8H261.458V144.912H270.578L286.61 118.8H306.578L285.554 151.248L306.77 186H285.362L270.098 160.272ZM309.028 118.8H327.748V158.256L355.492 118.8H373.348V186H354.628V146.64L326.98 186H309.028V118.8ZM462.179 133.872H441.635V186H422.915V133.872H402.275V118.8H462.179V133.872ZM497.821 118.8C503.901 118.8 509.181 119.824 513.661 121.872C518.141 123.856 521.597 126.736 524.029 130.512C526.461 134.224 527.677 138.608 527.677 143.664C527.677 148.72 526.461 153.104 524.029 156.816C521.597 160.528 518.141 163.408 513.661 165.456C509.181 167.44 503.901 168.432 497.821 168.432H486.109V186H467.101V118.8H497.821ZM496.669 153.456C500.573 153.456 503.517 152.624 505.501 150.96C507.485 149.232 508.477 146.8 508.477 143.664C508.477 140.528 507.485 138.096 505.501 136.368C503.517 134.64 500.573 133.776 496.669 133.776H486.109V153.456H496.669ZM594.789 118.8L566.949 170.736C564.005 176.304 560.389 180.528 556.101 183.408C551.877 186.288 547.237 187.728 542.181 187.728C538.469 187.728 534.501 186.896 530.277 185.232L534.789 171.216C537.413 171.984 539.653 172.368 541.509 172.368C543.365 172.368 544.997 171.952 546.405 171.12C547.877 170.288 549.221 168.976 550.437 167.184L524.325 118.8H544.389L560.037 151.248L576.261 118.8H594.789ZM667.926 170.928V199.536H650.55V186H607.542V199.536H590.07V170.928H592.47C596.438 170.864 599.222 168.144 600.822 162.768C602.486 157.392 603.51 149.648 603.894 139.536L604.662 118.8H658.806V170.928H667.926ZM620.502 141.168C620.246 148.336 619.67 154.416 618.774 159.408C617.878 164.4 616.502 168.24 614.646 170.928H640.086V133.872H620.79L620.502 141.168ZM720.293 172.944H691.877L686.597 186H667.205L696.869 118.8H715.589L745.349 186H725.573L720.293 172.944ZM714.725 158.928L706.085 137.424L697.445 158.928H714.725ZM755.546 186.864C752.474 186.864 749.882 185.84 747.77 183.792C745.658 181.744 744.602 179.152 744.602 176.016C744.602 172.816 745.626 170.224 747.674 168.24C749.786 166.256 752.41 165.264 755.546 165.264C758.746 165.264 761.37 166.256 763.418 168.24C765.466 170.224 766.49 172.816 766.49 176.016C766.49 179.152 765.434 181.744 763.322 183.792C761.274 185.84 758.682 186.864 755.546 186.864ZM78.392 287.928V316.536H61.016V303H18.008V316.536H0.536V287.928H2.936C6.904 287.864 9.688 285.144 11.288 279.768C12.952 274.392 13.976 266.648 14.36 256.536L15.128 235.8H69.272V287.928H78.392ZM30.968 258.168C30.712 265.336 30.136 271.416 29.24 276.408C28.344 281.4 26.968 285.24 25.112 287.928H50.552V250.872H31.256L30.968 258.168ZM146.329 235.8V303H127.609V250.872H108.313L107.929 261.816C107.609 271.416 106.809 279.224 105.529 285.24C104.313 291.256 102.201 295.928 99.1933 299.256C96.1853 302.52 91.9293 304.152 86.4253 304.152C83.8653 304.152 80.9853 303.768 77.7853 303L78.8413 287.448C79.6733 287.64 80.5373 287.736 81.4333 287.736C83.9293 287.736 85.8493 286.744 87.1933 284.76C88.5373 282.776 89.4973 280.024 90.0733 276.504C90.6493 272.92 91.0333 268.28 91.2253 262.584L92.1853 235.8H146.329ZM213.12 235.8V303H194.4V286.104H184.032L172.992 303H153.024L166.656 283.32C162.176 281.336 158.752 278.488 156.384 274.776C154.016 271 152.832 266.52 152.832 261.336C152.832 256.088 154.048 251.544 156.48 247.704C158.912 243.864 162.4 240.92 166.944 238.872C171.488 236.824 176.8 235.8 182.88 235.8H213.12ZM183.264 250.776C175.776 250.776 172.032 254.2 172.032 261.048C172.032 264.44 172.96 267.032 174.816 268.824C176.736 270.552 179.488 271.416 183.072 271.416H194.4V250.776H183.264Z" fill="white"/>
<path d="M296.769 267.864C300.737 269.144 303.745 271.128 305.793 273.816C307.905 276.504 308.961 279.832 308.961 283.8C308.961 289.752 306.625 294.456 301.953 297.912C297.345 301.304 290.785 303 282.273 303H247.809V235.8H280.449C288.513 235.8 294.753 237.336 299.169 240.408C303.649 243.416 305.889 247.704 305.889 253.272C305.889 256.536 305.089 259.416 303.489 261.912C301.953 264.408 299.713 266.392 296.769 267.864ZM266.529 262.68H278.625C284.001 262.68 286.689 260.472 286.689 256.056C286.689 251.64 284.001 249.432 278.625 249.432H266.529V262.68ZM281.505 289.368C287.009 289.368 289.761 287.032 289.761 282.36C289.761 277.816 287.009 275.544 281.505 275.544H266.529V289.368H281.505ZM361.774 289.944H333.358L328.078 303H308.686L338.35 235.8H357.07L386.83 303H367.054L361.774 289.944ZM356.206 275.928L347.566 254.424L338.926 275.928H356.206ZM422.49 304.344C415.45 304.344 409.114 302.872 403.482 299.928C397.914 296.92 393.53 292.76 390.33 287.448C387.13 282.136 385.53 276.12 385.53 269.4C385.53 262.68 387.13 256.664 390.33 251.352C393.53 246.04 397.914 241.912 403.482 238.968C409.114 235.96 415.45 234.456 422.49 234.456C428.634 234.456 434.17 235.544 439.098 237.72C444.026 239.896 448.122 243.032 451.386 247.128L439.29 258.072C434.938 252.824 429.658 250.2 423.45 250.2C419.802 250.2 416.538 251 413.658 252.6C410.842 254.2 408.634 256.472 407.034 259.416C405.498 262.296 404.73 265.624 404.73 269.4C404.73 273.176 405.498 276.536 407.034 279.48C408.634 282.36 410.842 284.6 413.658 286.2C416.538 287.8 419.802 288.6 423.45 288.6C429.658 288.6 434.938 285.976 439.29 280.728L451.386 291.672C448.122 295.768 444.026 298.904 439.098 301.08C434.17 303.256 428.634 304.344 422.49 304.344ZM463.5 303.864C460.428 303.864 457.836 302.84 455.724 300.792C453.612 298.744 452.556 296.152 452.556 293.016C452.556 289.816 453.58 287.224 455.628 285.24C457.74 283.256 460.364 282.264 463.5 282.264C466.7 282.264 469.324 283.256 471.372 285.24C473.42 287.224 474.444 289.816 474.444 293.016C474.444 296.152 473.388 298.744 471.276 300.792C469.228 302.84 466.636 303.864 463.5 303.864Z" fill="#F27480"/>
</svg>
