<svg width="849" height="304" viewBox="0 0 849 304" fill="none" xmlns="http://www.w3.org/2000/svg">
<path d="M114.128 0.799995L92.336 68H71.984L59.12 27.104L45.68 68H25.328L3.536 0.799995H23.12L36.656 43.712L50.864 0.799995H68.336L81.872 44.096L95.984 0.799995H114.128ZM117.099 0.799995H136.107V68H117.099V0.799995ZM175.166 50.144H164.798V68H145.79V0.799995H176.51C182.59 0.799995 187.87 1.824 192.35 3.872C196.83 5.856 200.286 8.736 202.718 12.512C205.15 16.224 206.366 20.608 206.366 25.664C206.366 30.528 205.214 34.784 202.91 38.432C200.67 42.016 197.438 44.832 193.214 46.88L207.71 68H187.358L175.166 50.144ZM187.166 25.664C187.166 22.528 186.174 20.096 184.19 18.368C182.206 16.64 179.262 15.776 175.358 15.776H164.798V35.456H175.358C179.262 35.456 182.206 34.624 184.19 32.96C186.174 31.232 187.166 28.8 187.166 25.664ZM305.27 0.799995L276.47 68H257.75L229.046 0.799995H249.59L267.83 44.576L286.454 0.799995H305.27ZM359.316 53.312V68H305.364V0.799995H358.068V15.488H324.18V26.816H354.036V41.024H324.18V53.312H359.316ZM395.4 50.144H385.032V68H366.024V0.799995H396.744C402.824 0.799995 408.104 1.824 412.584 3.872C417.064 5.856 420.52 8.736 422.952 12.512C425.384 16.224 426.6 20.608 426.6 25.664C426.6 30.528 425.448 34.784 423.144 38.432C420.904 42.016 417.672 44.832 413.448 46.88L427.944 68H407.592L395.4 50.144ZM407.4 25.664C407.4 22.528 406.408 20.096 404.424 18.368C402.44 16.64 399.496 15.776 395.592 15.776H385.032V35.456H395.592C399.496 35.456 402.44 34.624 404.424 32.96C406.408 31.232 407.4 28.8 407.4 25.664ZM484.894 32.96C488.734 34.304 491.742 36.416 493.918 39.296C496.094 42.112 497.182 45.536 497.182 49.568C497.182 55.456 494.814 60 490.078 63.2C485.342 66.4 478.494 68 469.534 68H433.246V0.799995H467.614C476.19 0.799995 482.718 2.4 487.198 5.6C491.678 8.736 493.918 12.992 493.918 18.368C493.918 21.568 493.118 24.448 491.518 27.008C489.982 29.504 487.774 31.488 484.894 32.96ZM452.062 14.528V27.488H465.118C471.518 27.488 474.718 25.312 474.718 20.96C474.718 16.672 471.518 14.528 465.118 14.528H452.062ZM467.998 54.272C474.654 54.272 477.982 52 477.982 47.456C477.982 42.912 474.654 40.64 467.998 40.64H452.062V54.272H467.998ZM503.187 0.799995H522.195V68H503.187V0.799995ZM595.815 0.799995V68H580.167L550.503 32.192V68H531.879V0.799995H547.527L577.191 36.608V0.799995H595.815ZM605.382 0.799995H637.158C644.518 0.799995 651.046 2.176 656.742 4.928C662.438 7.68 666.854 11.584 669.99 16.64C673.126 21.696 674.694 27.616 674.694 34.4C674.694 41.184 673.126 47.104 669.99 52.16C666.854 57.216 662.438 61.12 656.742 63.872C651.046 66.624 644.518 68 637.158 68H605.382V0.799995ZM636.39 52.832C642.15 52.832 646.758 51.2 650.214 47.936C653.734 44.672 655.494 40.16 655.494 34.4C655.494 28.64 653.734 24.128 650.214 20.864C646.758 17.6 642.15 15.968 636.39 15.968H624.39V52.832H636.39ZM734.807 53.312V68H680.855V0.799995H733.559V15.488H699.671V26.816H729.527V41.024H699.671V53.312H734.807ZM805.451 0.799995V68H789.803L760.139 32.192V68H741.515V0.799995H757.163L786.827 36.608V0.799995H805.451ZM53.744 171.944H25.328L20.048 185H0.656L30.32 117.8H49.04L78.8 185H59.024L53.744 171.944ZM48.176 157.928L39.536 136.424L30.896 157.928H48.176ZM109.725 167.144H99.3568V185H80.3488V117.8H111.069C117.149 117.8 122.429 118.824 126.909 120.872C131.389 122.856 134.845 125.736 137.277 129.512C139.709 133.224 140.925 137.608 140.925 142.664C140.925 147.528 139.773 151.784 137.469 155.432C135.229 159.016 131.997 161.832 127.773 163.88L142.269 185H121.917L109.725 167.144ZM121.725 142.664C121.725 139.528 120.733 137.096 118.749 135.368C116.765 133.64 113.821 132.776 109.917 132.776H99.3568V152.456H109.917C113.821 152.456 116.765 151.624 118.749 149.96C120.733 148.232 121.725 145.8 121.725 142.664ZM199.219 149.96C203.059 151.304 206.067 153.416 208.243 156.296C210.419 159.112 211.507 162.536 211.507 166.568C211.507 172.456 209.139 177 204.403 180.2C199.667 183.4 192.819 185 183.859 185H147.571V117.8H181.939C190.515 117.8 197.043 119.4 201.523 122.6C206.003 125.736 208.243 129.992 208.243 135.368C208.243 138.568 207.443 141.448 205.843 144.008C204.307 146.504 202.099 148.488 199.219 149.96ZM166.387 131.528V144.488H179.443C185.843 144.488 189.043 142.312 189.043 137.96C189.043 133.672 185.843 131.528 179.443 131.528H166.387ZM182.323 171.272C188.979 171.272 192.307 169 192.307 164.456C192.307 159.912 188.979 157.64 182.323 157.64H166.387V171.272H182.323ZM271.464 170.312V185H217.512V117.8H270.216V132.488H236.328V143.816H266.184V158.024H236.328V170.312H271.464ZM278.173 117.8H297.181V185H278.173V117.8ZM321.168 132.872H300.528V117.8H360.72V132.872H340.176V185H321.168V132.872ZM387.39 186.344C381.95 186.344 376.67 185.672 371.55 184.328C366.43 182.984 362.27 181.192 359.07 178.952L365.31 164.936C368.318 166.92 371.806 168.52 375.774 169.736C379.742 170.952 383.646 171.56 387.486 171.56C394.782 171.56 398.43 169.736 398.43 166.088C398.43 164.168 397.374 162.76 395.262 161.864C393.214 160.904 389.886 159.912 385.278 158.888C380.222 157.8 375.998 156.648 372.606 155.432C369.214 154.152 366.302 152.136 363.87 149.384C361.438 146.632 360.222 142.92 360.222 138.248C360.222 134.152 361.342 130.472 363.582 127.208C365.822 123.88 369.15 121.256 373.566 119.336C378.046 117.416 383.518 116.456 389.982 116.456C394.398 116.456 398.75 116.968 403.038 117.992C407.326 118.952 411.102 120.392 414.366 122.312L408.51 136.424C402.11 132.968 395.902 131.24 389.886 131.24C386.11 131.24 383.358 131.816 381.63 132.968C379.902 134.056 379.038 135.496 379.038 137.288C379.038 139.08 380.062 140.424 382.11 141.32C384.158 142.216 387.454 143.144 391.998 144.104C397.118 145.192 401.342 146.376 404.67 147.656C408.062 148.872 410.974 150.856 413.406 153.608C415.902 156.296 417.15 159.976 417.15 164.648C417.15 168.68 416.03 172.328 413.79 175.592C411.55 178.856 408.19 181.48 403.71 183.464C399.23 185.384 393.79 186.344 387.39 186.344ZM482.762 185L482.57 149.384L465.29 178.376H456.842L439.658 150.344V185H422.09V117.8H437.738L461.354 156.584L484.394 117.8H500.042L500.234 185H482.762ZM554.868 171.944H526.452L521.172 185H501.78L531.444 117.8H550.164L579.924 185H560.148L554.868 171.944ZM549.3 157.928L540.66 136.424L532.02 157.928H549.3ZM530.676 112.424C528.5 112.424 526.676 111.752 525.204 110.408C523.796 109 523.092 107.176 523.092 104.936C523.092 102.696 523.796 100.872 525.204 99.464C526.676 98.056 528.5 97.352 530.676 97.352C532.852 97.352 534.644 98.056 536.052 99.464C537.524 100.872 538.26 102.696 538.26 104.936C538.26 107.176 537.524 109 536.052 110.408C534.644 111.752 532.852 112.424 530.676 112.424ZM551.028 112.424C548.852 112.424 547.028 111.752 545.556 110.408C544.148 109 543.444 107.176 543.444 104.936C543.444 102.696 544.148 100.872 545.556 99.464C547.028 98.056 548.852 97.352 551.028 97.352C553.204 97.352 554.996 98.056 556.404 99.464C557.876 100.872 558.612 102.696 558.612 104.936C558.612 107.176 557.876 109 556.404 110.408C554.996 111.752 553.204 112.424 551.028 112.424ZM610.849 167.144H600.481V185H581.473V117.8H612.193C618.273 117.8 623.553 118.824 628.033 120.872C632.513 122.856 635.969 125.736 638.401 129.512C640.833 133.224 642.049 137.608 642.049 142.664C642.049 147.528 640.897 151.784 638.593 155.432C636.353 159.016 633.121 161.832 628.897 163.88L643.393 185H623.041L610.849 167.144ZM622.849 142.664C622.849 139.528 621.857 137.096 619.873 135.368C617.889 133.64 614.945 132.776 611.041 132.776H600.481V152.456H611.041C614.945 152.456 617.889 151.624 619.873 149.96C621.857 148.232 622.849 145.8 622.849 142.664ZM674.615 160.616L667.511 168.2V185H648.695V117.8H667.511V145.736L693.527 117.8H714.455L686.999 147.56L715.895 185H693.815L674.615 160.616ZM726.378 132.872H705.738V117.8H765.93V132.872H745.386V185H726.378V132.872ZM823.123 170.312V185H769.171V117.8H821.875V132.488H787.987V143.816H817.843V158.024H787.987V170.312H823.123ZM837.585 185.864C834.513 185.864 831.921 184.84 829.809 182.792C827.697 180.744 826.641 178.152 826.641 175.016C826.641 171.816 827.665 169.224 829.713 167.24C831.825 165.256 834.449 164.264 837.585 164.264C840.785 164.264 843.409 165.256 845.457 167.24C847.505 169.224 848.529 171.816 848.529 175.016C848.529 178.152 847.473 180.744 845.361 182.792C843.313 184.84 840.721 185.864 837.585 185.864ZM27.728 249.488V264.272H57.392V278.96H27.728V302H8.72V234.8H61.424V249.488H27.728ZM97.4818 303.344C87.4978 303.344 79.7218 300.624 74.1538 295.184C68.6498 289.744 65.8978 282.032 65.8978 272.048V234.8H84.9058V271.472C84.9058 282.224 89.1618 287.6 97.6738 287.6C106.122 287.6 110.346 282.224 110.346 271.472V234.8H129.066V272.048C129.066 282.032 126.282 289.744 120.714 295.184C115.21 300.624 107.466 303.344 97.4818 303.344ZM87.4978 229.424C85.3218 229.424 83.4978 228.752 82.0258 227.408C80.6178 226 79.9138 224.176 79.9138 221.936C79.9138 219.696 80.6178 217.872 82.0258 216.464C83.4978 215.056 85.3218 214.352 87.4978 214.352C89.6738 214.352 91.4658 215.056 92.8738 216.464C94.3458 217.872 95.0818 219.696 95.0818 221.936C95.0818 224.176 94.3458 226 92.8738 227.408C91.4658 228.752 89.6738 229.424 87.4978 229.424ZM107.85 229.424C105.674 229.424 103.85 228.752 102.378 227.408C100.97 226 100.266 224.176 100.266 221.936C100.266 219.696 100.97 217.872 102.378 216.464C103.85 215.056 105.674 214.352 107.85 214.352C110.026 214.352 111.818 215.056 113.226 216.464C114.698 217.872 115.434 219.696 115.434 221.936C115.434 224.176 114.698 226 113.226 227.408C111.818 228.752 110.026 229.424 107.85 229.424ZM167.479 284.144H157.111V302H138.103V234.8H168.823C174.903 234.8 180.183 235.824 184.663 237.872C189.143 239.856 192.599 242.736 195.031 246.512C197.463 250.224 198.679 254.608 198.679 259.664C198.679 264.528 197.527 268.784 195.223 272.432C192.983 276.016 189.751 278.832 185.527 280.88L200.023 302H179.671L167.479 284.144ZM179.479 259.664C179.479 256.528 178.487 254.096 176.503 252.368C174.519 250.64 171.575 249.776 167.671 249.776H157.111V269.456H167.671C171.575 269.456 174.519 268.624 176.503 266.96C178.487 265.232 179.479 262.8 179.479 259.664Z" fill="white"/>
<path d="M253.039 303.344C247.599 303.344 242.319 302.672 237.199 301.328C232.078 299.984 227.918 298.192 224.718 295.952L230.958 281.936C233.966 283.92 237.454 285.52 241.423 286.736C245.39 287.952 249.294 288.56 253.134 288.56C260.431 288.56 264.079 286.736 264.079 283.088C264.079 281.168 263.023 279.76 260.911 278.864C258.863 277.904 255.535 276.912 250.926 275.888C245.87 274.8 241.646 273.648 238.254 272.432C234.862 271.152 231.95 269.136 229.518 266.384C227.086 263.632 225.87 259.92 225.87 255.248C225.87 251.152 226.99 247.472 229.23 244.208C231.47 240.88 234.799 238.256 239.214 236.336C243.695 234.416 249.167 233.456 255.631 233.456C260.047 233.456 264.399 233.968 268.687 234.992C272.975 235.952 276.75 237.392 280.014 239.312L274.159 253.424C267.759 249.968 261.551 248.24 255.535 248.24C251.759 248.24 249.007 248.816 247.279 249.968C245.551 251.056 244.687 252.496 244.687 254.288C244.687 256.08 245.711 257.424 247.759 258.32C249.807 259.216 253.103 260.144 257.647 261.104C262.767 262.192 266.991 263.376 270.319 264.656C273.711 265.872 276.623 267.856 279.055 270.608C281.551 273.296 282.799 276.976 282.799 281.648C282.799 285.68 281.679 289.328 279.439 292.592C277.199 295.856 273.839 298.48 269.359 300.464C264.879 302.384 259.439 303.344 253.039 303.344ZM287.739 234.8H306.747V302H287.739V234.8ZM370.382 287.312V302H316.43V234.8H369.134V249.488H335.246V260.816H365.102V275.024H335.246V287.312H370.382ZM384.843 302.864C381.771 302.864 379.179 301.84 377.067 299.792C374.955 297.744 373.899 295.152 373.899 292.016C373.899 288.816 374.923 286.224 376.971 284.24C379.083 282.256 381.707 281.264 384.843 281.264C388.043 281.264 390.667 282.256 392.715 284.24C394.763 286.224 395.787 288.816 395.787 292.016C395.787 295.152 394.731 297.744 392.619 299.792C390.571 301.84 387.979 302.864 384.843 302.864Z" fill="#F27480"/>
</svg>
