<svg width="865" height="321" viewBox="0 0 865 321" fill="none" xmlns="http://www.w3.org/2000/svg">
<path d="M66.776 73L66.68 37.384L49.4 66.376H40.952L23.672 38.152V73H6.2V5.8H21.848L45.464 44.584L68.504 5.8H84.152L84.344 73H66.776ZM94.7975 5.8H113.518V45.256L141.262 5.8H159.118V73H140.398V33.64L112.75 73H94.7975V5.8ZM226.829 74.344C219.725 74.344 213.325 72.84 207.629 69.832C201.997 66.824 197.549 62.664 194.285 57.352C191.085 52.04 189.485 46.056 189.485 39.4C189.485 32.744 191.085 26.76 194.285 21.448C197.549 16.136 201.997 11.976 207.629 8.96799C213.325 5.96 219.725 4.456 226.829 4.456C233.933 4.456 240.301 5.96 245.933 8.96799C251.629 11.976 256.077 16.136 259.277 21.448C262.541 26.76 264.173 32.744 264.173 39.4C264.173 46.056 262.541 52.04 259.277 57.352C256.077 62.664 251.629 66.824 245.933 69.832C240.301 72.84 233.933 74.344 226.829 74.344ZM226.829 58.6C230.221 58.6 233.293 57.8 236.045 56.2C238.797 54.6 240.973 52.36 242.573 49.48C244.173 46.536 244.973 43.176 244.973 39.4C244.973 35.624 244.173 32.296 242.573 29.416C240.973 26.472 238.797 24.2 236.045 22.6C233.293 21 230.221 20.2 226.829 20.2C223.437 20.2 220.365 21 217.613 22.6C214.861 24.2 212.685 26.472 211.085 29.416C209.485 32.296 208.685 35.624 208.685 39.4C208.685 43.176 209.485 46.536 211.085 49.48C212.685 52.36 214.861 54.6 217.613 56.2C220.365 57.8 223.437 58.6 226.829 58.6ZM270.496 5.8H326.656V20.488H289.216V31.336H306.592C314.72 31.336 320.96 33.064 325.312 36.52C329.664 39.976 331.84 44.936 331.84 51.4C331.84 58.184 329.408 63.496 324.544 67.336C319.68 71.112 312.864 73 304.096 73H270.496V5.8ZM302.848 59.368C306.048 59.368 308.48 58.728 310.144 57.448C311.808 56.168 312.64 54.344 312.64 51.976C312.64 47.24 309.376 44.872 302.848 44.872H289.216V59.368H302.848ZM342.651 0.903996C345.787 0.903996 348.379 1.896 350.427 3.88C352.475 5.864 353.499 8.456 353.499 11.656C353.499 13.128 353.307 14.6 352.923 16.072C352.539 17.544 351.707 19.752 350.427 22.696L344.283 36.712H332.859L337.371 21.064C335.579 20.232 334.171 19.016 333.147 17.416C332.187 15.752 331.707 13.832 331.707 11.656C331.707 8.456 332.731 5.864 334.779 3.88C336.827 1.896 339.451 0.903996 342.651 0.903996ZM390.862 74.344C384.078 74.344 377.998 72.872 372.622 69.928C367.246 66.92 363.022 62.76 359.95 57.448C356.942 52.136 355.438 46.12 355.438 39.4C355.438 32.68 356.942 26.664 359.95 21.352C363.022 16.04 367.246 11.912 372.622 8.96799C377.998 5.96 384.078 4.456 390.862 4.456C397.07 4.456 402.638 5.544 407.566 7.72C412.558 9.896 416.686 13.032 419.95 17.128L407.95 28.072C403.47 22.824 398.094 20.2 391.822 20.2C387.79 20.2 384.334 21.32 381.454 23.56C378.638 25.736 376.686 28.776 375.598 32.68H399.886V46.696H375.79C376.878 50.408 378.83 53.32 381.646 55.432C384.462 57.544 387.854 58.6 391.822 58.6C398.094 58.6 403.47 55.976 407.95 50.728L419.95 61.672C416.686 65.768 412.558 68.904 407.566 71.08C402.638 73.256 397.07 74.344 390.862 74.344ZM495.324 57.928V86.536H477.948V73H434.94V86.536H417.468V57.928H419.868C423.836 57.864 426.62 55.144 428.22 49.768C429.884 44.392 430.908 36.648 431.292 26.536L432.06 5.8H486.205V57.928H495.324ZM447.9 28.168C447.644 35.336 447.068 41.416 446.172 46.408C445.276 51.4 443.9 55.24 442.044 57.928H467.484V20.872H448.188L447.9 28.168ZM564.51 5.8V73H545.502V46.792H519.582V73H500.574V5.8H519.582V31.048H545.502V5.8H564.51ZM638.949 5.8L611.109 57.736C608.165 63.304 604.549 67.528 600.261 70.408C596.037 73.288 591.397 74.728 586.341 74.728C582.629 74.728 578.661 73.896 574.437 72.232L578.949 58.216C581.573 58.984 583.813 59.368 585.669 59.368C587.525 59.368 589.157 58.952 590.565 58.12C592.037 57.288 593.381 55.976 594.597 54.184L568.485 5.8H588.549L604.197 38.248L620.421 5.8H638.949ZM671.565 74.344C664.781 74.344 658.701 72.872 653.325 69.928C647.949 66.92 643.725 62.76 640.653 57.448C637.645 52.136 636.141 46.12 636.141 39.4C636.141 32.68 637.645 26.664 640.653 21.352C643.725 16.04 647.949 11.912 653.325 8.96799C658.701 5.96 664.781 4.456 671.565 4.456C677.773 4.456 683.341 5.544 688.269 7.72C693.261 9.896 697.389 13.032 700.653 17.128L688.653 28.072C684.173 22.824 678.797 20.2 672.525 20.2C668.493 20.2 665.037 21.32 662.157 23.56C659.341 25.736 657.389 28.776 656.301 32.68H680.589V46.696H656.493C657.581 50.408 659.533 53.32 662.349 55.432C665.165 57.544 668.557 58.6 672.525 58.6C678.797 58.6 684.173 55.976 688.653 50.728L700.653 61.672C697.389 65.768 693.261 68.904 688.269 71.08C683.341 73.256 677.773 74.344 671.565 74.344ZM766.005 73L765.909 37.384L748.629 66.376H740.181L722.901 38.152V73H705.429V5.8H721.077L744.693 44.584L767.733 5.8H783.381L783.573 73H766.005ZM827.05 74.344C819.946 74.344 813.546 72.84 807.85 69.832C802.218 66.824 797.77 62.664 794.506 57.352C791.306 52.04 789.706 46.056 789.706 39.4C789.706 32.744 791.306 26.76 794.506 21.448C797.77 16.136 802.218 11.976 807.85 8.96799C813.546 5.96 819.946 4.456 827.05 4.456C834.154 4.456 840.522 5.96 846.154 8.96799C851.85 11.976 856.298 16.136 859.498 21.448C862.762 26.76 864.394 32.744 864.394 39.4C864.394 46.056 862.762 52.04 859.498 57.352C856.298 62.664 851.85 66.824 846.154 69.832C840.522 72.84 834.154 74.344 827.05 74.344ZM827.05 58.6C830.442 58.6 833.514 57.8 836.266 56.2C839.018 54.6 841.194 52.36 842.794 49.48C844.394 46.536 845.194 43.176 845.194 39.4C845.194 35.624 844.394 32.296 842.794 29.416C841.194 26.472 839.018 24.2 836.266 22.6C833.514 21 830.442 20.2 827.05 20.2C823.658 20.2 820.586 21 817.834 22.6C815.082 24.2 812.906 26.472 811.306 29.416C809.706 32.296 808.906 35.624 808.906 39.4C808.906 43.176 809.706 46.536 811.306 49.48C812.906 52.36 815.082 54.6 817.834 56.2C820.586 57.8 823.658 58.6 827.05 58.6ZM36.92 122.8C43 122.8 48.28 123.824 52.76 125.872C57.24 127.856 60.696 130.736 63.128 134.512C65.56 138.224 66.776 142.608 66.776 147.664C66.776 152.72 65.56 157.104 63.128 160.816C60.696 164.528 57.24 167.408 52.76 169.456C48.28 171.44 43 172.432 36.92 172.432H25.208V190H6.2V122.8H36.92ZM35.768 157.456C39.672 157.456 42.616 156.624 44.6 154.96C46.584 153.232 47.576 150.8 47.576 147.664C47.576 144.528 46.584 142.096 44.6 140.368C42.616 138.64 39.672 137.776 35.768 137.776H25.208V157.456H35.768ZM71.5475 122.8H90.2675V162.256L118.012 122.8H135.868V190H117.148V150.64L89.4995 190H71.5475V122.8ZM210.394 122.8V190H191.386V163.792H165.466V190H146.458V122.8H165.466V148.048H191.386V122.8H210.394ZM248.16 164.272H239.52V190H220.608V122.8H239.52V148.912H248.64L264.672 122.8H284.64L263.617 155.248L284.832 190H263.424L248.16 164.272ZM287.09 122.8H305.81V162.256L333.554 122.8H351.41V190H332.69V150.64L305.042 190H287.09V122.8ZM449.169 122.8V190H430.353V137.872H404.817V190H386.097V122.8H449.169ZM490.415 122.8C496.495 122.8 501.775 123.824 506.255 125.872C510.735 127.856 514.191 130.736 516.623 134.512C519.055 138.224 520.271 142.608 520.271 147.664C520.271 152.72 519.055 157.104 516.623 160.816C514.191 164.528 510.735 167.408 506.255 169.456C501.775 171.44 496.495 172.432 490.415 172.432H478.703V190H459.695V122.8H490.415ZM489.263 157.456C493.167 157.456 496.111 156.624 498.095 154.96C500.079 153.232 501.071 150.8 501.071 147.664C501.071 144.528 500.079 142.096 498.095 140.368C496.111 138.64 493.167 137.776 489.263 137.776H478.703V157.456H489.263ZM568.036 176.944H539.62L534.34 190H514.948L544.612 122.8H563.332L593.092 190H573.316L568.036 176.944ZM562.468 162.928L553.828 141.424L545.188 162.928H562.468ZM669.433 174.928V203.728H652.057V190H596.953V122.8H615.673V174.928H641.497V122.8H660.217V174.928H669.433ZM674.581 122.8H693.301V190H674.581V122.8ZM710.171 190.864C707.099 190.864 704.507 189.84 702.395 187.792C700.283 185.744 699.227 183.152 699.227 180.016C699.227 176.816 700.251 174.224 702.299 172.24C704.411 170.256 707.035 169.264 710.171 169.264C713.371 169.264 715.995 170.256 718.043 172.24C720.091 174.224 721.115 176.816 721.115 180.016C721.115 183.152 720.059 185.744 717.947 187.792C715.899 189.84 713.307 190.864 710.171 190.864ZM78.392 291.928V320.536H61.016V307H18.008V320.536H0.536V291.928H2.936C6.904 291.864 9.688 289.144 11.288 283.768C12.952 278.392 13.976 270.648 14.36 260.536L15.128 239.8H69.272V291.928H78.392ZM30.968 262.168C30.712 269.336 30.136 275.416 29.24 280.408C28.344 285.4 26.968 289.24 25.112 291.928H50.552V254.872H31.256L30.968 262.168ZM146.329 239.8V307H127.609V254.872H108.313L107.929 265.816C107.609 275.416 106.809 283.224 105.529 289.24C104.313 295.256 102.201 299.928 99.1933 303.256C96.1853 306.52 91.9293 308.152 86.4253 308.152C83.8653 308.152 80.9853 307.768 77.7853 307L78.8413 291.448C79.6733 291.64 80.5373 291.736 81.4333 291.736C83.9293 291.736 85.8493 290.744 87.1933 288.76C88.5373 286.776 89.4973 284.024 90.0733 280.504C90.6493 276.92 91.0333 272.28 91.2253 266.584L92.1853 239.8H146.329ZM213.12 239.8V307H194.4V290.104H184.032L172.992 307H153.024L166.656 287.32C162.176 285.336 158.752 282.488 156.384 278.776C154.016 275 152.832 270.52 152.832 265.336C152.832 260.088 154.048 255.544 156.48 251.704C158.912 247.864 162.4 244.92 166.944 242.872C171.488 240.824 176.8 239.8 182.88 239.8H213.12ZM183.264 254.776C175.776 254.776 172.032 258.2 172.032 265.048C172.032 268.44 172.96 271.032 174.816 272.824C176.736 274.552 179.488 275.416 183.072 275.416H194.4V254.776H183.264Z" fill="white"/>
<path d="M296.769 271.864C300.737 273.144 303.745 275.128 305.793 277.816C307.905 280.504 308.961 283.832 308.961 287.8C308.961 293.752 306.625 298.456 301.953 301.912C297.345 305.304 290.785 307 282.273 307H247.809V239.8H280.449C288.513 239.8 294.753 241.336 299.169 244.408C303.649 247.416 305.889 251.704 305.889 257.272C305.889 260.536 305.089 263.416 303.489 265.912C301.953 268.408 299.713 270.392 296.769 271.864ZM266.529 266.68H278.625C284.001 266.68 286.689 264.472 286.689 260.056C286.689 255.64 284.001 253.432 278.625 253.432H266.529V266.68ZM281.505 293.368C287.009 293.368 289.761 291.032 289.761 286.36C289.761 281.816 287.009 279.544 281.505 279.544H266.529V293.368H281.505ZM361.774 293.944H333.358L328.078 307H308.686L338.35 239.8H357.07L386.83 307H367.054L361.774 293.944ZM356.206 279.928L347.566 258.424L338.926 279.928H356.206ZM422.49 308.344C415.45 308.344 409.114 306.872 403.482 303.928C397.914 300.92 393.53 296.76 390.33 291.448C387.13 286.136 385.53 280.12 385.53 273.4C385.53 266.68 387.13 260.664 390.33 255.352C393.53 250.04 397.914 245.912 403.482 242.968C409.114 239.96 415.45 238.456 422.49 238.456C428.634 238.456 434.17 239.544 439.098 241.72C444.026 243.896 448.122 247.032 451.386 251.128L439.29 262.072C434.938 256.824 429.658 254.2 423.45 254.2C419.802 254.2 416.538 255 413.658 256.6C410.842 258.2 408.634 260.472 407.034 263.416C405.498 266.296 404.73 269.624 404.73 273.4C404.73 277.176 405.498 280.536 407.034 283.48C408.634 286.36 410.842 288.6 413.658 290.2C416.538 291.8 419.802 292.6 423.45 292.6C429.658 292.6 434.938 289.976 439.29 284.728L451.386 295.672C448.122 299.768 444.026 302.904 439.098 305.08C434.17 307.256 428.634 308.344 422.49 308.344ZM463.5 307.864C460.428 307.864 457.836 306.84 455.724 304.792C453.612 302.744 452.556 300.152 452.556 297.016C452.556 293.816 453.58 291.224 455.628 289.24C457.74 287.256 460.364 286.264 463.5 286.264C466.7 286.264 469.324 287.256 471.372 289.24C473.42 291.224 474.444 293.816 474.444 297.016C474.444 300.152 473.388 302.744 471.276 304.792C469.228 306.84 466.636 307.864 463.5 307.864Z" fill="#F27480"/>
</svg>
