<svg width="115" height="33" viewBox="0 0 115 33" fill="none" xmlns="http://www.w3.org/2000/svg">
<rect x="82.0657" y="3.83496" width="32.9343" height="26.4554" fill="white"/>
<path fill-rule="evenodd" clip-rule="evenodd" d="M115 0.0551758H82.0657V32.9894H115V0.0551758ZM83.6855 6.53403H90.1643L95.5634 10.8533L100.962 6.53403H107.441L97.723 14.0927V20.5716L105.282 16.7922H112.84L104.202 21.1115L112.84 27.0505H105.822L100.423 23.0012L97.723 24.3509V27.0505H93.4038V14.0927L83.6855 6.53403Z" fill="#F27480"/>
<path d="M0 18.9517H3.6604V24.9024L10.3847 18.9517H14.5874L8.2698 24.6408L14.9128 32.9892H11.0083L5.99222 26.5154L3.6604 28.5425V32.9892H0V18.9517Z" fill="#1E496B"/>
<path d="M17.4494 18.9517H25.8277C27.7799 18.9517 29.235 19.3658 30.193 20.1941C31.1691 21.0224 31.6572 22.1777 31.6572 23.6599C31.6572 24.6045 31.3499 25.4182 30.7353 26.1012C30.1388 26.7842 29.2892 27.2783 28.1866 27.5835C28.4577 27.7724 28.6746 27.9758 28.8373 28.1938C29.0181 28.3972 29.2079 28.6879 29.4067 29.0657L31.5216 32.9892H27.7257L25.665 29.2183C25.4842 28.884 25.2763 28.6588 25.0414 28.5425C24.8244 28.4118 24.472 28.3464 23.9839 28.3464H21.1098V32.9892H17.4494V18.9517ZM24.8787 25.905C25.8729 25.905 26.632 25.7307 27.1563 25.3819C27.6805 25.0186 27.9426 24.4446 27.9426 23.6599C27.9426 22.8752 27.7076 22.3012 27.2376 21.9379C26.7676 21.5746 26.0536 21.393 25.0956 21.393H21.1098V25.905H24.8787Z" fill="#1E496B"/>
<path d="M39.1201 18.9517H43.133L49.776 32.9892H45.98L44.326 29.6106H37.9L36.2732 32.9892H32.4501L39.1201 18.9517ZM43.7838 27.3437L41.0995 21.6981L38.4423 27.3437H43.7838Z" fill="#1E496B"/>
<path d="M52.3217 18.9517H64.6044V21.2404H55.9821V24.837H63.6012V27.1039H55.9821V32.9892H52.3217V18.9517Z" fill="#1E496B"/>
<path d="M70.9042 21.2186H65.5356V18.9517H79.9061V21.2186H74.5646V32.9892H70.9042V21.2186Z" fill="#1E496B"/>
<path d="M14.3841 8.84979L8.0986 0.266585H11.9352L16.2344 6.41859L20.5336 0.266585H24.343L18.0575 8.84979V13.8813H14.3841V8.84979Z" fill="#1E496B"/>
<path d="M34.5984 14.0927C32.1495 14.0927 30.2267 13.6347 28.8299 12.7186C27.4513 11.8025 26.7619 10.4847 26.7619 8.76523V0.266585H30.4353V8.55382C30.4353 9.58268 30.789 10.3578 31.4965 10.8793C32.2221 11.4008 33.2561 11.6615 34.5984 11.6615C35.9408 11.6615 36.9657 11.4008 37.6732 10.8793C38.3806 10.3578 38.7344 9.58268 38.7344 8.55382V0.266585H42.4077V8.76523C42.4077 10.4706 41.7184 11.7884 40.3398 12.7186C38.9611 13.6347 37.0473 14.0927 34.5984 14.0927Z" fill="#1E496B"/>
<path d="M53.8009 14.0927C50.8985 14.0927 48.6763 13.5008 47.1344 12.3169C45.5925 11.1189 44.8216 9.44878 44.8216 7.30651C44.8216 5.02329 45.6016 3.24745 47.1616 1.979C48.7398 0.69645 51.0254 0.0551758 54.0186 0.0551758C56.014 0.0551758 57.7735 0.245444 59.2973 0.62598V3.07832C57.8824 2.68369 56.2135 2.48638 54.2907 2.48638C52.2408 2.48638 50.7715 2.88101 49.8826 3.67027C48.9938 4.44544 48.5493 5.65752 48.5493 7.30651C48.5493 10.2239 50.318 11.6827 53.8553 11.6827C55.0707 11.6827 56.1954 11.5417 57.2293 11.2599V8.08872H53.1478V6.2706H60.3313V12.93C59.642 13.2682 58.7531 13.5501 57.6647 13.7756C56.5763 13.987 55.2884 14.0927 53.8009 14.0927Z" fill="#1E496B"/>
<path d="M70.8495 14.0927C65.1716 14.0927 62.3327 11.7743 62.3327 7.13738C62.3327 4.68503 63.0311 2.8951 64.4279 1.76759C65.8428 0.62598 67.9833 0.0551758 70.8495 0.0551758C73.7156 0.0551758 75.847 0.62598 77.2438 1.76759C78.6588 2.8951 79.3662 4.68503 79.3662 7.13738C79.3662 11.7743 76.5273 14.0927 70.8495 14.0927ZM70.8495 11.6615C72.4821 11.6615 73.6884 11.2951 74.4684 10.5622C75.2484 9.81523 75.6384 8.67362 75.6384 7.13738C75.6384 5.4602 75.2575 4.26926 74.4956 3.56457C73.7337 2.84577 72.5183 2.48638 70.8495 2.48638C69.1806 2.48638 67.9652 2.84577 67.2033 3.56457C66.4414 4.26926 66.0605 5.4602 66.0605 7.13738C66.0605 8.67362 66.4505 9.81523 67.2305 10.5622C68.0105 11.2951 69.2169 11.6615 70.8495 11.6615Z" fill="#1E496B"/>
</svg>
