<svg width="20" height="26" viewBox="0 0 20 26" fill="none" xmlns="http://www.w3.org/2000/svg">
<path d="M0 3C0 2.33696 0.263392 1.70107 0.732233 1.23223C1.20107 0.763392 1.83696 0.5 2.5 0.5H12.5C12.8315 0.500071 13.1494 0.631813 13.3837 0.86625L19.6337 7.11625C19.8682 7.35062 19.9999 7.66851 20 8V23C20 23.663 19.7366 24.2989 19.2678 24.7678C18.7989 25.2366 18.163 25.5 17.5 25.5H2.5C1.83696 25.5 1.20107 25.2366 0.732233 24.7678C0.263392 24.2989 0 23.663 0 23V3ZM16.9825 8L12.5 3.5175V8H16.9825ZM10 3H2.5V23H17.5V10.5H11.25C10.9185 10.5 10.6005 10.3683 10.3661 10.1339C10.1317 9.89946 10 9.58152 10 9.25V3Z" fill="#1E496B"/>
<path fill-rule="evenodd" clip-rule="evenodd" d="M11.2759 11.875H8.72461V14.9119L5.6875 14.9119V17.4631H8.72461V20.5H11.2759V17.4631H14.3125V14.9119L11.2759 14.9119V11.875Z" fill="#1E496B"/>
</svg>
