<svg width="20" height="26" viewBox="0 0 20 26" fill="none" xmlns="http://www.w3.org/2000/svg">
<path d="M12.6667 10.875L9.72222 13.8194L6.76389 10.875L4.80556 12.8333L7.76389 15.7778L4.81945 18.7222L6.77778 20.6806L9.72222 17.7361L12.6667 20.6806L14.625 18.7222L11.6806 15.7778L14.625 12.8333L12.6667 10.875ZM14.5833 1.88889L13.1944 0.5H6.25L4.86111 1.88889H0V4.66667H19.4444V1.88889H14.5833ZM1.38889 22.7222C1.38889 24.25 2.63889 25.5 4.16667 25.5H15.2778C16.8056 25.5 18.0556 24.25 18.0556 22.7222V6.05556H1.38889V22.7222ZM4.16667 8.83333H15.2778V22.7222H4.16667V8.83333Z" fill="#EB5757"/>
</svg>
