<svg width="25" height="26" viewBox="0 0 25 26" fill="none" xmlns="http://www.w3.org/2000/svg">
<path d="M22.5 0.5H7.5C6.12125 0.5 5 1.62125 5 3V18C5 19.3787 6.12125 20.5 7.5 20.5H22.5C23.8787 20.5 25 19.3787 25 18V3C25 1.62125 23.8787 0.5 22.5 0.5ZM7.5 18V3H22.5L22.5025 18H7.5Z" fill="#F27480"/>
<path d="M2.5 8.00004H0V23C0 24.3788 1.12125 25.5 2.5 25.5H17.5V23H2.5V8.00004ZM13.6662 12.3988L11.5087 10.2413L9.74125 12.0088L13.8337 16.1013L20.9612 7.55129L19.0387 5.94879L13.6662 12.3988Z" fill="#F27480"/>
</svg>
