<svg width="17" height="18" viewBox="0 0 17 18" fill="none" xmlns="http://www.w3.org/2000/svg">
<path d="M8.375 0.75C3.76875 0.75 0 4.51875 0 9.125C0 13.7312 3.76875 17.5 8.375 17.5C12.9812 17.5 16.75 13.7312 16.75 9.125C16.75 4.51875 12.9812 0.75 8.375 0.75ZM7.71696 4.33929H9.03304V10.9196H7.71696V4.33929ZM8.375 14.5089C7.89643 14.5089 7.47768 14.0902 7.47768 13.6116C7.47768 13.133 7.89643 12.7143 8.375 12.7143C8.85357 12.7143 9.27232 13.133 9.27232 13.6116C9.27232 14.0902 8.85357 14.5089 8.375 14.5089Z" fill="#EB5757"/>
</svg>
