<svg width="99" height="99" viewBox="0 0 99 99" fill="none" xmlns="http://www.w3.org/2000/svg">
<rect width="99" height="99" rx="49.5" fill="#DAE1E8"/>
<path d="M43.2031 32.7969C36.9568 32.7969 31.875 37.8787 31.875 44.125C31.875 50.3713 36.9568 55.4531 43.2031 55.4531C49.4495 55.4531 54.5312 50.3713 54.5312 44.125C54.5312 37.8787 49.4495 32.7969 43.2031 32.7969ZM52.1923 42.9922H47.7139C47.6163 40.2747 47.1659 37.5618 46.3287 35.6183C49.4495 36.7685 51.7659 39.5905 52.1923 42.9922ZM43.2031 53.1875C43.1059 53.1875 42.4837 52.803 41.8747 50.9761C41.3589 49.4289 41.0418 47.4295 40.9596 45.2578L45.4465 45.2567C45.3644 47.4284 45.0472 49.4289 44.5315 50.9761C43.9226 52.803 43.3003 53.1875 43.2031 53.1875ZM40.9596 42.9922C41.0417 40.8205 41.3589 38.8211 41.8747 37.2739C42.4837 35.4469 43.1059 35.0625 43.2031 35.0625C43.3003 35.0625 43.9226 35.447 44.5316 37.2739C45.0473 38.8211 45.3644 40.8205 45.4467 42.9922H40.9596ZM40.0777 35.6183C39.2404 37.5617 38.79 40.2747 38.6925 42.9922H34.214C34.6403 39.5905 36.9568 36.7685 40.0777 35.6183ZM34.2139 45.2578H38.6924C38.7899 47.9753 39.2403 50.6882 40.0776 52.6317C36.9568 51.4814 34.6403 48.6594 34.2139 45.2578ZM46.3286 52.6316C47.1658 50.6882 47.6162 47.9741 47.7138 45.2566L52.1922 45.2577C51.7659 48.6594 49.4495 51.4814 46.3286 52.6316Z" fill="url(#paint0_linear)"/>
<path d="M67.7933 53.5192L64.9897 50.7156L66.5914 49.1139C67.1571 48.5481 66.973 47.5872 66.2366 47.2716L57.8266 43.667C57.4009 43.4846 56.907 43.5797 56.5792 43.9072C56.2517 44.2348 56.1566 44.7287 56.3391 45.1545L59.9437 53.5645C60.2605 54.3038 61.2217 54.4835 61.786 53.9193L63.3877 52.3176L66.1913 55.1212C66.6336 55.5636 67.3509 55.5636 67.7934 55.1212C68.2356 54.679 68.2356 53.9617 67.7933 53.5192ZM61.3671 51.1343L59.5373 46.8653L63.8064 48.695L62.5872 49.9141C62.587 49.9143 62.5869 49.9145 62.5867 49.9147C62.5864 49.9149 62.5863 49.915 62.5861 49.9153L61.3671 51.1343Z" fill="url(#paint1_linear)"/>
<path d="M77.8672 59.9844H75.6016V27.1328C75.6016 26.5072 75.0944 26 74.4688 26H25.5312C24.9056 26 24.3984 26.5072 24.3984 27.1328V59.9844H22.1328C21.5072 59.9844 21 60.4915 21 61.1172C21 65.4896 24.5573 69.0469 28.9297 69.0469H33.1211C33.7467 69.0469 34.2539 68.5397 34.2539 67.9141C34.2539 67.2884 33.7467 66.7812 33.1211 66.7812H28.9297C26.1944 66.7812 23.9058 64.8321 23.3794 62.2489H76.6205C76.0942 64.8321 73.8056 66.7812 71.0703 66.7812H65.8594C65.2337 66.7812 64.7266 67.2884 64.7266 67.9141C64.7266 68.5397 65.2337 69.0469 65.8594 69.0469H71.0703C75.4427 69.0469 79 65.4896 79 61.1172C79 60.4915 78.4928 59.9844 77.8672 59.9844ZM26.6641 28.2656H73.3359V59.9844H26.6641V28.2656Z" fill="url(#paint2_linear)"/>
<path d="M40.9249 66.3471C41.394 66.3471 41.7742 65.967 41.7742 65.4979C41.7742 65.0288 41.3939 64.6486 40.9249 64.6486H38.0485C37.5794 64.6486 37.1992 65.0288 37.1992 65.4979V72.5948C37.1992 73.0639 37.5795 73.4441 38.0485 73.4441C38.5176 73.4441 38.8978 73.0639 38.8978 72.5948V69.8284H40.6964C41.1655 69.8284 41.5457 69.4482 41.5457 68.9791C41.5457 68.51 41.1654 68.1298 40.6964 68.1298H38.8978V66.3472H40.9249V66.3471Z" fill="url(#paint3_linear)"/>
<path d="M55.2117 66.3601C55.6808 66.3601 56.0609 65.9799 56.0609 65.5108C56.0609 65.0417 55.6807 64.6615 55.2117 64.6615H52.2267C51.7576 64.6615 51.3774 65.0417 51.3774 65.5108V72.5948C51.3774 73.0639 51.7577 73.4441 52.2267 73.4441H55.2117C55.6808 73.4441 56.0609 73.0639 56.0609 72.5948C56.0609 72.1257 55.6807 71.7456 55.2117 71.7456H53.0761V69.9021H54.9917C55.4608 69.9021 55.841 69.522 55.841 69.0529C55.841 68.5838 55.4607 68.2036 54.9917 68.2036H53.0761V66.3603H55.2117V66.3601Z" fill="url(#paint4_linear)"/>
<path d="M61.8584 66.3601C62.3275 66.3601 62.7077 65.9799 62.7077 65.5108C62.7077 65.0417 62.3274 64.6615 61.8584 64.6615H58.8734C58.4043 64.6615 58.0242 65.0417 58.0242 65.5108V72.5948C58.0242 73.0639 58.4045 73.4441 58.8734 73.4441H61.8584C62.3275 73.4441 62.7077 73.0639 62.7077 72.5948C62.7077 72.1257 62.3274 71.7456 61.8584 71.7456H59.7228V69.9021H61.6384C62.1075 69.9021 62.4877 69.522 62.4877 69.0529C62.4877 68.5838 62.1074 68.2036 61.6384 68.2036H59.7228V66.3603H61.8584V66.3601Z" fill="url(#paint5_linear)"/>
<path d="M49.3574 67.3361C49.3574 65.8433 48.0957 64.6289 46.545 64.6289H44.6451C44.6448 64.6289 44.6443 64.6289 44.644 64.6289C44.6436 64.6289 44.6432 64.6289 44.6428 64.6289C44.1738 64.6289 43.7936 65.0091 43.7936 65.4782V72.6275C43.7936 73.0966 44.1739 73.4767 44.6428 73.4767C45.1119 73.4767 45.4921 73.0966 45.4921 72.6275V70.4861L47.8706 73.1885C48.0385 73.3793 48.2728 73.4767 48.5085 73.4767C48.7077 73.4767 48.9079 73.407 49.0692 73.265C49.4213 72.9552 49.4555 72.4185 49.1457 72.0664L47.2817 69.9486C48.4762 69.6359 49.3574 68.5834 49.3574 67.3361V67.3361ZM46.5448 68.3449C46.3023 68.3449 45.8842 68.3467 45.5027 68.3484C45.5007 67.9757 45.4979 66.7178 45.4969 66.3274H46.5448C47.1486 66.3274 47.6587 66.7894 47.6587 67.3361C47.6587 67.8829 47.1486 68.3449 46.5448 68.3449Z" fill="url(#paint6_linear)"/>
<defs>
<linearGradient id="paint0_linear" x1="43.2031" y1="32.7969" x2="43.2031" y2="55.4531" gradientUnits="userSpaceOnUse">
<stop stop-color="#153757"/>
<stop offset="1" stop-color="#224261"/>
</linearGradient>
<linearGradient id="paint1_linear" x1="62.1863" y1="43.5754" x2="62.1863" y2="55.453" gradientUnits="userSpaceOnUse">
<stop stop-color="#153757"/>
<stop offset="1" stop-color="#224261"/>
</linearGradient>
<linearGradient id="paint2_linear" x1="50" y1="26" x2="50" y2="69.0469" gradientUnits="userSpaceOnUse">
<stop stop-color="#153757"/>
<stop offset="1" stop-color="#224261"/>
</linearGradient>
<linearGradient id="paint3_linear" x1="39.4867" y1="64.6486" x2="39.4867" y2="73.4441" gradientUnits="userSpaceOnUse">
<stop stop-color="#153757"/>
<stop offset="1" stop-color="#224261"/>
</linearGradient>
<linearGradient id="paint4_linear" x1="53.7192" y1="64.6615" x2="53.7192" y2="73.4441" gradientUnits="userSpaceOnUse">
<stop stop-color="#153757"/>
<stop offset="1" stop-color="#224261"/>
</linearGradient>
<linearGradient id="paint5_linear" x1="60.3659" y1="64.6615" x2="60.3659" y2="73.4441" gradientUnits="userSpaceOnUse">
<stop stop-color="#153757"/>
<stop offset="1" stop-color="#224261"/>
</linearGradient>
<linearGradient id="paint6_linear" x1="46.5755" y1="64.6289" x2="46.5755" y2="73.4767" gradientUnits="userSpaceOnUse">
<stop stop-color="#153757"/>
<stop offset="1" stop-color="#224261"/>
</linearGradient>
</defs>
</svg>
