<svg width="99" height="99" viewBox="0 0 99 99" fill="none" xmlns="http://www.w3.org/2000/svg">
<rect width="99" height="99" rx="49.5" fill="#DAE1E8"/>
<path d="M67.5269 56.9278L63.3975 61.0572L61.8092 59.4689C61.283 58.9427 60.4297 58.9427 59.9034 59.4689C59.3771 59.9951 59.3771 60.8485 59.9034 61.3748L62.4445 63.9159C62.7077 64.1791 63.0526 64.3107 63.3974 64.3107C63.7422 64.3107 64.0872 64.1791 64.3503 63.9159L69.4326 58.8336C69.9589 58.3074 69.9589 57.4541 69.4326 56.9278C68.9065 56.4016 68.0531 56.4016 67.5269 56.9278V56.9278Z" fill="#1E496B"/>
<path d="M54.2947 54.7365L54.4859 54.7911V54.5923V52.7852C54.4859 52.1237 55.0222 51.5875 55.6836 51.5875C57.4434 51.5875 59.0264 50.6092 59.8133 49.0352L59.6913 48.9742L59.8133 49.0352L60.0029 48.6558C60.0029 48.6558 60.003 48.6558 60.003 48.6558C60.2059 48.25 60.6206 47.9937 61.0742 47.9937H68.2617C68.7154 47.9937 69.13 48.25 69.333 48.6558L69.5226 49.0352L69.6446 48.9742L69.5226 49.0352C70.3096 50.6092 71.8925 51.5875 73.6523 51.5875C74.3138 51.5875 74.85 52.1237 74.85 52.7852V59.5771C74.85 62.5684 73.9063 65.4174 72.1207 67.8174C70.3351 70.2174 67.8773 71.9399 65.0121 72.7995L65.0542 72.9399L65.0121 72.7995C64.8998 72.8332 64.7839 72.85 64.668 72.85H30.3477C29.6862 72.85 29.15 72.3138 29.15 71.6523V63.5664C29.15 58.943 32.9117 55.1812 37.5352 55.1812H38.9636H38.9846L39.0048 55.1755L41.6193 54.4285L41.7281 54.3974V54.2843V51.2412V51.1623L41.6631 51.1176C38.9911 49.28 37.2359 46.2025 37.2359 42.7227V38.2298V38.13L37.1438 38.0915C35.0891 37.232 33.6422 35.2016 33.6422 32.8398C33.6422 29.7026 36.1948 27.15 39.332 27.15H51.0117C54.6444 27.15 57.6 30.1056 57.6 33.7383V42.7226C57.6 46.2024 55.8449 49.2799 53.1728 51.1175L53.1078 51.1622V51.2411V54.2842V54.3973L53.2166 54.4284L54.2947 54.7365ZM48.7191 63.3237L48.6156 63.3575V63.4663V70.3048V70.4548H48.7656H59.3593H59.7731L59.4554 70.1896C58.6261 69.4975 57.8748 68.7039 57.2152 67.8175C55.8332 65.96 54.9562 63.8336 54.63 61.5809L54.6045 61.4046L54.4351 61.4598L48.7191 63.3237ZM54.3824 58.9575L54.4859 58.9238V58.8149V57.3954V57.2823L54.3771 57.2512L52.5566 56.731L52.448 56.7L52.3881 56.7957L50.3995 59.9775L50.1807 60.3276L50.5732 60.1996L54.3824 58.9575ZM55.0422 36.1061L55.2047 36.1197V35.9566V33.7383C55.2047 31.4261 53.3239 29.5453 51.0117 29.5453H39.332C37.5153 29.5453 36.0375 31.0231 36.0375 32.8398C36.0375 34.6566 37.5153 36.1344 39.332 36.1344H42.7078C44.8457 36.1344 46.8563 35.3015 48.3679 33.7899C48.5926 33.5652 48.8971 33.4391 49.2148 33.4391C49.5325 33.4391 49.837 33.5652 50.0617 33.7898C51.4119 35.14 53.1603 35.9488 55.0422 36.1061ZM39.7812 38.5297H39.6313V38.6797V42.7227C39.6313 47.0164 43.1242 50.5094 47.418 50.5094C51.7117 50.5094 55.2047 47.0164 55.2047 42.7227V38.6568V38.5158L55.064 38.5071C52.9514 38.376 50.9597 37.6177 49.3076 36.318L49.2148 36.2451L49.1221 36.318C47.2993 37.7519 45.0637 38.5297 42.7078 38.5297H39.7812ZM50.7125 52.5649V52.3593L50.5168 52.422C49.5393 52.735 48.4983 52.9047 47.418 52.9047C46.3377 52.9047 45.2966 52.735 44.3192 52.422L44.1234 52.3593V52.5649V54.9143V54.9573L44.1462 54.9938L47.2908 60.025L47.418 60.2285L47.5452 60.025L50.6897 54.9938L50.7125 54.9573V54.9143V52.5649ZM40.4588 57.2512L40.35 57.2823V57.3954V58.8149V58.9238L40.4535 58.9575L44.2627 60.1996L44.6552 60.3276L44.4364 59.9775L42.4478 56.7957L42.388 56.7L42.2794 56.731L40.4588 57.2512ZM37.9547 57.7266V57.5766H37.8047H37.5352C34.2322 57.5766 31.5453 60.2635 31.5453 63.5664V70.3047V70.4547H31.6953H46.0703H46.2203V70.3047V63.4663V63.3575L46.1168 63.3237L38.7811 60.9316C38.2882 60.7709 37.9547 60.3113 37.9547 59.793V57.7266ZM64.6199 70.38L64.668 70.3963L64.7161 70.38C69.3616 68.8075 72.4547 64.5161 72.4547 59.5771V54.0073V53.883L72.3325 53.8599C70.336 53.483 68.6003 52.2593 67.572 50.4645L67.5288 50.3891H67.4419H61.894H61.8071L61.7639 50.4645C60.7357 52.2594 58.9999 53.4831 57.0034 53.8599L56.8813 53.883V54.0073V59.5771C56.8813 64.5161 59.9744 68.8075 64.6199 70.38Z" fill="#1E496B" stroke="#DAE1E8" stroke-width="0.3"/>
</svg>
