<svg width="99" height="99" viewBox="0 0 99 99" fill="none" xmlns="http://www.w3.org/2000/svg">
<rect width="99" height="99" rx="49.5" fill="#DAE1E8"/>
<path d="M42.3252 55.9755C39.7518 54.4228 38.2154 51.7038 38.2154 48.7025C38.2154 47.7748 38.364 46.8632 38.6568 45.9933C38.8392 45.4516 38.5478 44.8644 38.0061 44.6822C37.4644 44.5 36.8774 44.7913 36.695 45.333C36.3304 46.4161 36.1455 47.5498 36.1455 48.7026C36.1455 52.4357 38.056 55.8172 41.2559 57.7481C41.4233 57.849 41.6075 57.8971 41.7896 57.8971C42.1403 57.8971 42.4823 57.7186 42.6767 57.3965C42.9721 56.907 42.8147 56.2709 42.3252 55.9755Z" fill="#1E496B"/>
<path d="M53.9391 41.0148C51.9736 39.1643 49.4037 38.1451 46.7029 38.1451C45.4381 38.1451 44.2004 38.3668 43.0245 38.8038C42.4887 39.0031 42.2158 39.5988 42.415 40.1347C42.6142 40.6706 43.2099 40.9435 43.7459 40.7442C44.6904 40.3931 45.6852 40.2151 46.703 40.2151C48.8743 40.2151 50.9401 41.0343 52.52 42.5219C52.7199 42.7102 52.9748 42.8035 53.2293 42.8035C53.5046 42.8035 53.7794 42.6943 53.9831 42.4779C54.3749 42.0618 54.3551 41.4066 53.9391 41.0148Z" fill="#1E496B"/>
<path d="M74.9649 49.0144H67.1779V46.8731C67.1779 45.8322 66.331 44.9853 65.2902 44.9853H63.9007C63.1891 41.678 61.5504 38.6657 59.1452 36.2604C55.0639 32.1791 49.2325 30.359 43.5461 31.3907C42.9837 31.4928 42.6104 32.0315 42.7125 32.594C42.8145 33.1565 43.3533 33.5294 43.9157 33.4276C48.9341 32.5169 54.0803 34.123 57.6814 37.7243C59.6977 39.7407 61.1041 42.2398 61.7779 44.9855H56.1274C55.0865 44.9855 54.2397 45.8323 54.2397 46.8732V49.0145H46.4526C45.881 49.0145 45.4176 49.478 45.4176 50.0495V56.3991C45.4176 57.3707 45.7959 58.255 46.4121 58.9144V64.2262C42.3742 64.1573 38.6032 62.5599 35.7246 59.6811C32.0296 55.9862 30.4466 50.719 31.4901 45.5912C31.6041 45.0311 31.2424 44.4845 30.6823 44.3706C30.122 44.2565 29.5756 44.6183 29.4617 45.1784C28.2793 50.9886 30.0732 56.9573 34.2606 61.1449C37.4827 64.3669 41.871 66.2165 46.412 66.2947V70.0453C46.412 70.1424 46.4185 70.2379 46.43 70.3319C34.6271 70.1851 25.07 60.5398 25.07 48.7027C25.07 45.0013 26.0115 41.3832 27.7997 38.1769L31.292 41.6858C31.4863 41.881 31.7504 41.9907 32.0256 41.9907H38.5357L44.9178 48.3728C45.1199 48.575 45.3848 48.676 45.6496 48.676C45.9145 48.676 46.1795 48.575 46.3815 48.3728C46.7857 47.9686 46.7857 47.3132 46.3815 46.9089L39.9993 40.5268V34.0167C39.9993 33.7418 39.8899 33.4781 39.6952 33.2839L36.1932 29.7905C39.3953 28.0083 43.0074 27.07 46.7025 27.07C55.0993 27.07 62.8075 31.9946 66.3403 39.616C66.5155 39.9938 66.8894 40.216 67.2801 40.216C67.4258 40.216 67.5738 40.185 67.7147 40.1197C68.2333 39.8792 68.4589 39.2639 68.2185 38.7453C66.3429 34.6991 63.3718 31.2704 59.6261 28.8299C55.7808 26.3243 51.3118 25 46.7026 25C42.4562 25 38.3087 26.1313 34.6743 28.2753L31.6954 25.3034C31.3991 25.0079 30.9541 24.9197 30.5677 25.0801C30.1812 25.2405 29.9294 25.6177 29.9294 26.0361V31.902H24.0454C23.6271 31.902 23.2501 32.1537 23.0896 32.5398C22.9292 32.926 23.0168 33.3707 23.3118 33.6672L26.2861 36.6555C24.135 40.2948 23 44.4488 23 48.7026C23 55.0338 25.4655 60.9862 29.9424 65.463C34.4192 69.94 40.3716 72.4054 46.7028 72.4054L72.6441 72.4065C73.9461 72.4065 75.0054 71.3474 75.0054 70.0452V58.9148C75.6472 58.2296 76 57.3407 76 56.3971V50.0493C76 49.4778 75.5366 49.0144 74.9649 49.0144ZM31.9994 28.5307L37.9294 34.446V38.4525L31.9994 32.5091V28.5307ZM30.535 33.9722L36.4656 39.9202H32.4558L26.5359 33.9722H30.535V33.9722ZM56.3097 47.0555H65.1076V49.0144H56.3097V47.0555ZM72.9352 65.3674H66.1427C65.5711 65.3674 65.1077 65.8309 65.1077 66.4024C65.1077 66.9739 65.5711 67.4375 66.1427 67.4375H72.9352V70.0451C72.9352 70.2058 72.8047 70.3364 72.6441 70.3364H50.0421C50.0347 70.3363 50.0275 70.3353 50.0201 70.3353H48.7621C48.6068 70.3294 48.482 70.2021 48.482 70.0452V60.0326C48.6846 60.0672 48.8925 60.0862 49.1047 60.0862H57.641C57.8245 61.6164 59.1299 62.8066 60.7087 62.8066C62.2899 62.8066 63.5969 61.6126 63.7772 60.0791L72.3102 60.0844C72.311 60.0844 72.3117 60.0844 72.3126 60.0844C72.5234 60.0844 72.7314 60.0658 72.9351 60.0313V65.3674H72.9352ZM59.6883 59.716V57.8965H61.7292V59.716C61.7292 60.2787 61.2714 60.7365 60.7088 60.7365C60.1462 60.7365 59.6883 60.2787 59.6883 59.716ZM73.9299 56.3971C73.9299 56.8294 73.7616 57.2356 73.4558 57.5411C73.1503 57.8463 72.7444 58.0144 72.3126 58.0144C72.3123 58.0144 72.3119 58.0144 72.3115 58.0144L63.7992 58.0091V57.0604C63.7992 56.38 63.2457 55.8264 62.5652 55.8264H58.852C58.1716 55.8264 57.618 56.3799 57.618 57.0604V58.0161H49.1047C48.2129 58.0161 47.4874 57.2906 47.4874 56.3989V51.0845H73.9298V56.3971H73.9299Z" fill="#1E496B"/>
<path d="M61.8032 65.6707C61.6106 65.4781 61.3436 65.3674 61.0714 65.3674C60.7981 65.3674 60.5322 65.478 60.3386 65.6707C60.1461 65.8632 60.0364 66.1303 60.0364 66.4024C60.0364 66.6747 60.1461 66.9416 60.3386 67.1341C60.5322 67.3266 60.7983 67.4375 61.0714 67.4375C61.3437 67.4375 61.6097 67.3267 61.8032 67.1341C61.9957 66.9416 62.1065 66.6746 62.1065 66.4024C62.1065 66.1303 61.9957 65.8632 61.8032 65.6707Z" fill="#1E496B"/>
</svg>
