<svg width="99" height="99" viewBox="0 0 99 99" fill="none" xmlns="http://www.w3.org/2000/svg">
<rect width="99" height="99" rx="49.5" fill="#DAE1E8"/>
<path d="M38.9816 44.0973H41.1791C41.6651 44.0973 42.1071 44.2979 42.4268 44.6176C42.7465 44.9373 42.9471 45.3795 42.9471 45.8652V49.7963C43.8625 49.9373 44.7998 50.0596 45.7309 50.1693C46.7593 50.2885 47.7717 50.3857 48.7341 50.4671V49.3857C48.7341 48.7056 49.01 48.091 49.4552 47.6459C49.9036 47.2008 50.5179 46.9248 51.1949 46.9248H59.0729C59.75 46.9248 60.3645 47.2007 60.8096 47.6459C61.2547 48.091 61.5306 48.7056 61.5306 49.3857V50.4705C65.3208 50.1538 69.9038 49.5581 73.164 48.4861C74.2425 48.1349 76.9634 47.1632 76.9634 45.7556V36.4953C76.9634 36.4013 76.86 36.348 76.7754 36.348C62.3457 36.348 47.919 36.348 33.4923 36.348C33.4077 36.348 33.3043 36.4013 33.3043 36.4953V40.298H33.8999C34.649 40.298 35.3325 40.6051 35.8278 41.0974C36.1319 41.4045 36.3672 41.7809 36.502 42.2008C37.2042 42.2321 37.8405 42.53 38.3077 43.0002C38.6148 43.3042 38.8468 43.6805 38.9816 44.0973V44.0973ZM45.1729 34.6896V32.4452C45.1729 31.4607 45.5743 30.5706 46.22 29.9248C46.7028 29.442 47.3267 29.094 48.0194 28.9498C48.148 28.5079 48.3863 28.1129 48.706 27.7931C49.1951 27.3041 49.8722 27 50.6183 27H59.6498C60.3959 27 61.073 27.3041 61.562 27.7931C61.8787 28.1129 62.1201 28.5079 62.2486 28.9498C62.9414 29.0941 63.5621 29.442 64.0448 29.9248C64.6938 30.5706 65.0951 31.4607 65.0951 32.4452V34.6896H76.7755C77.274 34.6896 77.7316 34.8873 78.0671 35.21C78.4088 35.5392 78.6221 35.9938 78.6221 36.4953V45.7555C78.6221 46.9687 77.8571 47.9562 76.5843 48.7586V64.182C76.5843 64.6836 76.3806 65.1383 76.0515 65.4674C75.7192 65.7966 75.2647 66.0033 74.7631 66.0033H42.9471V70.1759C42.9471 70.6617 42.7465 71.1039 42.4268 71.4235C42.107 71.7432 41.665 71.9438 41.1791 71.9438H23.768C23.2821 71.9438 22.8402 71.7431 22.5204 71.4235C22.1975 71.1039 22 70.6617 22 70.176V59.9C22 59.4423 22.373 59.0693 22.8308 59.0693C23.2885 59.0693 23.6583 59.4423 23.6583 59.9V70.176C23.6583 70.2324 23.7085 70.2825 23.768 70.2825H41.179C41.2354 70.2825 41.2887 70.2324 41.2887 70.176V65.1727V45.8653C41.2887 45.8089 41.2354 45.7588 41.179 45.7588H38.9815C38.8467 46.1757 38.6148 46.5519 38.3076 46.8561C37.8153 47.3514 37.1319 47.6585 36.3795 47.6585H28.5676C27.8153 47.6585 27.1319 47.3514 26.6365 46.8561C26.3324 46.5519 26.1003 46.1757 25.9656 45.7588H23.768C23.7085 45.7588 23.6583 45.8089 23.6583 45.8653V56.1413C23.6583 56.599 23.2884 56.972 22.8308 56.972C22.3731 56.972 22 56.5989 22 56.1413V45.8653C22 45.3795 22.1975 44.9373 22.5204 44.6177C22.8403 44.298 23.2822 44.0974 23.768 44.0974H25.9655C26.1003 43.6805 26.3322 43.3042 26.6364 43.0001C27.1067 42.5299 27.743 42.2321 28.4452 42.2007C28.5801 41.7808 28.8151 41.4045 29.1192 41.0973C29.6145 40.6051 30.2979 40.2979 31.0472 40.2979H31.6429V36.4953C31.6429 35.9938 31.856 35.5392 32.2008 35.21C32.5331 34.8873 32.9939 34.6896 33.4924 34.6896H45.1729ZM48.0821 30.6553C47.8219 30.7523 47.5868 30.9028 47.3925 31.0972C47.0477 31.4419 46.8314 31.9217 46.8314 32.4452V34.6896H63.4336V32.4452C63.4336 31.9217 63.2203 31.4419 62.8724 31.0972C62.6812 30.9028 62.4462 30.7523 62.1828 30.6553C62.048 31.0188 61.8317 31.3481 61.5622 31.6176C61.0731 32.1098 60.396 32.4139 59.6499 32.4139H50.6184C49.8723 32.4139 49.1952 32.1098 48.7061 31.6176C48.4332 31.3479 48.2201 31.0188 48.0821 30.6553V30.6553ZM59.6497 28.6582H50.6182C50.3298 28.6582 50.0696 28.7774 49.8783 28.9686C49.6871 29.1567 49.5712 29.42 49.5712 29.7054C49.5712 29.9844 49.6809 30.2477 49.8783 30.4451C50.0696 30.6363 50.3298 30.7555 50.6182 30.7555H59.6497C59.938 30.7555 60.1984 30.6363 60.3895 30.4451C60.5776 30.2539 60.6967 29.9937 60.6967 29.7054C60.6967 29.42 60.5776 29.1567 60.3895 28.9686C60.1984 28.7774 59.9381 28.6582 59.6497 28.6582V28.6582ZM48.7341 52.1286C47.7184 52.0473 46.6401 51.9405 45.5428 51.8152C44.6901 51.7148 43.8187 51.602 42.9471 51.4703V64.342H74.7629C74.8506 64.342 74.9259 64.2701 74.9259 64.1821V49.602C74.5309 49.7651 74.114 49.9186 73.675 50.0629C70.2329 51.1915 65.443 51.812 61.5306 52.1349V53.8655C61.5306 54.5426 61.2548 55.1601 60.8096 55.6053C60.3645 56.0502 59.75 56.3263 59.0729 56.3263H57.0133C56.5555 56.3263 56.1825 55.9563 56.1825 55.4955C56.1825 55.0378 56.5555 54.6679 57.0133 54.6679H59.0729C59.2923 54.6679 59.4929 54.577 59.6372 54.4329C59.7814 54.2854 59.8723 54.0849 59.8723 53.8655V49.3857C59.8723 49.1663 59.7814 48.9656 59.6372 48.8183C59.4929 48.6739 59.2924 48.5832 59.0729 48.5832H51.1949C50.9756 48.5832 50.7749 48.6739 50.6307 48.8183C50.4834 48.9656 50.3925 49.1662 50.3925 49.3857V53.8655C50.3925 54.0849 50.4834 54.2854 50.6307 54.4329C50.7749 54.577 50.9755 54.6679 51.1949 54.6679H53.2545C53.7123 54.6679 54.0853 55.0379 54.0853 55.4955C54.0853 55.9563 53.7123 56.3263 53.2545 56.3263H51.1949C50.5179 56.3263 49.9035 56.0503 49.4552 55.6053C49.0101 55.1601 48.7341 54.5426 48.7341 53.8655V52.1286ZM26.4202 61.8059C25.9624 61.8059 25.5894 61.4359 25.5894 60.9783C25.5894 60.5175 25.9624 60.1475 26.4202 60.1475H38.5271C38.9848 60.1475 39.3579 60.5175 39.3579 60.9783C39.3579 61.436 38.9848 61.8059 38.5271 61.8059H26.4202ZM28.9626 67.8124C28.5049 67.8124 28.1319 67.4423 28.1319 66.9847C28.1319 66.527 28.5049 66.154 28.9626 66.154H35.9846C36.4425 66.154 36.8155 66.527 36.8155 66.9847C36.8155 67.4424 36.4425 67.8124 35.9846 67.8124H28.9626ZM26.4202 64.8091C25.9624 64.8091 25.5894 64.439 25.5894 63.9814C25.5894 63.5237 25.9624 63.1507 26.4202 63.1507H38.5271C38.9848 63.1507 39.3579 63.5237 39.3579 63.9814C39.3579 64.4392 38.9848 64.8091 38.5271 64.8091H26.4202ZM31.1506 56.8466C31.2603 57.2885 30.9908 57.74 30.5456 57.8497C30.2447 57.9249 29.9344 57.9657 29.6239 57.9657C28.4986 57.9657 27.4797 57.4737 26.7493 56.6773C26.0345 55.9 25.5894 54.831 25.5894 53.6553C25.5894 52.4799 26.0345 51.4139 26.7493 50.6366C27.4797 49.8402 28.4986 49.3482 29.6239 49.3482C29.9344 49.3482 30.2447 49.3858 30.5456 49.4642C30.9907 49.5739 31.2603 50.0221 31.1506 50.4673C31.0377 50.9092 30.5896 51.182 30.1444 51.0692C29.9751 51.0284 29.7965 51.0064 29.6239 51.0064C28.9782 51.0064 28.3952 51.2917 27.9657 51.7556C27.5236 52.2383 27.2478 52.9093 27.2478 53.6553C27.2478 54.4014 27.5236 55.0755 27.9657 55.555C28.3952 56.019 28.9782 56.3076 29.6239 56.3076C30.1852 56.3075 30.9313 55.9721 31.1506 56.8466V56.8466ZM32.5896 50.7055C32.4265 50.2791 32.6428 49.8026 33.0662 49.6397C33.4924 49.4766 33.9689 49.6898 34.132 50.1162L35.9439 54.834L37.7561 50.1162C37.9191 49.6899 38.3955 49.4767 38.8219 49.6397C39.2482 49.8026 39.4613 50.279 39.2984 50.7055L36.7154 57.4297C36.6339 57.6429 36.4678 57.8185 36.2389 57.9062C35.8124 58.0693 35.336 57.8561 35.173 57.4297L32.5896 50.7055ZM29.1475 43.8559H28.5676C28.273 43.8559 28.0066 43.9781 27.8122 44.1725C27.6177 44.3669 27.4955 44.6334 27.4955 44.928C27.4955 45.2226 27.6177 45.4892 27.8122 45.6836C28.0066 45.878 28.273 46.0002 28.5676 46.0002H36.3798C36.6745 46.0002 36.9409 45.878 37.1353 45.6836C37.3296 45.4892 37.4518 45.2226 37.4518 44.928C37.4518 44.6334 37.3296 44.3669 37.1353 44.1725C36.9409 43.9781 36.6745 43.8559 36.3798 43.8559H35.7997C35.342 43.8559 34.969 43.4861 34.969 43.0284C34.969 42.7338 34.8499 42.4673 34.6554 42.2729C34.4611 42.0755 34.1915 41.9563 33.9 41.9563H31.0473C30.7557 41.9563 30.4862 42.0755 30.2918 42.2729C30.0974 42.4673 29.9783 42.7338 29.9783 43.0284C29.9783 43.4861 29.6053 43.8559 29.1475 43.8559V43.8559Z" fill="#1E496B" stroke="#1E496B" stroke-width="0.5"/>
</svg>
