<svg width="99" height="99" viewBox="0 0 99 99" fill="none" xmlns="http://www.w3.org/2000/svg">
<rect width="99" height="99" rx="49.5" fill="#DAE1E8"/>
<path d="M34.7272 33.5147C35.8569 33.6314 36.8762 34.1428 37.6399 34.9032C38.5109 35.7774 39.0537 36.9797 39.0537 38.3053V46.9109C39.0537 47.3717 38.6782 47.7472 38.2175 47.7472C33.0894 47.7472 27.9613 47.7472 22.8364 47.7472C22.3756 47.7472 22.0001 47.3717 22.0001 46.9109V38.3053C22.0001 36.9798 22.5429 35.7774 23.4138 34.9032C24.1775 34.1429 25.1937 33.6314 26.3235 33.5147C25.787 32.7132 25.4746 31.7506 25.4746 30.7156V27.5568V26.1967C25.4746 25.3164 25.8312 24.5179 26.4119 23.9371C26.9893 23.3596 27.7909 23 28.6682 23H34.7462C35.2069 23 35.5792 23.3755 35.5792 23.8363V27.5568V30.7157C35.5792 31.7506 35.2668 32.7132 34.7272 33.5147ZM73.8582 29.5669L69.759 28.1785L67.0894 29.485V30.7157C67.0894 31.6465 67.4712 32.4923 68.0865 33.1046C68.6987 33.7199 69.5446 34.0986 70.4754 34.0986C71.4032 34.0986 72.249 33.7201 72.8643 33.1046C73.4765 32.4923 73.8584 31.6465 73.8584 30.7157L73.8582 29.5669ZM67.0894 27.6357L69.2889 26.5597C69.4877 26.4429 69.7369 26.4114 69.9705 26.4903L73.8584 27.8062V26.1967C73.8584 25.777 73.6848 25.3951 73.407 25.1207C73.1325 24.843 72.7507 24.6692 72.331 24.6692H68.6168C68.1971 24.6692 67.8183 24.8429 67.5407 25.1207C67.2629 25.3951 67.0894 25.777 67.0894 26.1967V27.6357ZM27.1439 26.7238H33.9098V24.6692H28.6681C28.2515 24.6692 27.8697 24.8429 27.592 25.1207C27.3143 25.3951 27.1439 25.777 27.1439 26.1967V26.7238ZM33.9098 28.393H27.1439V30.7156C27.1439 31.6464 27.5226 32.4922 28.138 33.1045C28.7502 33.7198 29.596 34.0985 30.5268 34.0985C31.4546 34.0985 32.3004 33.7199 32.9158 33.1045C33.5279 32.4922 33.9098 31.6464 33.9098 30.7156V28.393ZM53.8825 29.4913C52.7528 29.646 50.954 29.6081 49.4518 28.2985C48.9217 28.6014 48.1043 28.9295 47.1165 28.8633V30.7157C47.1165 31.6465 47.4984 32.4923 48.1107 33.1046C48.726 33.7199 49.5717 34.0986 50.4995 34.0986C51.4304 34.0986 52.2762 33.7201 52.8884 33.1046C53.5037 32.4923 53.8825 31.6465 53.8825 30.7157V29.4913ZM47.1165 27.1939C47.8044 27.2792 48.4862 27.0424 49.0038 26.5944C49.3509 26.2913 49.8779 26.3291 50.1776 26.6794C51.3737 28.0523 53.0303 27.9734 53.8824 27.8125V26.1967C53.8824 25.777 53.712 25.3951 53.4343 25.1207C53.1567 24.843 52.7747 24.6692 52.3582 24.6692H48.6439C48.2242 24.6692 47.8424 24.8429 47.5646 25.1207C47.2901 25.3951 47.1165 25.777 47.1165 26.1967V27.1939ZM28.1284 35.162H26.8125C25.9511 35.162 25.1652 35.5155 24.594 36.0867C24.0228 36.6547 23.6693 37.4405 23.6693 38.3053V46.0776H25.2251V39.8388C25.2251 39.378 25.6007 39.0025 26.0614 39.0025C26.5221 39.0025 26.8945 39.378 26.8945 39.8388V46.0776H34.1558V39.8388C34.1558 39.378 34.5313 39.0025 34.9921 39.0025C35.4529 39.0025 35.8284 39.378 35.8284 39.8388V46.0776H37.3811V38.3053C37.3811 37.4405 37.0276 36.6547 36.4596 36.0867C35.8884 35.5155 35.1027 35.162 34.238 35.162H32.9252C32.2088 35.5503 31.3916 35.7679 30.5269 35.7679C29.659 35.7679 28.8448 35.5503 28.1284 35.162ZM75.5277 30.7157C75.5277 31.7507 75.2122 32.7132 74.6757 33.5148C75.8055 33.6315 76.8248 34.1429 77.5853 34.9033C78.4595 35.7775 78.9991 36.9798 78.9991 38.3054V46.911C78.9991 47.3718 78.6267 47.7473 78.166 47.7473C73.0378 47.7473 67.9099 47.7473 62.7817 47.7473C62.3209 47.7473 61.9487 47.3718 61.9487 46.911V38.3054C61.9487 36.9799 62.4884 35.7775 63.3624 34.9033C64.1261 34.143 65.1423 33.6315 66.2721 33.5148C65.7357 32.7133 65.4202 31.7507 65.4202 30.7157V26.1967C65.4202 25.3164 65.7798 24.5179 66.3605 23.9371C66.9381 23.3596 67.7363 23 68.6169 23H72.3311C73.2115 23 74.0099 23.3597 74.5907 23.9371C75.1682 24.5179 75.5279 25.3164 75.5279 26.1967L75.5277 30.7157ZM72.8706 35.162C72.1574 35.5503 71.34 35.7679 70.4753 35.7679C69.6075 35.7679 68.7901 35.547 68.0738 35.1588L66.7611 35.1618C65.8964 35.1618 65.1107 35.5154 64.5426 36.0866C63.9712 36.6546 63.6178 37.4404 63.6178 38.3051V46.0775H65.1738V39.8387C65.1738 39.3779 65.5462 39.0024 66.0067 39.0024C66.4675 39.0024 66.8431 39.3779 66.8431 39.8387V46.0775H74.1045V39.8387C74.1045 39.3779 74.48 39.0024 74.9408 39.0024C75.4016 39.0024 75.7738 39.3779 75.7738 39.8387V46.0775H77.3297V38.3051C77.3297 37.4404 76.9763 36.6546 76.4051 36.0866C75.8371 35.5154 75.0512 35.1618 74.1864 35.1618L72.8706 35.162ZM55.552 30.7157C55.552 31.7507 55.2395 32.7132 54.703 33.5148C55.8327 33.6315 56.8489 34.1429 57.6126 34.9033C58.4836 35.7775 59.0263 36.9798 59.0263 38.3054V46.911C59.0263 47.3718 58.6508 47.7473 58.1901 47.7473C53.0652 47.7473 47.937 47.7473 42.809 47.7473C42.3482 47.7473 41.9727 47.3718 41.9727 46.911V38.3054C41.9727 36.9799 42.5154 35.7775 43.3865 34.9033C44.1501 34.143 45.1695 33.6315 46.2992 33.5148C45.7627 32.7133 45.4471 31.7507 45.4471 30.7157V26.1967C45.4471 25.3164 45.8068 24.5179 46.3844 23.9371C46.965 23.3596 47.7635 23 48.6438 23H52.3581C53.2385 23 54.0369 23.3597 54.6145 23.9371C55.1953 24.5179 55.5519 25.3164 55.5519 26.1967L55.552 30.7157ZM52.8978 35.162C52.1847 35.5503 51.3673 35.7679 50.4995 35.7679C49.6349 35.7679 48.8176 35.5503 48.1043 35.162H46.7884C45.9237 35.162 45.1379 35.5155 44.5667 36.0867C43.9987 36.6547 43.6453 37.4405 43.6453 38.3053V46.0776H45.1978V39.8388C45.1978 39.378 45.5733 39.0025 46.0341 39.0025C46.4949 39.0025 46.8704 39.378 46.8704 39.8388V46.0776H54.1318V39.8388C54.1318 39.378 54.5042 39.0025 54.9648 39.0025C55.4288 39.0025 55.8012 39.378 55.8012 39.8388V46.0776H57.357V38.3053C57.357 37.4405 57.0036 36.6547 56.4323 36.0867C55.8612 35.5155 55.0754 35.162 54.2138 35.162H52.8978ZM67.8876 62.7083C67.4269 62.7083 67.0513 62.3358 67.0513 61.8751C67.0513 61.4144 67.4269 61.0389 67.8876 61.0389H73.0598C73.5206 61.0389 73.8962 61.4144 73.8962 61.8751C73.8962 62.3359 73.5206 62.7083 73.0598 62.7083H67.8876ZM66.2277 59.6472C65.7639 59.6472 65.3914 59.2747 65.3914 58.814C65.3914 58.3502 65.7639 57.9777 66.2277 57.9777H74.723C75.1838 57.9777 75.5562 58.3502 75.5562 58.814C75.5562 59.2748 75.1837 59.6472 74.723 59.6472H66.2277ZM47.9118 62.7083C47.451 62.7083 47.0787 62.3358 47.0787 61.8751C47.0787 61.4144 47.4511 61.0389 47.9118 61.0389H53.0872C53.548 61.0389 53.9235 61.4144 53.9235 61.8751C53.9235 62.3359 53.548 62.7083 53.0872 62.7083H47.9118ZM46.2519 59.6472C45.7911 59.6472 45.4188 59.2747 45.4188 58.814C45.4188 58.3502 45.7912 57.9777 46.2519 57.9777H54.7471C55.208 57.9777 55.5835 58.3502 55.5835 58.814C55.5835 59.2748 55.208 59.6472 54.7471 59.6472H46.2519ZM27.9391 62.7083C27.4785 62.7083 27.1061 62.3358 27.1061 61.8751C27.1061 61.4144 27.4785 61.0389 27.9391 61.0389H33.1146C33.5754 61.0389 33.9478 61.4144 33.9478 61.8751C33.9478 62.3359 33.5754 62.7083 33.1146 62.7083H27.9391ZM26.2792 59.6472C25.8184 59.6472 25.4429 59.2747 25.4429 58.814C25.4429 58.3502 25.8184 57.9777 26.2792 57.9777H34.7745C35.2353 57.9777 35.6076 58.3502 35.6076 58.814C35.6076 59.2748 35.2353 59.6472 34.7745 59.6472H26.2792ZM67.2219 64.4501H73.7258C74.1865 64.4501 74.5622 64.8256 74.5622 65.2864V71.7903C74.5622 72.2511 74.1865 72.6266 73.7258 72.6266H67.2219C66.7611 72.6266 66.3856 72.2511 66.3856 71.7903V65.2864C66.3856 64.8256 66.7611 64.4501 67.2219 64.4501ZM72.8926 66.1196H68.0549V70.9573H72.8926V66.1196ZM30.5268 63.9704C31.7859 63.9704 32.9283 64.4816 33.7551 65.3086C34.5819 66.1353 35.0932 67.2777 35.0932 68.5368C35.0932 69.799 34.582 70.9414 33.7551 71.7683C32.9282 72.595 31.7859 73.1062 30.5268 73.1062C29.2646 73.1062 28.1221 72.595 27.2985 71.7683C26.4716 70.9414 25.9605 69.799 25.9605 68.5368C25.9605 67.2777 26.4718 66.1353 27.2986 65.3086C28.1222 64.4816 29.2646 63.9704 30.5268 63.9704ZM32.5749 66.4887C32.0511 65.9649 31.3252 65.6399 30.5268 65.6399C29.7253 65.6399 29.0025 65.9649 28.4787 66.4887C27.955 67.0125 27.6299 67.7384 27.6299 68.5368C27.6299 69.3382 27.955 70.061 28.4787 70.5881C29.0026 71.1119 29.7254 71.4337 30.5268 71.4337C31.3252 71.4337 32.051 71.1119 32.5749 70.5881C33.0988 70.0611 33.4237 69.3382 33.4237 68.5368C33.4237 67.7384 33.0988 67.0126 32.5749 66.4887ZM51.2254 64.6552C52.5634 66.9715 53.8983 69.2816 55.2332 71.5978C55.4635 71.9955 55.3279 72.5035 54.9303 72.7339C54.804 72.8096 54.6619 72.8475 54.5136 72.8475H46.4854C46.0247 72.8475 45.6524 72.4752 45.6524 72.0145C45.6524 71.8407 45.706 71.6799 45.7943 71.5475C47.1229 69.2468 48.4515 66.9496 49.78 64.6489C50.0072 64.2515 50.5153 64.1126 50.9129 64.343C51.0487 64.4186 51.156 64.529 51.2254 64.6552ZM50.4995 66.7253C49.6443 68.2086 48.7891 69.6948 47.9307 71.1781H53.0683C52.2131 69.6948 51.3579 68.2117 50.4995 66.7253ZM66.2277 51.4927H67.7457V50.4326C67.7457 49.9718 68.1181 49.5963 68.5787 49.5963H72.3687C72.8295 49.5963 73.2051 49.9718 73.2051 50.4326V51.4927H74.723C75.1838 51.4927 75.5562 51.8652 75.5562 52.3259V53.203H78.1659C78.6267 53.203 78.999 53.5785 78.999 54.0393V75.1637C78.999 75.6245 78.6266 76 78.1659 76H62.7816C62.3208 76 61.9486 75.6245 61.9486 75.1637V66.4918C61.9486 66.0311 62.3209 65.6589 62.7816 65.6589C63.2455 65.6589 63.6179 66.0312 63.6179 66.4918V74.3305H77.3297V54.8726H75.5562V55.75C75.5562 56.2107 75.1837 56.5863 74.723 56.5863H66.2277C65.7639 56.5863 65.3914 56.2107 65.3914 55.75V54.8726H63.6178V62.7113C63.6178 63.1721 63.2454 63.5445 62.7815 63.5445C62.3207 63.5445 61.9484 63.172 61.9484 62.7113V54.0393C61.9484 53.5785 62.3208 53.203 62.7815 53.203H65.3913V52.3259C65.3915 51.8652 65.7639 51.4927 66.2277 51.4927ZM68.5787 53.1623H67.0609V54.9168H73.8865C73.8865 54.3299 73.8865 53.7461 73.8865 53.1623H72.3686C71.9079 53.1623 71.5323 52.7868 71.5323 52.326V51.2656H69.4149V52.326C69.4151 52.7867 69.0395 53.1623 68.5787 53.1623ZM46.2519 51.4927H47.7698V50.4326C47.7698 49.9718 48.1454 49.5963 48.6061 49.5963H52.3961C52.8569 49.5963 53.2291 49.9718 53.2291 50.4326V51.4927H54.7471C55.208 51.4927 55.5835 51.8652 55.5835 52.3259V53.203H58.1901C58.6508 53.203 59.0263 53.5785 59.0263 54.0393V75.1637C59.0263 75.6245 58.6508 76 58.1901 76H42.809C42.3482 76 41.9727 75.6245 41.9727 75.1637V66.4918C41.9727 66.0311 42.3482 65.6589 42.809 65.6589C43.2698 65.6589 43.6453 66.0312 43.6453 66.4918V74.3305H57.3569V54.8726H55.5834V55.75C55.5834 56.2107 55.2079 56.5863 54.747 56.5863H46.2518C45.791 56.5863 45.4187 56.2107 45.4187 55.75V54.8726H43.6452V62.7113C43.6452 63.1721 43.2696 63.5445 42.8089 63.5445C42.3481 63.5445 41.9726 63.172 41.9726 62.7113V54.0393C41.9726 53.5785 42.3481 53.203 42.8089 53.203H45.4187V52.3259C45.4188 51.8652 45.7911 51.4927 46.2519 51.4927ZM48.6061 53.1623H47.0882V54.9168H53.914V53.1623H52.3961C51.9322 53.1623 51.5598 52.7868 51.5598 52.326V51.2656H49.4392V52.326C49.4393 52.7867 49.0669 53.1623 48.6061 53.1623ZM26.2792 51.4927H27.7971V50.4326C27.7971 49.9718 28.1695 49.5963 28.6301 49.5963H32.4201C32.8809 49.5963 33.2564 49.9718 33.2564 50.4326V51.4927H34.7744C35.2351 51.4927 35.6075 51.8652 35.6075 52.3259V53.203H38.2172C38.678 53.203 39.0535 53.5785 39.0535 54.0393V75.1637C39.0535 75.6245 38.678 76 38.2172 76H22.8363C22.3755 76 22 75.6245 22 75.1637V66.4918C22 66.0311 22.3756 65.6589 22.8363 65.6589C23.297 65.6589 23.6693 66.0312 23.6693 66.4918V74.3305H37.3811V54.8726H35.6075V55.75C35.6075 56.2107 35.2351 56.5863 34.7744 56.5863H26.279C25.8183 56.5863 25.4428 56.2107 25.4428 55.75V54.8726H23.6694V62.7113C23.6694 63.1721 23.2971 63.5445 22.8364 63.5445C22.3756 63.5445 22.0001 63.172 22.0001 62.7113V54.0393C22.0001 53.5785 22.3757 53.203 22.8364 53.203H25.4431V52.3259C25.443 51.8652 25.8185 51.4927 26.2792 51.4927ZM28.6303 53.1623H27.1123V54.9168H33.9382C33.9382 54.3299 33.9382 53.7461 33.9382 53.1623H32.4203C31.9596 53.1623 31.5872 52.7868 31.5872 52.326V51.2656H29.4665V52.326C29.4665 52.7867 29.0942 53.1623 28.6303 53.1623Z" fill="#1E496B"/>
</svg>
