<svg width="275" height="274" viewBox="0 0 275 274" fill="none" xmlns="http://www.w3.org/2000/svg">
<g filter="url(#filter0_d)">
<path d="M69.002 68.5472V75.3214H71.9052L198.842 202.258V205H205.777V130.644L143.68 68.5472H69.002Z" fill="#1E496B"/>
</g>
<rect x="166.469" y="129.317" width="20.4983" height="16.4658" transform="rotate(45 166.469 129.317)" fill="white"/>
<path fill-rule="evenodd" clip-rule="evenodd" d="M182.625 142.149L168.131 127.654L153.636 142.149L168.131 156.643L182.625 142.149ZM165.991 131.218L168.842 134.07L169.317 138.347L173.594 138.822L176.446 141.673L168.842 140.723L165.991 143.574L170.98 145.237L174.307 148.564L168.604 146.663L169.792 153.079L166.703 149.99L166.109 145.831L164.327 145.237L163.139 146.425L161.238 144.525L166.941 138.822L165.991 131.218Z" fill="#F27480"/>
<path d="M123.697 99.8534L125.308 101.464L122.689 104.083L128.268 104.424L130.117 106.273L124.833 105.997L124.082 112.594L122.364 110.876L123.006 105.819L121.087 105.685L119.13 107.642L117.519 106.031L123.697 99.8534Z" fill="white"/>
<path d="M131.377 107.533L135.064 111.22C135.923 112.079 136.381 112.902 136.438 113.688C136.504 114.482 136.21 115.206 135.558 115.858C135.142 116.274 134.648 116.496 134.077 116.527C133.514 116.565 132.923 116.408 132.303 116.057C132.34 116.26 132.345 116.445 132.321 116.612C132.311 116.781 132.267 116.993 132.188 117.247L131.392 119.904L129.721 118.233L130.474 115.667C130.542 115.44 130.549 115.25 130.497 115.095C130.459 114.942 130.333 114.758 130.118 114.543L128.853 113.278L126.81 115.322L125.199 113.711L131.377 107.533ZM131.586 113.863C132.024 114.3 132.435 114.558 132.819 114.635C133.209 114.706 133.577 114.568 133.923 114.223C134.268 113.878 134.417 113.522 134.37 113.155C134.323 112.788 134.089 112.394 133.667 111.972L131.913 110.218L129.928 112.204L131.586 113.863Z" fill="white"/>
<path d="M140.914 117.07L142.68 118.836L139.426 127.938L137.755 126.267L138.514 124.052L135.686 121.224L133.483 121.995L131.801 120.313L140.914 117.07ZM139.273 122.816L140.577 119.15L136.922 120.465L139.273 122.816Z" fill="white"/>
<path d="M146.724 122.88L152.13 128.286L151.123 129.293L147.328 125.499L145.745 127.081L149.098 130.435L148.1 131.432L144.747 128.079L142.157 130.669L140.546 129.058L146.724 122.88Z" fill="white"/>
<path d="M153.905 132.056L151.542 129.693L152.54 128.696L158.864 135.02L157.866 136.018L155.516 133.667L150.335 138.847L148.724 137.236L153.905 132.056Z" fill="white"/>
<path d="M134.474 101.738L135.485 95.194L137.174 96.8825L136.358 101.482L140.958 100.667L142.634 102.343L136.091 103.354L133.876 105.569L132.259 103.952L134.474 101.738Z" fill="white"/>
<path d="M141.063 112.942C139.985 111.864 139.34 110.816 139.129 109.798C138.925 108.788 139.202 107.905 139.959 107.148L143.699 103.408L145.316 105.024L141.668 108.672C141.215 109.124 141.03 109.621 141.112 110.162C141.202 110.711 141.542 111.281 142.133 111.872C142.724 112.462 143.289 112.799 143.83 112.881C144.371 112.962 144.868 112.777 145.321 112.324L148.968 108.677L150.585 110.294L146.844 114.034C146.094 114.784 145.21 115.061 144.194 114.864C143.184 114.66 142.141 114.019 141.063 112.942Z" fill="white"/>
<path d="M149.514 121.393C148.236 120.115 147.519 118.877 147.361 117.677C147.21 116.471 147.606 115.397 148.549 114.454C149.554 113.449 150.678 113.011 151.923 113.139C153.182 113.269 154.47 113.993 155.788 115.31C156.666 116.189 157.356 117.047 157.86 117.885L156.78 118.964C156.331 118.168 155.684 117.346 154.837 116.5C153.935 115.598 153.115 115.125 152.376 115.081C151.644 115.031 150.915 115.369 150.189 116.095C148.905 117.379 149.042 118.799 150.598 120.356C151.133 120.891 151.69 121.324 152.269 121.655L153.665 120.259L151.869 118.463L152.669 117.663L155.83 120.824L152.9 123.755C152.447 123.6 151.932 123.333 151.354 122.954C150.782 122.568 150.168 122.047 149.514 121.393Z" fill="white"/>
<path d="M157.017 128.896C154.518 126.397 154.289 124.127 156.33 122.086C157.409 121.007 158.504 120.527 159.615 120.645C160.74 120.766 161.934 121.456 163.195 122.718C164.456 123.979 165.143 125.168 165.255 126.286C165.382 127.405 164.906 128.504 163.826 129.583C161.786 131.624 159.516 131.395 157.017 128.896ZM158.087 127.826C158.805 128.544 159.498 128.914 160.163 128.935C160.836 128.949 161.51 128.618 162.186 127.942C162.924 127.204 163.28 126.512 163.255 125.867C163.236 125.215 162.859 124.522 162.125 123.788C161.39 123.053 160.697 122.677 160.046 122.658C159.4 122.632 158.709 122.989 157.97 123.727C157.294 124.403 156.964 125.077 156.978 125.749C156.999 126.415 157.368 127.107 158.087 127.826Z" fill="white"/>
<path d="M138.824 87.6182L140.129 88.9229L142.129 86.9221L143.226 88.019C144.645 89.4382 146.318 89.4171 147.55 88.1847C148.777 86.9583 148.831 85.2829 147.43 83.8818L144.995 81.4471L138.824 87.6182ZM143.175 85.8766L145.233 83.8185L146.113 84.6984C146.866 85.4517 146.821 86.2261 146.206 86.8408C145.595 87.4525 144.808 87.5097 144.061 86.7624L143.175 85.8766ZM146.22 95.195C147.624 96.5992 149.459 96.5118 150.884 95.0865C152.319 93.6522 152.403 91.8202 150.999 90.416C149.595 89.0118 147.763 89.0962 146.328 90.5305C144.903 91.9558 144.816 93.7908 146.22 95.195ZM147.22 94.2067C146.572 93.5588 146.835 92.6337 147.642 91.8262C148.45 91.0186 149.378 90.7535 150.026 91.4013C150.661 92.0371 150.396 92.9652 149.589 93.7727C148.781 94.5803 147.856 94.8424 147.22 94.2067ZM150.22 99.0143L151.576 100.37L155.282 98.2549L155.339 98.3122L153.224 102.018L154.583 103.377L160.468 100.006L159.172 98.7099L155.376 101.096L155.336 101.057L157.669 97.2063L156.394 95.9317L152.537 98.2941L152.495 98.2519L154.887 94.4251L153.589 93.1264L150.22 99.0143ZM158.427 107.402C159.572 108.547 160.901 108.761 161.941 108.083L160.832 106.818C160.35 107.041 159.834 106.893 159.407 106.465C158.765 105.823 158.783 104.992 159.473 104.302L159.476 104.299L162.628 107.451L162.98 107.098C164.553 105.525 164.378 103.796 163.155 102.572C161.793 101.21 159.943 101.295 158.515 102.723C157.047 104.19 157.002 105.977 158.427 107.402ZM160.271 103.503C160.826 103.003 161.648 102.982 162.218 103.551C162.775 104.109 162.763 104.892 162.215 105.447L160.271 103.503ZM161.48 110.274L162.763 111.558L165.382 108.939C165.951 108.37 166.759 108.394 167.325 108.96C167.503 109.138 167.717 109.412 167.798 109.572L168.937 108.433C168.85 108.291 168.708 108.114 168.579 107.984C168.061 107.466 167.334 107.342 166.593 107.746L166.545 107.698L167.352 106.89L166.108 105.646L161.48 110.274ZM166.755 115.73C167.9 116.875 169.229 117.089 170.268 116.411L169.16 115.146C168.677 115.369 168.162 115.221 167.734 114.793C167.093 114.151 167.111 113.32 167.801 112.63L167.804 112.627L170.956 115.778L171.308 115.426C172.881 113.853 172.706 112.123 171.483 110.9C170.121 109.538 168.271 109.622 166.842 111.051C165.375 112.518 165.33 114.305 166.755 115.73ZM168.599 111.831C169.154 111.331 169.976 111.31 170.546 111.879C171.103 112.437 171.091 113.22 170.543 113.775L168.599 111.831ZM171.438 120.383C172.185 121.13 173.005 121.088 173.568 120.88L173.622 120.934L172.881 121.675L174.147 122.941L180.318 116.77L179.037 115.489L176.717 117.809L176.678 117.77C176.883 117.222 176.973 116.39 176.199 115.616C175.183 114.6 173.535 114.531 171.944 116.122C170.395 117.671 170.383 119.328 171.438 120.383ZM172.866 119.768C172.236 119.138 172.453 118.234 173.261 117.427C174.062 116.625 174.951 116.411 175.587 117.047C176.211 117.671 176.033 118.548 175.207 119.373C174.382 120.199 173.484 120.386 172.866 119.768ZM177.19 125.984L178.455 127.25L179.197 126.509L179.254 126.566C179.046 127.129 179.004 127.949 179.751 128.696C180.806 129.751 182.463 129.739 184.012 128.19C185.603 126.599 185.534 124.951 184.518 123.935C183.744 123.161 182.912 123.251 182.364 123.456L182.324 123.417L184.645 121.097L183.361 119.813L177.19 125.984ZM180.761 124.927C181.586 124.101 182.463 123.923 183.087 124.547C183.723 125.183 183.509 126.072 182.707 126.873C181.9 127.681 180.996 127.898 180.366 127.268C179.748 126.65 179.935 125.752 180.761 124.927ZM181.46 133.725C182.415 134.68 183.409 134.699 184.419 134.213L191.34 130.89L189.987 129.525L185.621 131.957L185.573 131.908L188.013 127.551L186.664 126.201L183.563 132.622L183.292 132.743C182.689 133.008 182.346 132.707 182.032 132.116L180.785 132.785C180.89 133.047 181.134 133.4 181.46 133.725Z" fill="#FBFBFB" fill-opacity="0.51"/>
<defs>
<filter id="filter0_d" x="57.002" y="61.5472" width="158.775" height="158.453" filterUnits="userSpaceOnUse" color-interpolation-filters="sRGB">
<feFlood flood-opacity="0" result="BackgroundImageFix"/>
<feColorMatrix in="SourceAlpha" type="matrix" values="0 0 0 0 0 0 0 0 0 0 0 0 0 0 0 0 0 0 127 0"/>
<feOffset dx="-1" dy="4"/>
<feGaussianBlur stdDeviation="5.5"/>
<feColorMatrix type="matrix" values="0 0 0 0 0 0 0 0 0 0 0 0 0 0 0 0 0 0 0.24 0"/>
<feBlend mode="normal" in2="BackgroundImageFix" result="effect1_dropShadow"/>
<feBlend mode="normal" in="SourceGraphic" in2="effect1_dropShadow" result="shape"/>
</filter>
</defs>
</svg>
