<svg width="150" height="150" viewBox="0 0 150 150" fill="none" xmlns="http://www.w3.org/2000/svg">
<circle cx="75" cy="75" r="75" fill="white"/>
<path d="M55.3261 51.2398C53.8136 49.8132 51.9574 49.2222 50.2027 50.6046C49.1119 51.4637 49.0078 53.3147 48.737 56.1393L48.0914 59.9689H48.0888L47.6775 62.4108C47.2324 65.0443 46.2716 67.564 44.8502 69.8252L42.0047 74.3525C40.0079 77.6014 36.8683 96.8872 35.8504 103.398C35.7448 104.076 35.4979 104.724 35.1256 105.299C34.7534 105.875 34.2641 106.366 33.6896 106.741L24.1144 112.986L23.5625 113.346L27.0351 117.788L29.3211 115.59L38.8963 109.344C39.4708 108.97 39.9601 108.479 40.3324 107.903C40.7046 107.327 40.9516 106.679 41.0571 106.002C42.075 99.4905 45.2147 80.2048 47.2115 76.9558L50.0569 72.4286C51.4783 70.1673 52.4391 67.6477 52.8842 65.0142L53.2955 62.5722H53.2981L53.9438 58.7427C54.2145 55.918 54.3186 54.067 55.4094 53.2079C55.736 52.9463 56.104 52.741 56.4982 52.6006C56.1524 52.1101 55.7599 51.6544 55.3261 51.2398Z" fill="#D4E1F4"/>
<path d="M104.46 49.9353C103.674 49.4273 102.757 49.1602 101.821 49.1667C100.885 49.1733 99.9715 49.4531 99.1926 49.972L67.3196 71.1633C66.0635 71.9964 59.1146 75.2139 56.4608 76.4482C56.2442 76.5492 56.0536 76.6985 55.9038 76.8848C55.754 77.071 55.649 77.2891 55.5967 77.5223C55.4634 78.1135 55.3257 78.6806 55.1854 79.2145C55.1104 79.5018 55.1189 79.8045 55.2098 80.0872C55.3007 80.3699 55.4703 80.6207 55.6987 80.8105C55.9271 81.0002 56.2049 81.1209 56.4994 81.1584C56.794 81.1959 57.0931 81.1487 57.3618 81.0223C60.2096 79.6946 63.9483 78.0459 65.1068 77.5598C67.783 76.4352 70.4723 75.1283 72.5264 73.7641L104.399 52.5727L104.416 52.5615L104.46 49.9353Z" fill="#D4E1F4"/>
<path d="M49.1465 58.8362C48.8405 58.5573 48.4386 58.4074 48.0247 58.4178C47.6108 58.4283 47.2169 58.5982 46.9253 58.8921L46.8975 58.9197C46.0038 59.7942 44.5084 61.1901 43.579 62.0266C43.4922 62.1042 43.4069 62.1813 43.3231 62.258C42.9872 57.2223 41.685 49.8952 39.7859 45.8446C38.4397 42.9736 34.9077 39.7267 31.5488 39.4882C30.6588 39.4101 29.7646 39.5814 28.9664 39.9828C28.1682 40.3843 27.4976 41.0001 27.0297 41.7612C26.0378 43.274 26.3528 45.0836 26.911 47.5128C27.0127 47.9554 27.1007 48.4024 27.1736 48.8507L28.1475 54.8572C28.5323 57.2921 28.4303 59.7792 27.8476 62.1744L26.5855 67.39C25.7098 71.1649 28.322 87.8741 29.9569 97.4979C30.0351 97.9588 30.0157 98.431 29.9 98.8839C29.7843 99.3368 29.5748 99.7604 29.2852 100.127L22.7383 112.246L25.4893 113.726L31.8253 101.95C32.355 101.246 32.7357 100.443 32.944 99.5872C33.1524 98.7318 33.184 97.8429 33.0369 96.9749C30.4411 81.696 29.1032 70.3605 29.6247 68.1112L30.8847 62.9096C31.5645 60.1153 31.6835 57.2138 31.2346 54.3732L30.2149 48.1316C30.1422 47.6854 30.054 47.2418 29.953 46.8013C29.6041 45.2802 29.3407 43.9348 29.6424 43.4745C29.8053 43.1788 30.0525 42.9382 30.3526 42.7834C30.6526 42.6286 30.9919 42.5665 31.3273 42.605C33.1825 42.7367 35.9186 44.9558 36.9573 47.1713C39.0869 51.7131 40.5239 61.728 40.2597 65.537C39.2651 66.9299 38.4649 68.4519 37.881 70.0608C37.7255 70.4507 37.7292 70.886 37.8912 71.2733C38.0533 71.6605 38.3608 71.9686 38.7477 72.1315C38.9395 72.207 39.1444 72.2437 39.3506 72.2395C39.5567 72.2353 39.76 72.1903 39.9486 72.107C40.1372 72.0238 40.3074 71.9039 40.4495 71.7545C40.5915 71.605 40.7024 71.4289 40.7759 71.2362C42.1451 67.6636 43.3772 66.3568 46.2966 63.7906C47.1885 63.0067 48.3012 61.9162 49.1156 61.1201L49.1572 61.0792C49.3067 60.9329 49.4253 60.758 49.506 60.565C49.5866 60.3719 49.6277 60.1646 49.6267 59.9554C49.6257 59.7462 49.5827 59.5393 49.5002 59.3471C49.4177 59.1548 49.2974 58.9811 49.1465 58.8362Z" fill="#F27480"/>
<path d="M93.4632 39.5049C92.6948 38.9395 91.7977 38.5745 90.8528 38.4427L93.8842 34.1472C94.7904 32.865 95.1616 31.2804 94.9194 29.7292C94.6771 28.178 93.8403 26.7821 92.5863 25.8373C91.3324 24.8926 89.7598 24.4732 88.2019 24.6682C86.644 24.8631 85.2233 25.6571 84.2408 26.8817C83.8087 25.8583 83.1163 24.9658 82.2324 24.2929C81.3485 23.62 80.3039 23.1901 79.2024 23.046C78.1009 22.9019 76.9809 23.0485 75.9536 23.4714C74.9263 23.8942 74.0276 24.5786 73.3468 25.4564L54.0918 50.2831L56.5603 52.1976L75.8156 27.3711C76.3059 26.742 77.0106 26.3153 77.7953 26.1723C78.58 26.0292 79.3898 26.1799 80.0706 26.5955C80.7514 27.0111 81.2555 27.6626 81.4869 28.4259C81.7183 29.1893 81.6608 30.011 81.3253 30.7347L61.1646 59.5695C61.0457 59.7374 60.9611 59.9271 60.9157 60.1278C60.8703 60.3285 60.865 60.5361 60.9001 60.7389C60.9351 60.9416 61.0099 61.1354 61.1201 61.3091C61.2303 61.4829 61.3738 61.6331 61.5422 61.7513C61.7106 61.8694 61.9007 61.9531 62.1016 61.9976C62.3025 62.0421 62.5102 62.0464 62.7128 62.0104C62.9153 61.9743 63.1088 61.8986 63.282 61.7876C63.4552 61.6766 63.6048 61.5325 63.7222 61.3635L86.6091 28.9136C87.0713 28.3051 87.7536 27.9019 88.5096 27.7908C89.2656 27.6796 90.0351 27.8693 90.6529 28.3191C91.2706 28.7689 91.6874 29.443 91.8138 30.1966C91.9401 30.9502 91.766 31.7234 91.3287 32.3501L68.8594 64.1879C68.7355 64.3551 68.6463 64.5454 68.5971 64.7476C68.5478 64.9498 68.5394 65.1598 68.5724 65.3652C68.6054 65.5707 68.6791 65.7675 68.7893 65.9441C68.8994 66.1207 69.0437 66.2734 69.2137 66.3935C69.3836 66.5135 69.5759 66.5984 69.7792 66.6431C69.9824 66.6878 70.1925 66.6914 70.3972 66.6538C70.6019 66.6161 70.7969 66.538 70.971 66.4239C71.145 66.3098 71.2945 66.1621 71.4107 65.9894L87.9545 42.5482C88.3758 41.9999 88.995 41.6384 89.6796 41.541C90.3641 41.4437 91.0596 41.6184 91.6169 42.0275C92.1657 42.4312 92.5393 43.0293 92.6612 43.6995C92.7831 44.3697 92.6441 45.0612 92.2727 45.6322L84.3705 58.0911C84.1489 58.4411 84.0754 58.8648 84.1662 59.269C84.257 59.6732 84.5047 60.0248 84.8547 60.2464C85.2047 60.468 85.6284 60.5415 86.0326 60.4507C86.4368 60.3599 86.7884 60.1122 87.01 59.7622L94.9052 47.3139C95.7049 46.0735 96.001 44.5747 95.733 43.1234C95.465 41.6721 94.6532 40.3779 93.4632 39.5049Z" fill="#F27480"/>
<path d="M110.522 11.1657C110.339 11.0738 110.139 11.0188 109.934 11.0041C109.73 10.9893 109.524 11.0149 109.33 11.0796C109.135 11.1442 108.955 11.2466 108.8 11.3808C108.645 11.515 108.518 11.6785 108.426 11.8619L100.355 27.9582C100.263 28.1416 100.208 28.3413 100.194 28.5459C100.179 28.7505 100.204 28.956 100.269 29.1507C100.334 29.3454 100.436 29.5254 100.57 29.6806C100.705 29.8357 100.868 29.9629 101.051 30.0548C101.235 30.1468 101.435 30.2017 101.639 30.2165C101.844 30.2312 102.049 30.2056 102.244 30.1409C102.439 30.0762 102.619 29.9739 102.774 29.8396C102.929 29.7054 103.056 29.5419 103.148 29.3585L111.218 13.2622C111.31 13.0788 111.365 12.8791 111.38 12.6745C111.395 12.4699 111.369 12.2644 111.304 12.0697C111.24 11.875 111.137 11.695 111.003 11.5399C110.869 11.3848 110.705 11.2576 110.522 11.1657Z" fill="#F27480"/>
<path d="M124.399 22.5601C124.186 22.205 123.84 21.9492 123.438 21.849C123.036 21.7487 122.611 21.8123 122.256 22.0256L105.149 32.3045C104.971 32.4091 104.815 32.5479 104.691 32.7129C104.567 32.8779 104.477 33.0659 104.426 33.266C104.375 33.466 104.365 33.6742 104.395 33.8784C104.425 34.0826 104.495 34.2789 104.601 34.4558C104.707 34.6327 104.848 34.7868 105.014 34.9092C105.18 35.0316 105.369 35.1198 105.57 35.1687C105.77 35.2176 105.978 35.2263 106.182 35.1943C106.386 35.1623 106.582 35.0901 106.758 34.982L123.865 24.7029C124.22 24.4895 124.475 24.1439 124.575 23.7421C124.676 23.3403 124.612 22.9151 124.399 22.5601Z" fill="#F27480"/>
<path d="M126.141 37.606H126.125L108.604 37.7882C108.19 37.7903 107.793 37.9568 107.502 38.2512C107.21 38.5456 107.048 38.9438 107.05 39.358C107.052 39.7723 107.218 40.1688 107.513 40.4603C107.807 40.7517 108.205 40.9143 108.62 40.9122H108.636L126.156 40.73C126.57 40.7279 126.966 40.5614 127.258 40.267C127.549 39.9726 127.712 39.5745 127.71 39.1602C127.708 38.7459 127.541 38.3494 127.247 38.058C126.952 37.7665 126.554 37.6039 126.14 37.606H126.141Z" fill="#F27480"/>
<path d="M116.453 55.1972C115.572 53.8918 114.216 52.9823 112.675 52.6628C111.133 52.3432 109.527 52.6388 108.2 53.4865C108.115 52.3792 107.742 51.3133 107.118 50.3947C106.494 49.4761 105.641 48.7367 104.643 48.2498C103.645 47.763 102.536 47.5457 101.428 47.6194C100.32 47.6932 99.2508 48.0554 98.326 48.6703L66.4548 69.8632C64.691 71.0347 62.2824 72.2661 59.2956 73.5189C58.9147 73.6787 58.5549 73.8331 58.2055 73.9875C59.4731 69.114 60.5486 61.7722 60.0321 57.3124C59.6676 54.1605 57.349 49.9571 54.2393 48.663C53.4208 48.3065 52.5193 48.1848 51.6356 48.3114C50.7518 48.4381 49.9208 48.8082 49.2354 49.3802C47.69 50.5965 47.4979 52.6365 47.2321 55.4599L47.1868 55.9368L46.1361 62.1508C45.7275 64.5817 44.8407 66.9074 43.527 68.9932L40.6734 73.5353C38.6428 76.8361 35.8135 93.5116 34.3069 103.158C34.2345 103.619 34.0662 104.06 33.8129 104.451C33.5596 104.843 33.2269 105.177 32.8363 105.432L22.7087 112.038C22.5274 112.156 22.3727 112.31 22.2544 112.492C22.136 112.673 22.0566 112.877 22.0211 113.09C21.9857 113.303 21.9949 113.522 22.0483 113.732C22.1018 113.941 22.1982 114.138 22.3314 114.308L41.9244 139.373C42.053 139.538 42.2134 139.675 42.3959 139.776C42.5784 139.878 42.7794 139.942 42.9871 139.964C43.0429 139.97 43.099 139.973 43.1552 139.973C43.519 139.973 43.8713 139.846 44.1515 139.614L61.429 125.306C61.9945 124.837 62.5224 124.331 62.9634 123.897C63.9845 122.89 65.2145 122.12 66.5662 121.64C71.8045 119.776 79.7575 113.877 87.8401 105.86L105.944 89.6441C107.347 88.4365 108.3 86.789 108.646 84.9704C108.993 83.1518 108.712 81.2694 107.851 79.6305L107.777 79.4884L111.821 76.2602C112.579 75.6547 113.173 74.8685 113.547 73.9738C113.922 73.0791 114.066 72.1045 113.966 71.1397C113.866 70.1748 113.525 69.2506 112.974 68.4519C112.424 67.6533 111.681 67.0058 110.815 66.5689L115.035 63.4519C116.293 62.5266 117.144 61.1497 117.408 59.6104C117.673 58.0711 117.33 56.4893 116.453 55.1972ZM113.179 60.9384L79.2509 85.9978C79.0834 86.1187 78.9417 86.2717 78.8337 86.4478C78.7258 86.6238 78.6539 86.8196 78.6221 87.0236C78.5903 87.2277 78.5993 87.436 78.6485 87.6366C78.6978 87.8372 78.7863 88.026 78.909 88.1921C79.0317 88.3582 79.1862 88.4983 79.3634 88.6044C79.5406 88.7105 79.7371 88.7803 79.9415 88.8099C80.1458 88.8396 80.3541 88.8283 80.5541 88.777C80.7541 88.7256 80.942 88.635 81.1068 88.5106L107.049 69.3498C107.615 69.0706 108.262 69.0028 108.873 69.1585C109.485 69.3142 110.021 69.6832 110.384 70.1991C110.776 70.7539 110.941 71.4375 110.846 72.11C110.751 72.7826 110.403 73.3934 109.872 73.8177L82.0885 95.9984C81.7647 96.2568 81.5569 96.6333 81.5107 97.045C81.4645 97.4567 81.5837 97.8699 81.8421 98.1937C82.1006 98.5175 82.477 98.7253 82.8887 98.7715C83.3004 98.8177 83.7136 98.6985 84.0374 98.4401L105.274 81.4867C105.685 82.4742 105.774 83.5663 105.527 84.6071C105.28 85.6478 104.711 86.5839 103.9 87.2815L85.6408 103.641C76.4887 112.718 69.2456 117.37 65.5189 118.697C63.7388 119.328 62.119 120.342 60.7743 121.668C60.3601 122.075 59.9113 122.506 59.4372 122.899L43.3968 136.183L25.8405 113.724L34.5425 108.049C35.2998 107.555 35.9449 106.907 36.436 106.147C36.9272 105.388 37.2534 104.534 37.3937 103.64C39.7854 88.3263 42.1173 77.1519 43.3268 75.1855L46.1723 70.6557C47.7049 68.2219 48.7396 65.5083 49.2164 62.6719L50.277 56.3991C50.2832 56.3624 50.2882 56.3252 50.2918 56.288L50.3426 55.7506C50.5136 53.9353 50.675 52.2207 51.1679 51.8328C51.4161 51.6047 51.7265 51.4555 52.0597 51.4042C52.3929 51.3529 52.7339 51.4019 53.0392 51.5449C54.7574 52.2601 56.6474 55.2362 56.9288 57.6693C57.5063 62.6626 55.7248 72.5478 54.2768 76.0975C52.8545 77.1204 51.5818 78.3368 50.4957 79.7115C50.3652 79.8698 50.2672 80.0522 50.2072 80.2484C50.1472 80.4446 50.1265 80.6506 50.1461 80.8548C50.1658 81.059 50.2255 81.2573 50.3218 81.4384C50.4181 81.6196 50.5492 81.7799 50.7075 81.9104C50.8657 82.0409 51.0482 82.1389 51.2444 82.1989C51.4405 82.2589 51.6466 82.2796 51.8508 82.2599C52.055 82.2403 52.2533 82.1806 52.4344 82.0843C52.6155 81.988 52.7759 81.8569 52.9064 81.6986C55.3384 78.748 56.9216 77.9016 60.5043 76.399C63.6726 75.0694 66.2577 73.7456 68.1842 72.4635L100.056 51.2721C100.439 51.0141 100.873 50.842 101.328 50.7676C101.784 50.6932 102.25 50.7183 102.695 50.8412C103.238 50.9883 103.733 51.2736 104.133 51.6692C104.533 52.0647 104.824 52.5571 104.977 53.0984C105.13 53.6397 105.14 54.2114 105.006 54.7577C104.873 55.3041 104.6 55.8066 104.214 56.2161L73.5393 78.8188C73.3686 78.938 73.2234 79.0902 73.1124 79.2663C73.0013 79.4425 72.9266 79.6391 72.8926 79.8445C72.8586 80.05 72.866 80.2602 72.9145 80.4627C72.9629 80.6652 73.0513 80.856 73.1746 81.0239C73.2978 81.1918 73.4534 81.3333 73.6321 81.4401C73.8109 81.547 74.0092 81.617 74.2154 81.6461C74.4216 81.6752 74.6315 81.6628 74.8329 81.6096C75.0342 81.5564 75.2228 81.4634 75.3877 81.3362L109.799 56.1714C110.432 55.7376 111.209 55.57 111.964 55.7046C112.719 55.8393 113.391 56.2655 113.835 56.8912C114.278 57.5169 114.458 58.292 114.335 59.049C114.212 59.8061 113.797 60.4845 113.178 60.9378L113.179 60.9384Z" fill="#1E496B"/>
</svg>
